<svg width="16" height="16" viewBox="0 0 16 16" fill="none" xmlns="http://www.w3.org/2000/svg">
<g clip-path="url(#clip0_107_1330)">
<path fill-rule="evenodd" clip-rule="evenodd" d="M7.86817 2.63037H8.11558C8.40117 2.63924 8.68865 2.67871 8.97334 2.74923C9.68489 2.92551 10.2628 3.29245 10.7665 3.79606C10.9397 3.96934 11.0575 4.11406 11.1979 4.31576C11.3165 4.48618 11.4517 4.73554 11.5363 4.92845C12.1042 6.22382 11.8659 7.46453 11.3774 8.69344L10.9989 9.50377C10.8819 9.73411 10.5875 10.2294 10.4448 10.4424C10.1116 10.9399 9.94072 11.1652 9.59987 11.6184L9.14099 12.1767L8.08265 13.2979C8.04589 13.3264 8.02785 13.348 7.99575 13.3695L7.26728 12.6582C7.21616 12.5941 7.18076 12.5658 7.12708 12.5078L6.46357 11.7316L5.73436 10.7568C5.69384 10.6958 5.65715 10.641 5.61813 10.5825L5.39418 10.2385C5.32089 10.1165 5.24939 10.0007 5.1782 9.87327C5.01341 9.57857 4.93711 9.41484 4.78593 9.11631C4.59784 8.74494 4.44147 8.26824 4.32517 7.87304C4.25112 7.62142 4.16647 7.16638 4.15151 6.89747C4.12655 6.44747 4.12858 6.46408 4.15189 6.07805C4.17324 5.72427 4.32495 5.24268 4.44801 4.94754L4.5392 4.74817C4.65008 4.54226 4.84351 4.22133 4.98755 4.06046C5.03672 4.00558 5.0725 3.95942 5.12016 3.90244C5.24503 3.75313 5.41072 3.60985 5.56235 3.48603C6.22436 2.94529 7.03251 2.65623 7.86825 2.63045L7.86817 2.63037ZM7.98259 12.5373C7.92222 12.4233 7.79345 12.3437 7.7091 12.2428C7.50244 11.9956 7.25977 11.7572 7.04476 11.4806C6.82532 11.1983 6.64084 10.9797 6.41636 10.6693C6.33382 10.5552 6.26105 10.4503 6.18354 10.3341L5.73969 9.62872C5.24248 8.79952 4.73315 7.56692 4.73315 6.60639C4.73315 5.92627 4.79134 5.70622 5.04251 5.09293C5.07649 5.00994 5.20774 4.79771 5.25729 4.71329L5.51048 4.37206C5.65234 4.19593 5.95305 3.93266 6.1358 3.80854C6.30893 3.69096 6.44418 3.61045 6.63963 3.51979C7.57258 3.08722 8.72293 3.12744 9.61302 3.6551C9.78067 3.75449 9.93207 3.85177 10.08 3.98069L10.4812 4.37199C10.5414 4.44656 10.599 4.51595 10.6536 4.59594C11.0079 5.11594 11.2586 5.72547 11.2586 6.36861C11.2586 6.89875 11.2347 7.09361 11.1107 7.59444C10.8758 8.54324 10.3446 9.4952 9.80029 10.3129C9.75744 10.3773 9.72368 10.4206 9.68136 10.4846C9.63926 10.5483 9.60663 10.5943 9.5622 10.6561C9.48003 10.7704 9.40448 10.8706 9.32058 10.9824L8.33615 12.1643C8.2648 12.2452 8.04882 12.4931 7.98274 12.5373H7.98259ZM6.15971 6.35537C6.15971 7.09835 6.56904 7.69329 7.20759 8.01535C8.31938 8.57602 9.83186 7.78057 9.83186 6.35537C9.83186 5.36357 8.99695 4.53249 8.0486 4.53249C7.27104 4.53249 6.63964 4.92649 6.32254 5.60677C6.23315 5.79854 6.15971 6.08038 6.15971 6.35537ZM7.99575 7.59707C7.82705 7.59707 7.63851 7.54805 7.51635 7.4952C7.25202 7.38093 7.02657 7.17976 6.8993 6.92348C6.68602 6.49408 6.72556 6.0164 7.00492 5.62864C7.06897 5.53971 7.14166 5.47115 7.22661 5.40123C7.3251 5.32019 7.39095 5.2899 7.50687 5.23239C7.7948 5.08925 8.19684 5.10361 8.48447 5.23276C8.89802 5.41837 9.22428 5.83884 9.22428 6.28937C9.22428 6.53663 9.21451 6.67969 9.10129 6.90612C9.06912 6.97047 9.03183 7.03054 8.99041 7.08587C8.9632 7.12218 8.95214 7.1324 8.92455 7.16533C8.70203 7.43018 8.36667 7.59714 7.99582 7.59714L7.99575 7.59707Z" fill="#E79500"/>
<path d="M8.00003 15.7123C12.2595 15.7123 15.7124 12.2594 15.7124 7.99997C15.7124 3.74055 12.2595 0.287598 8.00003 0.287598C3.74061 0.287598 0.287659 3.74055 0.287659 7.99997C0.287659 12.2594 3.74061 15.7123 8.00003 15.7123Z" stroke="#E79500" stroke-width="0.527692" stroke-miterlimit="22.9256"/>
</g>
<defs>
<clipPath id="clip0_107_1330">
<rect width="16" height="16" fill="white"/>
</clipPath>
</defs>
</svg>
