<?xml version="1.0" encoding="UTF-8"?>
<!DOCTYPE svg PUBLIC "-//W3C//DTD SVG 1.1//EN" "http://www.w3.org/Graphics/SVG/1.1/DTD/svg11.dtd">
<!-- Creator: CorelDRAW 2020 (64-Bit) -->
<svg xmlns="http://www.w3.org/2000/svg" xml:space="preserve" width="21.3166mm" height="20.6503mm" version="1.1" style="shape-rendering:geometricPrecision; text-rendering:geometricPrecision; image-rendering:optimizeQuality; fill-rule:evenodd; clip-rule:evenodd"
viewBox="0 0 663.54 642.8"
 xmlns:xlink="http://www.w3.org/1999/xlink"
 xmlns:xodm="http://www.corel.com/coreldraw/odm/2003">
 <defs>
  <style type="text/css">
   <![CDATA[
    .fil0 {fill:#282466}
    .fil1 {fill:#E79500}
   ]]>
  </style>
 </defs>
 <g id="Слой_x0020_1">
  <metadata id="CorelCorpID_0Corel-Layer"/>
  <g id="_2426649581696">
   <path class="fil0" d="M125.89 341.63c0.08,9.6 0.56,20.59 2.9,26.42 2.59,6.44 9.44,12.31 18.28,12.31l51.77 0c3.99,0 12.41,-23.92 34.51,-23.92 12.28,0 21.61,5.96 26.28,16.47 2.47,5.57 -0.55,2.94 5.21,5.37 2.56,1.08 4.64,2.38 6.61,3.98 10.48,8.56 7.23,13.75 11.44,15.23 1.72,0.6 2.4,1 3.8,1.69 2.66,1.32 4.12,2.35 6.17,4.41 8.07,8.14 1.62,5.12 8.78,7.3 11.75,3.59 20.73,13.71 20.73,28.68 0,3.18 -0.9,7.13 -1.84,9.53 -0.61,1.57 -1.09,2.62 -1.81,4.07 -0.78,1.54 -1.69,2.33 -1.84,4.05 2.81,1.49 5.66,2.75 9.8,2.75 4.86,0 10.06,-3.09 12.16,-5.87 3.44,-4.55 3.91,-6.29 3.91,-14.13 4.4,2.95 5.2,6.27 14.12,6.27 1.7,0 5.15,-0.86 6.4,-1.45 5.47,-2.6 9.68,-8.12 9.68,-15.02 0,-1.97 -0.35,-1.76 -0.39,-3.53 1.94,1.3 3.46,3.05 5.61,4.19 9.49,5.03 20.49,0.73 23.96,-9.53 0.92,-2.71 0.63,-5.03 0.63,-8.4 5.27,3.53 4.74,6.27 14.9,6.27 12.31,0 18.79,-15.05 12.78,-24.94 -2.66,-4.39 -38.27,-46.77 -46,-56.36 -9.6,-11.91 -19.74,-23.49 -29.15,-35.56l-14.46 -17.7c-7.53,-9.5 -4.46,-6.11 -23.06,3.32l-20.65 11.51c-10.94,6.08 -17.1,7.58 -30.46,7.58 -6.65,0 -15.36,-2.97 -20.23,-6.83 -5.32,-4.21 -9.57,-9.96 -9.57,-17.49 0,-14.15 3.92,-14.42 3.92,-18.82 0,-2.1 -1.53,-3.37 -3.52,-3.54 -5.21,-0.43 -45.81,0.01 -52.16,0.01l7.76 -13.41c1,-1.6 1.9,-2.85 2.98,-4.47 4.03,-6.08 8.29,-10.54 12.56,-16.07 5.71,-7.39 23.32,-21.73 30.89,-26.75 21.53,-14.29 47.84,-24.49 73.71,-27.08 16.76,-1.68 34.72,-1.17 51.08,2.13 8.54,1.72 15.02,3.58 22.54,6.09 6.92,2.31 13.46,5.29 19.78,8.45l6.95 3.64c0.84,0.48 1.41,0.72 2.26,1.27 2.06,1.34 6.99,4.92 9.1,5.42 -2.06,3.08 -9.8,11.57 -9.8,15.3 0,1.55 0.69,3.56 1.68,4.59 0.13,0.14 1.43,1.06 1.59,1.15 2.34,1.23 5.43,0.83 8.11,0.91 2.09,0.06 2.95,0.43 5.47,0.41 6.35,-0.05 16.04,1 22.35,1.19 4.04,0.12 7.17,0.4 11,0.37 2.52,-0.02 3.2,0.39 5.47,0.41 4.64,0.05 12.56,1.39 16.3,0.21 7.36,-2.31 3,-10.59 1.19,-15.36 -1.11,-2.92 -2.23,-5.76 -3.31,-8.46l-16.25 -42.19c-1.48,-3.76 -2.93,-5.6 -7.34,-5.6 -3.19,0 -5.69,4.36 -7.22,6.5 -2.02,2.81 -3.84,5.2 -5.72,8.01 -8.99,-6.02 -19.02,-11.55 -29.01,-16.48l-6.5 -2.91c-9.26,-3.66 -17.44,-6.58 -27.09,-9.38 -14.3,-4.15 -30.25,-6.43 -46.36,-6.92l-13.38 0c-14.66,0.45 -29.1,2.35 -42.21,5.65 -28.12,7.07 -53.52,18.96 -76.68,36.26 -1.27,0.95 -2.29,1.77 -3.52,2.75 -4.65,3.7 -9.21,7.51 -13.38,11.72 -0.58,0.59 -0.95,1.02 -1.59,1.55 -0.86,0.72 -1.08,0.74 -1.95,1.58l-17.63 20.01c-9.25,11.21 -20.4,30.27 -25.73,43.29 -1.83,4.46 -3.85,8.74 -5.4,13.43l-3.14 9.41c-5.31,16.3 -8.77,35.47 -8.77,54.36l0 10.67 0.01 0.01 0.01 0zm287.62 279.53c135.1,-36.75 228.89,-159.79 228.89,-299.76 0,-139.98 -93.79,-263.01 -228.89,-299.76 -1.03,-0.28 -1.72,-1.18 -1.72,-2.25l0 -17.04c0,-0.75 0.31,-1.39 0.9,-1.84 0.59,-0.46 1.29,-0.6 2.01,-0.42 146.27,37.65 248.83,170.01 248.83,321.32 0,151.31 -102.56,283.67 -248.83,321.32 -0.72,0.19 -1.42,0.04 -2.01,-0.42 -0.59,-0.45 -0.9,-1.1 -0.9,-1.84l0 -17.04c0,-1.07 0.69,-1.97 1.72,-2.25zm-161.77 -618.82l0 17.04c0,1.07 -0.69,1.97 -1.72,2.25 -135.09,36.75 -228.88,159.79 -228.88,299.76 0,139.98 93.79,263.01 228.88,299.76 1.03,0.28 1.72,1.18 1.72,2.25l0 17.04c0,0.75 -0.32,1.39 -0.91,1.84 -0.59,0.46 -1.29,0.6 -2.01,0.42 -146.27,-37.65 -248.83,-170.01 -248.83,-321.32 0,-151.3 102.56,-283.67 248.83,-321.32 0.72,-0.19 1.42,-0.04 2.01,0.42 0.59,0.45 0.91,1.1 0.91,1.84z"/>
   <path class="fil1" d="M491 380.37c-2.04,8.75 -5.44,17.36 -9.15,25.36 -1.86,4.01 -3.76,7.6 -5.87,11.38l-6.66 10.99c-0.7,1 -1.02,1.6 -1.73,2.58 -0.7,0.96 -1.11,1.59 -1.76,2.56 -1.23,1.83 -2.41,3.11 -3.74,4.89l-11.97 13.91c-8.76,8.68 -18.17,16.94 -28.76,23.4 -1.94,1.19 -3.32,2.32 -5.26,3.36 -7.68,4.12 -15.19,8.2 -23.42,11.48 -28.48,11.36 -62.14,14.89 -93.49,8.55 -18.67,-3.78 -36.45,-10.48 -52.68,-20.26 -5.11,-3.08 -9.83,-6.69 -14.73,-9.97 1.35,-2.55 3.48,-4.61 5.27,-6.89 3.07,-3.9 7.48,-8.36 3.27,-13.02 -1.96,-2.16 -6.58,-2.18 -9.36,-2.41 -2.18,-0.18 -3.24,-0.28 -5.42,-0.46 -6.32,-0.53 -50.42,-5.57 -53.37,-5.48 -3.34,0.11 -6.28,2.67 -6.28,5.91 0,3.55 9.64,31.51 10.93,35.35l8.42 26.09c1.99,6.84 7.61,7.6 11.16,3.98l9.49 -11.68 18.75 12.63c2.3,1.45 4.4,2.52 6.72,3.87 13.15,7.59 29.88,14.63 44.33,18.42 11.28,2.95 23.09,6 35.29,6.67 6.61,0.37 13.21,1.16 20.01,1.16 24.3,0 44.44,-3.51 65.54,-10.54 9.59,-3.2 18.09,-6.76 26.88,-11.16 3,-1.5 5.68,-2.71 8.53,-4.41l26.68 -17.64c1.35,-1.01 2.35,-1.94 3.66,-3.01 19.89,-16.2 36.74,-36.15 49.24,-58.61 5.48,-9.85 10.13,-20.15 13.94,-30.76 7.17,-19.93 12.21,-42.46 12.21,-64.26 0,-16.22 -0.62,-29.6 -3.69,-44.94 -1.67,-8.35 -5.01,-24.13 -9.01,-29.42 -7.41,-9.8 -18.46,-8 -30.04,-8 -11.68,0 -27.31,0.77 -38.01,-0.42 -7.88,-0.88 -14.46,-3.99 -21.43,-6.8 -2.45,-0.99 -4.61,-1.85 -7.08,-2.72 -2.39,-0.85 -4.57,-1.7 -6.82,-2.6l-48.46 -18.6c-19.19,-7.3 -28.68,-11.47 -48.32,-6.03 -3.09,0.86 -6.3,2.28 -9.16,3.78 -8.02,4.17 -37.62,27.73 -48.23,35.69 -3.24,2.43 -12.94,9.06 -14.79,11.88 -2.59,3.97 -2.32,9.42 0.81,12.8 6.04,6.54 20.3,6.16 27.82,3.67 6.14,-2.04 11.72,-5.84 17.33,-8.95 2.05,-1.14 3.73,-2.21 5.76,-3.26 1.76,-0.91 3.8,-2.14 5.51,-3.12l19.85 -11.13c3.27,-1.66 6.15,-3.87 10.05,-2.34 4.02,1.57 6.09,5.72 8.82,8.84l9.94 12.02c8.4,10.61 17.52,20.76 25.83,31.43 1.31,1.69 2.69,3.13 4.1,4.92 1.35,1.73 2.47,3.09 3.87,4.76l12.2 14.85c8.43,10.66 17.53,20.66 25.89,31.37l9.93 12.04c4.76,5.33 3.5,6.92 9.68,2.03 2.06,-1.63 2.88,-2.52 5.7,-3.32 3.85,-1.09 28.92,-0.37 35.31,-0.37l0 -0 -0.01 0zm-259.61 31.76c0,7.04 0.45,9.57 4.35,13.29 4.24,4.06 8.87,6.16 14.95,4.44 1.7,-0.48 1.59,-0.83 3.44,-0.87 0,4.86 0.38,9.24 4.7,12.56 10.29,7.91 13.83,2.74 16.87,2.74 1.37,0 1.11,0.81 1.45,2.08 0.3,1.08 0.49,1.81 0.91,2.61 1.66,3.18 4.06,5.29 7.3,6.82 6.54,3.1 13.76,0.65 17.4,-4.45 4.98,-6.96 7.91,-15.5 1.23,-22.81 -3.06,-3.36 -8.83,-4.98 -13.44,-3.91 -1.66,0.38 -1.52,0.7 -3.08,0.84 0,-9.58 -7.07,-15.89 -16.07,-14.93 -5.47,0.59 -5.05,2.57 -3.91,-3.5 0.25,-1.33 0.42,-2.19 0.18,-3.71 -1.23,-7.75 -6.26,-12.77 -14.7,-12.77 -3.29,0 -4.52,1.57 -6.66,1.57 -2.54,0 5.61,-8.24 -2.69,-17.31 -0.63,-0.69 -2.89,-2.33 -3.84,-2.83 -4.62,-2.45 -10.97,-1.38 -14.61,1.36 -2.66,2 -14.66,16.71 -16.01,19.68 -3.1,6.85 0.27,13.37 4.53,16.81 9.23,7.46 14.6,2.55 17.71,2.29l-0.01 -0 0 0z"/>
  </g>
 </g>
</svg>
