<svg width="16" height="16" viewBox="0 0 16 16" fill="none" xmlns="http://www.w3.org/2000/svg">
<g clip-path="url(#clip0_107_1342)">
<path fill-rule="evenodd" clip-rule="evenodd" d="M3.1539 5.77813V10.2215C3.1539 10.6705 3.46197 10.9949 3.98257 10.9949H12.0176C12.3141 10.9949 12.5041 10.918 12.6894 10.7172C12.7752 10.6242 12.8463 10.4477 12.8463 10.3273V5.67228C12.8463 5.55538 12.7774 5.38052 12.6957 5.28918C12.5117 5.08365 12.3169 5.00464 12.0176 5.00464H4.01249C3.47521 5.00464 3.15398 5.3067 3.15398 5.77806L3.1539 5.77813ZM4.02903 5.46713H11.9866L11.5401 5.83549L11.539 5.83632C11.4984 5.86639 11.4613 5.89293 11.4239 5.92645L11.4219 5.92818L8.48408 8.30144L8.48272 8.30241C8.43927 8.33309 8.39822 8.36323 8.35169 8.39052C7.98964 8.60237 7.85695 8.53877 7.52933 8.30467C7.48753 8.27482 7.45025 8.24175 7.40845 8.21062L7.16811 8.02366C7.13127 7.99231 7.09857 7.95668 7.0585 7.92833L7.05715 7.92736L4.6012 5.9363C4.55797 5.90428 4.51941 5.87654 4.48024 5.84143L4.02903 5.46713ZM3.67623 10.1763V5.91172L6.12097 7.86383L6.1221 7.86488C6.17502 7.9127 6.23802 7.94322 6.28132 8.0005L6.30613 8.03336L3.93348 9.99351C3.87763 10.0432 3.82387 10.0888 3.75787 10.128L3.67615 10.1764L3.67623 10.1763ZM9.70863 8.01892L11.2158 6.79978C11.2428 6.77595 11.2655 6.75295 11.2956 6.73167C11.568 6.53922 11.8094 6.30211 12.0772 6.10402L12.3239 5.91435V10.1763L12.2423 10.1279C12.1798 10.0909 12.1416 10.0389 12.0838 9.99945L12.0818 9.99817L11.3046 9.35842C11.1036 9.17987 10.8784 9.02193 10.6784 8.84361L10.0499 8.32685C9.95836 8.2449 9.80215 8.14266 9.73374 8.05223L9.70863 8.019V8.01892ZM9.66811 8.66379L9.97994 8.9139C10.0327 8.95502 10.0756 9.00148 10.1316 9.03982C10.1892 9.07914 10.2304 9.12973 10.2858 9.1689L10.2872 9.16988L10.9957 9.74588C11.1854 9.88631 11.3554 10.0453 11.5414 10.1903L11.6995 10.3177C11.7599 10.3707 11.8163 10.3931 11.867 10.4601L11.9217 10.5325H4.04166L6.18375 8.79557C6.23742 8.75204 6.28411 8.70694 6.34162 8.66634C6.39695 8.62725 6.43814 8.57658 6.49565 8.53727C6.54971 8.50028 6.60376 8.46104 6.6421 8.41037L6.67127 8.3718L6.71487 8.39766C6.80628 8.45186 6.88717 8.53794 6.97062 8.60297C7.39379 8.933 7.51708 9.01133 8.10451 9.01133C8.46851 9.01133 8.7717 8.83256 9.01911 8.61161L9.02061 8.61026L9.31034 8.39127L9.34335 8.41089C9.40649 8.44833 9.45882 8.49148 9.51197 8.5393C9.56128 8.58357 9.61819 8.61943 9.66788 8.66386L9.66811 8.66379Z" fill="#E79500"/>
<path d="M8 15.7123C12.2594 15.7123 15.7124 12.2594 15.7124 7.99997C15.7124 3.74055 12.2594 0.287598 8 0.287598C3.74058 0.287598 0.287628 3.74055 0.287628 7.99997C0.287628 12.2594 3.74058 15.7123 8 15.7123Z" stroke="#E79500" stroke-width="0.527692" stroke-miterlimit="22.9256"/>
</g>
<defs>
<clipPath id="clip0_107_1342">
<rect width="16" height="16" fill="white"/>
</clipPath>
</defs>
</svg>
