<?xml version="1.0" encoding="UTF-8"?>
<!DOCTYPE svg PUBLIC "-//W3C//DTD SVG 1.1//EN" "http://www.w3.org/Graphics/SVG/1.1/DTD/svg11.dtd">
<!-- Creator: CorelDRAW 2020 (64-Bit) -->
<svg xmlns="http://www.w3.org/2000/svg" xml:space="preserve" width="21.3166mm" height="20.6503mm" version="1.1" style="shape-rendering:geometricPrecision; text-rendering:geometricPrecision; image-rendering:optimizeQuality; fill-rule:evenodd; clip-rule:evenodd"
viewBox="0 0 3764.68 3647.01"
 xmlns:xlink="http://www.w3.org/1999/xlink"
 xmlns:xodm="http://www.corel.com/coreldraw/odm/2003">
 <defs>
  <style type="text/css">
   <![CDATA[
    .fil0 {fill:#28295B}
    .fil1 {fill:#E79500}
   ]]>
  </style>
 </defs>
 <g id="Слой_x0020_1">
  <metadata id="CorelCorpID_0Corel-Layer"/>
  <g id="_2426649554048">
   <path class="fil0" d="M2417.5 1911.57c-0.49,19.21 -0.71,58.9 -0.62,97.42 0.05,34.67 0.39,68.26 0.94,84.81l185.09 0.05 78.48 -0.34c-35.41,-57.12 -71.24,-113.86 -106.69,-170.94 -3.85,-6.25 -6.13,-10.01 -7.45,-11.34 -0.21,-0.18 -1.36,0.21 -4.87,0.25l-64 -0.05c-26.9,-0.11 -53.87,-0.25 -80.87,0.14zm-1691.62 -110.91l0 22.13c1.24,2.42 1.93,5.1 2.76,8.23 1.38,5.17 3.39,12.79 10.88,21.28 4.08,4.68 7.58,8.53 11.21,11.51 3.44,2.84 7.42,5.28 12.73,7.45 13.19,5.4 18.01,5.35 30.96,5.25 19.53,-0.09 39.1,0.25 58.63,0.42l150.54 -0.05 18.77 -0.25c10.58,-0.25 21.23,-0.51 31.88,-0.09 22.68,0.92 46.68,0.72 70.17,0.55l130.02 -0.64c41.47,-0.48 83.22,-0.18 124.86,0.12l103.63 0.44c24.51,0.09 49.36,0.21 73.49,-0.53 9.8,-0.28 19.82,0.04 29.79,0.37 37.35,1.25 75.8,2.53 95.83,-33.91 4.49,-8.18 7.12,-16.65 7.89,-25.17 0.81,-8.83 -0.26,-18.03 -3.13,-27.32 -2.95,-9.63 -8.97,-18.79 -16.72,-26.21 -7.82,-7.49 -17.4,-13.17 -27.37,-15.88 -13.63,-3.69 -87.19,-2.97 -125.34,-2.6l-38.45 0.23c-50.16,0.26 -174.45,0.9 -184.24,-0.95l-8.64 -1.64 -0.81 -8.78c-1.08,-11.67 -0.78,-22.94 -0.46,-33.75 0.39,-13.93 0.76,-27.18 -2.19,-37.86 -0.62,-2.33 -1.59,-4.87 -2.7,-7.47 -1.2,-2.68 -2.54,-5.3 -3.9,-7.52 -9.68,-15.91 -23.1,-25.59 -37.39,-29.76 -8.53,-2.49 -17.54,-3.06 -26.24,-1.87 -8.72,1.2 -17.22,4.22 -24.78,8.81 -12.96,7.88 -23.44,20.57 -28.31,37.23 -0.95,3.28 -1.62,6 -2.07,9.02 -0.42,3.04 -0.65,6.32 -0.72,10.63l0.09 20.27c0.14,10.79 0.28,21.69 -0.26,31.95l-0.53 9.55 -9.41 1.4c-11.37,1.68 -161.4,1.04 -223.09,0.76l-48.5 -0.46c-34.37,-0.69 -88.53,-1.77 -99.34,1.94 -9.57,3.27 -17.78,6.78 -24.57,11.67 -6.41,4.59 -12.03,10.76 -16.99,19.48l-5.74 14.13c-0.78,3.71 -0.3,3.8 -2.24,7.86zm0 329.48l0 22.41c1.68,2.67 2.05,5.09 2.49,8.07l0.55 2.63 3.6 8.9c1.25,2.67 2.77,5.14 4.42,7.4 1.87,2.58 3.85,4.89 5.78,7.05 3.32,3.71 8.6,8.04 14.62,11.73 5.12,3.14 10.7,5.76 15.79,6.99 16.37,3.97 56.21,3.18 86.54,2.6l24.9 -0.41 814.59 0 18.49 0.37c21.49,0.53 43.98,1.09 59.38,-4.98l3.97 -1.68 7.72 -4.61c13.49,-8.74 22.01,-20.45 26.21,-33.04 4.08,-12.24 4.24,-25.48 1.08,-37.83 -3.16,-12.34 -9.66,-23.82 -18.81,-32.55 -9.31,-8.87 -21.49,-14.89 -35.76,-16.04 -25.4,-2.03 -54.66,-1.64 -82.63,-1.27l-32.16 0.34 -361.8 0 0 -68.37c0.05,-8.44 -0.87,-15.22 -2.67,-21.16 -1.82,-5.86 -4.66,-11.36 -8.44,-17.27 -2.4,-3.74 -5.49,-7.36 -8.83,-10.53 -3.64,-3.44 -7.51,-6.38 -11.27,-8.53 -13.23,-7.59 -27.64,-10.38 -41.26,-8.74 -13.67,1.64 -26.67,7.81 -36.91,18.03 -4.57,4.61 -7.89,8.78 -10.47,13.39 -2.72,4.91 -4.96,10.79 -7.28,18.6 -2.21,7.45 -1.7,26.88 -1.27,43.52 0.23,9.55 0.46,18.35 0.16,24.23 -0.9,17.13 -3.3,17.06 -18.54,16.88l-258.15 -0.11 -21.97 -0.28c-29.41,-0.53 -69.72,-1.25 -84.97,3 -7.54,2.1 -12.93,4.45 -17.4,7.31 -4.56,2.93 -8.55,6.64 -13.1,11.32 -9.57,9.84 -12.26,19.2 -13.93,25.1 -0.88,2.91 -1.59,5.35 -2.65,7.52zm1596.43 -308.85l0.02 -11.69 5.03 0c2.91,-2.47 6.13,-3.43 10.15,-3.43l251.49 -0.11c11.41,-0.23 16.95,-0.32 23.65,2.86 5.9,2.88 10.12,7.15 18.24,15.4 48.87,48.57 100.03,98.88 149.92,144.94 5.7,5.78 11.29,10.97 17.04,16.34l103.51 99.75c9.82,9.59 9.77,10.93 9.31,24.3l-0.37 72.83c-0.32,96.83 -0.87,253.56 0.41,257.05l5.67 15.59 -77.11 0.05c-1.91,-3.6 -4.98,-8.51 -6.34,-12.22 -4.82,-13.07 -9.25,-24.39 -14.41,-35.06 -5.03,-10.42 -10.88,-20.45 -18.63,-31.28l-25.4 -30.99c-22.68,-24.8 -51.29,-44.61 -82.65,-58.25 -31.93,-13.88 -66.76,-21.39 -101.09,-21.35l-12.91 0.42 -18.97 1.43c-2,0.05 -3.99,0.12 -5.49,0.42l-3.57 0.85c-2.42,0.69 -4.5,1.29 -9.41,1.73 -2.15,0.19 -3.13,0.49 -4.15,0.79 -1.57,0.48 -3.32,1.01 -6.62,1.54 -21.58,3.55 -45.92,13.83 -68.88,27.69 -24.34,14.71 -46.91,33.36 -62.94,52.26 -10.9,12.84 -20.61,25.82 -28.95,39.51 -8.23,13.51 -15.22,27.85 -20.82,43.62 -1.18,3.36 -2.45,5.92 -3.74,7.86l-23.05 131.64 1.06 -754.52zm-1596.43 -346.33l0 23.38c1.06,2.17 1.73,4.54 2.53,7.29 1.7,5.78 4.27,14.69 14.84,25.93 7.72,8.21 15.24,13.39 23.49,16.41 8.48,3.13 18.31,4.22 30.31,4.22l664.03 0 18.95 0.21c30.8,0.32 82.46,0.87 92.42,-1.41 13.4,-3.11 24.48,-8.67 32.96,-16.71 8.34,-7.89 14.45,-18.46 18.08,-31.61 3,-10.83 2.56,-23.45 -0.81,-35.2 -3.16,-11.18 -9.1,-21.42 -17.2,-28.27l-7.17 -5.99c-2.49,-1.8 -5.07,-3.41 -7.68,-4.84 -2.6,-1.43 -5.44,-2.74 -8.53,-3.96 -2.76,-1.08 -5.81,-1.94 -9.13,-2.54 -3.64,-0.6 -7.56,-0.97 -11.64,-1.02 -163.89,-0.23 -327.8,0.18 -491.69,0.18 -17.87,-0.51 -17.86,-1.18 -17.17,-17.45 0.37,-11.94 0.16,-24.05 0.09,-36.01 -0.25,-32.65 -0.65,-90.51 0.79,-98.53l1.73 -9.61c379.23,0.69 758.51,0.14 1137.74,0.14l0 1195.69 -127.9 -0.34c-79.12,-0.28 -159.05,-0.57 -236.14,0.3l-4.87 0.19c-6.94,0.37 -10.01,0.62 -14.8,-4.5 -2.6,-2.72 -3.43,-5.25 -4.95,-9.73 -0.95,-2.91 -2.4,-7.15 -4.93,-13.14 -7.31,-17.29 -15.81,-33.43 -25.84,-48.44 -9.93,-14.89 -21.46,-28.77 -34.93,-41.64 -12.84,-12.33 -28.5,-24.57 -45.26,-34.97 -15.29,-9.45 -31.45,-17.43 -47.23,-22.57 -23.33,-7.59 -30.82,-8.65 -46.94,-10.88l-15.88 -2.28c-18.21,-2.77 -38.94,-1.82 -59.45,1.54 -24.11,3.92 -47.91,11.11 -67.13,19.3 -6.71,2.86 -12.45,6.18 -18.4,9.63l-18.56 11 -10 6.96c-10.68,8.14 -21.79,17.84 -31.93,28.12 -9.15,9.29 -17.61,19.16 -24.35,28.91 -5.25,7.59 -10.53,15.36 -15.28,23.31 -4.56,7.65 -8.8,15.67 -12.22,24.09l-1.48 4.19c-3.32,9.75 -9.68,28.22 -17.64,30.48l-1.62 0.46 -252.5 0 0.3 -26.88c0.42,-17.41 0.92,-37.37 -2.79,-49.01 -3.73,-11.73 -9.38,-21.63 -16.81,-29.35 -7.13,-7.44 -16.12,-12.98 -26.81,-16.32 -5.51,-1.73 -12.31,-2.74 -19.02,-2.76 -6.18,-0.04 -12.22,0.71 -17.03,2.35 -49.1,17.06 -48.39,58.53 -47.61,105.86l0.26 19.76 -0.21 19.96c-0.28,31.72 -0.81,89.45 -0.32,107.8l1.57 -0.05c26.6,-0.23 161.56,-0.62 262.37,-0.49 65.1,0.05 117.14,0.76 120.04,2.4 5.37,3.16 10.15,19.02 12.15,25.54l0.6 1.87c4.66,14.59 13.1,31.65 23.15,47.84 10.14,16.37 21.9,31.82 33.06,42.95l21.85 20.38c14.32,12.22 32.65,24.2 52.1,33.87 18.21,9.06 37.26,16.07 54.7,19.32l23.59 4.47c1.66,0.3 4.33,0.35 6.99,0.37 5.78,0.07 11.76,0.16 16.99,2.15l18.99 0c5.67,-2.15 11.48,-2.17 17.1,-2.19l6.73 -0.28 45.41 -10.6c8.25,-2.63 13.53,-4.49 18.76,-6.66 4.98,-2.08 10.17,-4.66 18.46,-8.87 22.36,-11.27 42.7,-26.21 60.61,-43.71 18.72,-18.31 34.86,-39.54 47.9,-62.47 2.68,-4.7 4.8,-9.24 6.91,-13.74l2.05 -4.38c6.41,-13.49 7.51,-17.11 9.08,-22.38l3.97 -12.06 0 -5.05c1.96,-1.66 5.67,-5.07 8.09,-6.3 5.86,-3.09 236.83,-2.42 340.48,-2.12l69.42 -0.02c35.99,-0.26 95.67,-0.69 104.92,0.64l5.4 0.78 2.9 4.7c1.89,3.07 3.34,7.36 5.3,13.32 5.81,17.71 17.7,53.42 52.47,93.13 6.83,7.81 16.07,17.13 25.66,25.56 7.98,6.99 16.21,13.39 23.44,17.64 3.02,1.8 4.36,2.84 5.78,3.94l2.84 2.08c11.85,7.74 25.25,14.36 39.19,19.85 15.63,6.16 31.97,10.93 47.58,14.29 3.13,0.67 8.74,1.13 14.36,1.59 8,0.65 16.12,1.32 21.88,3.32l21.23 0c5.58,-2.6 11.36,-2.45 17.15,-2.3 2.63,0.05 5.35,0.12 6.85,-0.23 3.25,-0.79 7.47,-1.52 11.83,-2.23 5.9,-0.97 12.26,-2.03 16.27,-3.39l15.15 -4.91c19.41,-6.11 34.92,-11.06 56.09,-25.01l24.65 -16.8c19.97,-15.21 37.21,-33.87 51.52,-54.62 15.36,-22.25 27.5,-47.01 36.13,-72.55l1.13 -3.87c0.69,-2.67 1.32,-5.02 2.74,-8.07l3.14 -6.76 197.61 0 0 -550.13c-18.14,-15.97 -62.08,-59.06 -67.43,-64.29l-71.65 -68.91c-21.48,-19.66 -42.44,-40.18 -63.38,-60.66 -14.29,-14.01 -28.63,-28.06 -43.06,-41.73l-131.48 -126.35c-5.35,-0.19 -38.29,0.25 -58.69,0.53l-17.08 0.14c-9.61,-0.19 -21.63,-0.05 -33.8,0.07 -16.9,0.19 -34.26,0.39 -46.25,-0.26 -13.3,-0.74 -50.02,-0.26 -86.01,0.18 -44.91,0.57 -88.85,1.17 -93.87,-3.41l-1.48 -1.36 -2.35 -4.54c-0.51,-3.94 -0.51,-6.13 -0.58,-10.31 1.08,-12.2 0.65,-26.61 0.28,-39.83 -0.23,-8.11 -0.46,-15.86 -0.35,-22.64l-0.16 -88.87c-0.21,-26.39 -0.53,-67.57 0.34,-79.95 0.42,-6.18 0.78,-14.04 0.81,-21.35 0.04,-6.15 -0.11,-12.36 -0.49,-17.47 -1.09,-13.62 -0.72,-27.06 -0.32,-42.46l0.49 -25.84 -0.6 -32.05 0.53 -34.07 -0.62 -36.36 0.69 -30.92 -0.65 -37.58 0.35 -17.64c-11.59,-0.19 -30.34,0.07 -47.05,0.32l-30.94 0.3 -265.94 -0.35c-57.5,0.42 -262.05,0.19 -476.72,-0.04 -271.18,-0.28 -554.87,-4.26 -578.94,-2.84 -0.25,4.08 0.07,12.17 0.34,18.61l0.3 8.51 0 267.91 -36.08 -0.18c-35.89,-0.23 -94.7,-0.64 -103.49,0.44 -13.44,1.66 -25.27,6.8 -34.65,14.68 -9.45,7.93 -16.6,18.74 -20.65,31.74l-0.53 2.08c-0.49,2.14 -0.85,3.6 -1.8,5.3zm1620.26 2049.29c766.5,-208.52 1298.62,-906.56 1298.62,-1700.75 0,-794.17 -532.12,-1492.21 -1298.62,-1700.74 -5.83,-1.59 -9.75,-6.71 -9.75,-12.79l0 -96.69c0,-4.24 1.78,-7.88 5.12,-10.46 3.36,-2.6 7.33,-3.43 11.41,-2.37 829.9,213.61 1411.77,964.6 1411.77,1823.04 0,858.46 -581.87,1609.45 -1411.77,1823.05 -4.08,1.06 -8.05,0.23 -11.41,-2.37 -3.34,-2.58 -5.12,-6.22 -5.12,-10.46l0 -96.69c0,-6.08 3.92,-11.2 9.75,-12.79zm-917.81 -3510.97l0 96.69c0,6.08 -3.92,11.2 -9.77,12.79 -766.48,208.52 -1298.6,906.56 -1298.6,1700.74 0,794.19 532.12,1492.23 1298.6,1700.75 5.85,1.59 9.77,6.71 9.77,12.79l0 96.69c0,4.24 -1.8,7.88 -5.14,10.46 -3.34,2.6 -7.31,3.43 -11.41,2.37 -829.9,-213.61 -1411.77,-964.6 -1411.77,-1823.05 0,-858.44 581.87,-1609.43 1411.77,-1823.04 4.1,-1.06 8.07,-0.23 11.41,2.37 3.34,2.58 5.14,6.22 5.14,10.46z"/>
   <path class="fil1" d="M1533.52 2640.61c-5.74,-1.78 -10.38,-2.65 -15.93,-5.12 -3.16,-1.41 -4.52,-2.28 -7.88,-3.83l-6.98 -3.64c-22.39,-12.93 -38.98,-32.05 -49.5,-57.31 -17.84,-42.83 -8.94,-81.38 15.97,-116.63 17.98,-25.47 53.79,-44.58 85.23,-44.82 6.98,-0.05 14.06,-0.46 21.07,0.02 28.56,1.94 63.35,24.32 79.83,47.84 10.31,14.75 21.65,38.73 21.65,64.32 0,63.05 -33.36,101.85 -86.73,118.91l-38.15 3.89 -18.58 -3.62 0 0zm1045.56 3.62c-4.29,0 -6.87,-1.66 -12.82,-2.38 -22.11,-2.74 -49.72,-21.48 -63.3,-36.31 -9.48,-10.35 -16.44,-22.48 -21.74,-35.9 -4.89,-12.38 -9.94,-31.84 -8.18,-49.26 5.09,-50.46 27.46,-81.31 70.55,-102.17 3.2,-1.55 6.99,-2.98 10.08,-3.94l23.01 -5.05c4.66,-0.09 9.5,-0.09 14.08,-0.05 19.82,0.12 32.43,3.64 47.19,10.21 12.75,5.67 24.27,14.04 33.63,23.86 10.23,10.7 17.13,20.49 23.59,33.98 26.58,55.61 0.85,127.41 -53.21,153.93 -8.51,4.19 -21.26,9.82 -31.21,10.91 -4.73,0.51 -7.56,2.19 -11.82,2.19l-19.85 0 -0.02 -0.02z"/>
  </g>
 </g>
</svg>
