<?xml version="1.0" encoding="UTF-8"?>
<!DOCTYPE svg PUBLIC "-//W3C//DTD SVG 1.1//EN" "http://www.w3.org/Graphics/SVG/1.1/DTD/svg11.dtd">
<!-- Creator: CorelDRAW 2020 (64-Bit) -->
<svg xmlns="http://www.w3.org/2000/svg" xml:space="preserve" width="39.8017mm" height="8.8898mm" version="1.1" style="shape-rendering:geometricPrecision; text-rendering:geometricPrecision; image-rendering:optimizeQuality; fill-rule:evenodd; clip-rule:evenodd"
viewBox="0 0 3733.23 833.83"
 xmlns:xlink="http://www.w3.org/1999/xlink"
 xmlns:xodm="http://www.corel.com/coreldraw/odm/2003">
 <defs>
  <style type="text/css">
   <![CDATA[
    .fil0 {fill:#282466;fill-rule:nonzero}
    .fil1 {fill:#E79500;fill-rule:nonzero}
   ]]>
  </style>
 </defs>
 <g id="__xfffd__xfffd__xfffd__xfffd__x0020_1">
  <metadata id="CorelCorpID_0Corel-Layer"/>
  <g id="_2149828716688">
   <path class="fil0" d="M3733.23 809.95l-203.57 0 0 -601.24 -19.89 0c-21.85,0 -41.35,1.89 -58.5,5.65 -17.16,3.78 -32.76,12.44 -46.79,25.99 -17.17,16.59 -28.67,39.38 -34.52,68.39 -5.86,28.99 -8.78,58.96 -8.78,89.85l0 411.37 -200.07 0 0 -410.23c0,-69.31 5.06,-121.68 15.2,-157.11 15.6,-54.24 46.79,-101.71 93.6,-142.4 41.35,-35.4 88.92,-58.75 142.74,-70.06 35.1,-7.53 85.02,-11.31 149.75,-11.31l170.83 0 0 791.11zm-701.06 -395.56c0,112.28 -35.04,204.17 -105.1,275.77 -77.61,79.87 -186.11,119.79 -325.49,119.79l-76.85 0 0 -189.87 74.59 0c56.51,0 99.45,-5.26 128.84,-15.81 47.47,-17.33 76.86,-50.48 88.16,-99.46l-291.58 0 0 -183.08 291.58 0c-15.83,-49.74 -49.36,-82.89 -100.6,-99.46 -27.88,-9.04 -68.56,-13.55 -122.06,-13.55l-68.93 0 0 -189.87 94.94 0c126.57,0 227.89,38.81 304,116.41 72.34,73.85 108.49,166.9 108.49,279.15zm-741.3 -288.19c-67.85,-67.86 -148.28,-106.39 -241.09,-116.05l0 199.44c36.76,8.46 69.52,27.05 98.14,56.17 40.29,41.09 60.46,90.62 60.46,148.63 0,58.02 -20.18,107.57 -60.46,148.63 -28.62,29.13 -61.38,47.72 -98.14,56.18l0 199.42c92.81,-9.65 173.24,-48.18 241.09,-116.04 79.12,-79.12 118.68,-175.17 118.68,-288.19 0,-113.01 -39.56,-209.08 -118.68,-288.19zm-523.62 493c-36.77,-8.46 -69.54,-27.05 -98.14,-56.18 -40.32,-41.05 -60.46,-90.61 -60.46,-148.63 0,-58.01 20.14,-107.54 60.46,-148.63 28.6,-29.12 61.37,-47.71 98.14,-56.18l0 -199.43c-92.81,9.66 -173.24,48.19 -241.1,116.05 -79.11,79.11 -118.67,175.17 -118.67,288.19 0,113.01 39.56,209.07 118.67,288.19 67.86,67.86 148.29,106.39 241.1,116.04l0 -199.42zm-464.57 -338.17c0,29.4 -2.83,57.07 -8.48,83.07 -5.65,25.99 -14.89,49.56 -27.7,70.64 -29.37,49.74 -71.58,84.4 -126.57,103.96 -33.17,12.07 -71.2,18.1 -114.15,18.1l-46.34 0 0 -183.1 31.65 0c30.89,0 54.25,-9.42 70.07,-28.25 13.56,-15.82 20.34,-36.53 20.34,-62.16 0,-24.85 -8.1,-45.38 -24.3,-61.6 -16.21,-16.19 -36.36,-24.29 -60.46,-24.29 -34.66,0 -58.76,14.69 -72.33,44.08 -8.3,18.06 -12.43,41.44 -12.43,70.07l0 498.39 -196.65 0 0 -495c0,-58.01 8.66,-106.98 26,-146.93 24.86,-57.24 67.42,-100.95 127.69,-131.1 21.09,-9.78 42.56,-17.13 64.43,-22.03 21.85,-4.9 45.21,-7.35 70.07,-7.35 62.53,0 117.14,15.46 163.88,46.34 36.16,24.12 64.42,55.01 84.75,92.67 9.78,18.84 17.32,40.32 22.6,64.43 5.26,24.11 7.92,47.48 7.92,70.07zm-1302.68 522.18l0 -502.15c0,-51.38 11.84,-100.26 35.52,-146.61 23.68,-46.36 58.5,-83.69 104.47,-111.99 45.96,-28.3 99.65,-42.45 161.07,-42.45 52.58,0 101.75,10.94 147.51,32.82 45.76,21.88 82.78,56.09 111.09,102.66 28.3,46.57 42.44,104.56 42.44,174l0 493.73 -209.87 0 0 -519.62c0,-89.59 -190.34,-89.59 -190.34,0l0 519.62 -201.9 0z"/>
   <path class="fil1" d="M1972.09 439.41c4.38,4.43 69.2,102.36 105.75,147.31 -0.3,0.29 -0.59,0.57 -0.89,0.86 -44.64,-37.12 -141.67,-102.57 -146.16,-107.65 -5.94,58.55 -11.7,297.15 -17.45,353.89 -0.56,-0.01 -1.13,-0.04 -1.69,-0.06 -5.24,-56.9 -10.48,-295.64 -15.77,-353.15 -5.38,3.12 -102.06,68.34 -146.89,104.79 -0.28,-0.35 -0.57,-0.7 -0.86,-1.05 36.86,-44.26 102.92,-140.68 106.96,-145.52 -57.65,-5.94 -114.02,-11.74 -170.39,-17.55 -0.03,-0.65 -0.05,-1.3 -0.07,-1.95 56.23,-5.08 112.46,-10.17 169.88,-15.36 -4.09,-4.14 -68.61,-102.57 -105.32,-147.78 0.28,-0.27 0.55,-0.54 0.83,-0.81 44.67,37.22 142,103.2 146.47,107.72 5.95,-58.37 11.74,-297.78 17.54,-354.69 0.53,-0.02 1.08,-0.05 1.61,-0.07 5.22,57.08 10.46,296.67 15.82,355.27 4.34,-4.83 101.87,-69.19 146.61,-105.62 0.36,0.29 0.7,0.58 1.06,0.87 -36.84,44.3 -102.25,140.98 -107.68,145.63 58.63,5.99 115.57,11.81 172.5,17.62 0,0.56 0,1.13 0,1.69 -56.86,5.17 -113.72,10.33 -171.87,15.6z"/>
  </g>
 </g>
</svg>
