<svg width="81" height="80" viewBox="0 0 81 80" fill="none" xmlns="http://www.w3.org/2000/svg">
<g clip-path="url(#clip0_548_1977)">
<path fill-rule="evenodd" clip-rule="evenodd" d="M50.7889 75.8902C67.0769 71.4594 78.3847 56.6259 78.3847 39.7489C78.3847 22.873 67.0769 8.03952 50.7889 3.6087C50.6651 3.57504 50.5809 3.46565 50.5809 3.33703V1.2827C50.5809 1.19254 50.6194 1.11561 50.6903 1.06032C50.7612 1.00502 50.8454 0.988193 50.9331 1.00983C68.5686 5.54884 80.9331 21.5075 80.9331 39.7489C80.9331 57.9902 68.5686 73.9501 50.9331 78.4879C50.8466 78.5107 50.7612 78.4927 50.6903 78.4374C50.6194 78.3821 50.5809 78.3052 50.5809 78.215V76.1607C50.5809 76.0321 50.6638 75.9227 50.7889 75.889V75.8902ZM31.2853 1.2827V3.33703C31.2853 3.46565 31.2024 3.57504 31.0774 3.6087C14.7893 8.03952 3.48269 22.873 3.48269 39.7489C3.48269 56.6247 14.7905 71.4582 31.0774 75.8902C31.2012 75.9239 31.2853 76.0333 31.2853 76.1619V78.2162C31.2853 78.3064 31.2468 78.3833 31.1759 78.4386C31.105 78.4939 31.0209 78.5107 30.9331 78.4891C13.2976 73.9501 0.933105 57.9914 0.933105 39.7501C0.933105 21.5087 13.2976 5.55004 30.9331 1.01103C31.0197 0.988193 31.105 1.00622 31.1759 1.06152C31.2468 1.11681 31.2853 1.19375 31.2853 1.2839V1.2827Z" fill="#28295B"/>
</g>
<g clip-path="url(#clip1_548_1977)">
<path d="M41.8973 39.4699C41.7097 39.6999 41.4232 39.8472 41.1028 39.8472C40.7824 39.8472 40.4961 39.6999 40.3083 39.4699L33.5671 32.2938C33.1803 31.8824 33.1999 31.2352 33.6114 30.8484C34.0228 30.4616 34.67 30.4812 35.0568 30.8927L40.0776 36.2378V19.0252C40.0776 18.4589 40.5365 18 41.1028 18C41.6691 18 42.128 18.4588 42.128 19.0252V36.2383L47.1507 30.8933C47.5375 30.4818 48.1853 30.4622 48.5962 30.8489C49.0076 31.2357 49.0272 31.8835 48.6405 32.2944L41.8974 39.471L41.8973 39.4699V39.4699ZM21.8287 25.5987H35.66V27.6497H21.8287C21.3225 27.6497 20.8611 27.8577 20.526 28.1927C20.1911 28.5276 19.9831 28.989 19.9831 29.4953V50.8887C19.9831 51.3981 20.1897 51.8589 20.5223 52.1913L20.526 52.1951C20.8585 52.5275 21.3192 52.7343 21.8287 52.7343H60.3777C60.8838 52.7343 61.3452 52.5263 61.6804 52.1913C62.0153 51.8564 62.2233 51.395 62.2233 50.8887V29.4953C62.2233 28.9872 62.0159 28.5251 61.6822 28.1908C61.3473 27.8571 60.8859 27.6497 60.3777 27.6497H46.5277V25.5987H60.3777C61.447 25.5987 62.4204 26.0367 63.1257 26.7421L63.1294 26.7458C63.8348 27.4519 64.2728 28.4244 64.2728 29.4938V52.186C64.2728 53.2586 63.8348 54.2325 63.1294 54.9385C62.424 55.6439 61.4496 56.0825 60.377 56.0825H42.1279V59.498H50.4914C50.8428 59.498 51.1284 59.9581 51.1284 60.5256C51.1284 61.0932 50.8434 61.5533 50.4914 61.5533H31.7139C31.3625 61.5533 31.0769 61.0932 31.0769 60.5256C31.0769 59.9581 31.362 59.498 31.7139 59.498H40.0774V56.0825H21.8284C20.7609 56.0825 19.7876 55.6446 19.0803 54.9385L19.0766 54.9348C18.3706 54.2269 17.9326 53.2543 17.9326 52.1868V29.4946C17.9326 28.422 18.3706 27.4481 19.0766 26.7421C19.782 26.0367 20.7565 25.5987 21.8291 25.5987H21.8285H21.8287ZM41.7425 54.2055C41.7425 53.8526 41.4564 53.5665 41.1035 53.5665C40.7505 53.5665 40.4644 53.8526 40.4644 54.2055C40.4644 54.5584 40.7505 54.8445 41.1035 54.8445C41.4564 54.8445 41.7425 54.5584 41.7425 54.2055Z" fill="#282466"/>
<path fill-rule="evenodd" clip-rule="evenodd" d="M38.717 48.6904C38.7189 48.7308 38.6739 48.8591 38.6544 48.9021L38.535 49.2764C38.5072 49.3344 38.4736 49.4679 38.4459 49.5424C38.3903 49.691 38.4289 49.8736 38.494 50.0064C38.5173 50.0532 38.5768 50.1239 38.6211 50.1593C38.7039 50.2244 38.7013 50.227 38.7981 50.2705L39.1956 50.4342C39.24 50.4482 39.2854 50.4791 39.329 50.493L39.8643 50.711C40.0823 50.7736 40.2713 50.7541 40.4458 50.6049C40.4831 50.5733 40.5153 50.5512 40.54 50.5138C40.6202 50.3963 40.8281 49.9665 40.9078 49.8053L40.9609 49.7092C41.0077 49.627 40.9609 49.6208 41.1689 49.6301C41.2321 49.6327 41.2359 49.6889 41.2611 49.7363L41.4583 50.1218C41.4797 50.1686 41.5038 50.2123 41.524 50.2539C41.5461 50.3001 41.5671 50.3311 41.5898 50.3804C41.61 50.4241 41.6341 50.4676 41.6605 50.5093L41.7554 50.6067C41.8779 50.7122 42.0366 50.7565 42.2091 50.7426C42.3089 50.7343 42.4227 50.6775 42.5018 50.6452L43.0593 50.4126C43.1011 50.3943 43.1592 50.3791 43.1977 50.3589C43.3659 50.2678 43.5333 50.266 43.6775 50.0561C43.7331 49.9746 43.7615 49.8729 43.783 49.7687C43.7976 49.6973 43.7722 49.6434 43.7646 49.5841C43.7563 49.5177 43.6926 49.3604 43.6711 49.2877L43.6256 49.1417C43.5883 49.0456 43.5681 48.9444 43.5264 48.8439C43.4455 48.6517 43.4979 48.6923 43.5838 48.5893C43.6463 48.5142 43.6452 48.5565 43.709 48.5729L44.4554 48.8156C44.5894 48.8744 44.827 48.8466 44.9408 48.7738C45.0028 48.7341 45.059 48.6941 45.1038 48.6411C45.114 48.629 45.1405 48.5956 45.1493 48.5822C45.186 48.5266 45.2188 48.4507 45.2423 48.3895L45.3921 48.0362C45.4117 47.9895 45.4244 47.942 45.4451 47.8966C45.5008 47.7759 45.6367 47.4436 45.6708 47.3329C45.6835 47.2931 45.6835 47.1875 45.6798 47.1425C45.669 47.0269 45.6007 46.8688 45.5288 46.798C45.4403 46.7115 45.3366 46.6691 45.2241 46.6077C45.1844 46.5857 45.123 46.5622 45.092 46.5407L44.9674 46.4737C44.8335 46.4117 44.697 46.3347 44.5724 46.2721L44.5693 46.0634L45.2696 45.7051C45.3335 45.6723 45.4018 45.6456 45.4555 45.6027C45.6103 45.4795 45.7039 45.2728 45.6824 45.0616C45.6805 45.0433 45.6521 44.932 45.6433 44.9111C45.6042 44.8144 45.5662 44.7455 45.5289 44.6413L45.3577 44.2299C45.3337 44.1818 45.3229 44.1357 45.304 44.0915C45.2288 43.9158 45.1707 43.7331 45.0158 43.6124C44.983 43.5864 44.9975 43.5966 44.9557 43.5764C44.8875 43.5436 44.8255 43.5037 44.7414 43.4942C44.5853 43.4772 44.5675 43.5005 44.4791 43.5189L43.8976 43.7066C43.8635 43.7149 43.8585 43.7243 43.8275 43.7326C43.7934 43.7415 43.7857 43.7415 43.7548 43.7553C43.7238 43.7692 43.7093 43.7647 43.6803 43.7773C43.65 43.7907 43.6443 43.8 43.6121 43.7761C43.5774 43.7501 43.5514 43.7103 43.5117 43.6769C43.4642 43.6365 43.5003 43.5934 43.5136 43.534C43.5212 43.5005 43.5275 43.4955 43.5383 43.4663L43.6558 43.1035C43.666 43.0788 43.6679 43.0554 43.6792 43.0301L43.7272 42.8872C43.7557 42.7784 43.8013 42.6748 43.7796 42.551C43.7613 42.4461 43.7506 42.4188 43.707 42.3354C43.6874 42.2975 43.6976 42.3082 43.6735 42.2734C43.6211 42.1983 43.5547 42.1332 43.4669 42.0958C43.4341 42.0818 43.4467 42.0774 43.4037 42.0635L42.9259 41.8619C42.8816 41.8442 42.8273 41.8334 42.7837 41.8125L42.6522 41.7518C42.4075 41.6544 42.1641 41.5117 41.895 41.643C41.7982 41.6904 41.7742 41.715 41.699 41.7865C41.6832 41.8011 41.687 41.7928 41.6724 41.8119C41.6092 41.8947 41.5688 42.0059 41.5214 42.0894L41.206 42.7012C41.18 42.705 41.0872 42.7069 41.0581 42.7062C40.974 42.7031 40.9936 42.6929 40.9185 42.5483C40.9027 42.5186 40.8862 42.4795 40.8691 42.4504C40.8565 42.4283 40.8558 42.4226 40.8458 42.401L40.7699 42.2544C40.7339 42.183 40.6992 42.1217 40.6669 42.0535C40.6523 42.0231 40.6346 41.9877 40.6169 41.9567C40.5979 41.9232 40.5859 41.8897 40.5682 41.8581C40.5088 41.7506 40.3483 41.642 40.2277 41.6078C40.1569 41.5876 40.0172 41.5945 39.9433 41.6035C39.8889 41.6098 39.8288 41.6432 39.7789 41.6603C39.7511 41.6696 39.7523 41.6665 39.7252 41.6799C39.6639 41.7102 39.5836 41.7342 39.5186 41.7683L39.3082 41.8537C39.2418 41.8784 39.1646 41.9213 39.0939 41.9421L38.7804 42.0717C38.7304 42.0913 38.6325 42.1558 38.6008 42.1949C38.5857 42.2132 38.5862 42.2163 38.5667 42.2346C38.5029 42.296 38.4573 42.3882 38.4415 42.4849C38.4213 42.6062 38.4149 42.7473 38.4719 42.8616C38.489 42.8963 38.4933 42.9343 38.5092 42.9728L38.6167 43.3084C38.625 43.3425 38.6294 43.3337 38.6375 43.3577C38.6444 43.3791 38.6452 43.4001 38.6546 43.4241C38.7594 43.6814 38.719 43.6485 38.6034 43.7629C38.5883 43.7775 38.5807 43.7926 38.5516 43.7862C38.4935 43.7729 38.3879 43.7325 38.3304 43.7111C38.242 43.6788 37.723 43.5101 37.6516 43.4961C37.4714 43.4608 37.2761 43.5341 37.1827 43.6193C37.1403 43.6578 37.0695 43.7192 37.0418 43.7729L36.9482 43.9822C36.9135 44.0807 36.9154 44.0846 36.8629 44.1921C36.8117 44.2963 36.7775 44.4064 36.7283 44.5081C36.7189 44.5277 36.7194 44.5422 36.7093 44.5637C36.6556 44.6845 36.5438 44.9316 36.5298 45.0447C36.5215 45.1118 36.5254 45.2729 36.5512 45.3209C36.567 45.3507 36.5778 45.3898 36.5986 45.4214C36.6163 45.4486 36.641 45.4872 36.6587 45.5086C36.7428 45.6084 36.7939 45.6318 36.9154 45.6944C36.9989 45.7375 37.0741 45.7822 37.1594 45.8196C37.1929 45.8342 37.1854 45.8348 37.2112 45.8494L37.6075 46.044C37.6479 46.0648 37.6329 46.1111 37.6342 46.1659C37.6361 46.2962 37.6342 46.2867 37.4603 46.3619C37.3737 46.3998 37.2966 46.4541 37.2106 46.4884L36.9154 46.6432C36.7669 46.7033 36.7916 46.7114 36.7302 46.7532C36.6531 46.805 36.5804 46.9321 36.5476 47.0199C36.528 47.071 36.5236 47.2303 36.533 47.2879C36.5507 47.3979 36.5721 47.4263 36.6025 47.5155C36.6145 47.5502 36.6176 47.5388 36.6278 47.5642L36.6929 47.7279C36.7397 47.8498 36.887 48.1759 36.9116 48.2556L36.9957 48.4661C37.0481 48.5817 37.0892 48.6354 37.1891 48.722C37.3016 48.82 37.4949 48.8669 37.6454 48.8365C37.7713 48.8111 37.8724 48.7631 37.993 48.7334C38.0405 48.7214 38.0594 48.7101 38.1043 48.6968C38.1675 48.6791 38.2788 48.6468 38.3319 48.6217C38.3439 48.616 38.5543 48.5496 38.5569 48.5496C38.6018 48.5477 38.6177 48.5881 38.6428 48.6122C38.6662 48.6342 38.7067 48.6615 38.72 48.6912L38.7176 48.6904H38.717ZM39.2966 42.7305C39.4091 42.6977 39.5266 42.6344 39.6353 42.5966C39.7004 42.5739 39.9128 42.4657 39.9678 42.4701C39.9835 42.4985 39.9988 42.5396 40.0108 42.5693C40.0209 42.594 40.0468 42.6281 40.062 42.6571C40.0973 42.7248 40.1233 42.7778 40.1537 42.8385C40.2296 42.9927 40.2966 43.1494 40.3907 43.2885C40.409 43.3163 40.4362 43.3359 40.4564 43.3555C40.4779 43.3769 40.4621 43.3769 40.4905 43.3952C40.5285 43.4206 40.574 43.4489 40.6195 43.4653C40.6852 43.4893 40.7597 43.5191 40.8356 43.5242C40.9215 43.5292 41.0113 43.514 41.1016 43.514C41.3045 43.5147 41.4126 43.5451 41.5897 43.4641C41.6345 43.4438 41.6845 43.4154 41.7186 43.3863C41.735 43.373 41.7426 43.3667 41.7546 43.3559C41.7773 43.3357 41.8582 43.2207 41.8702 43.1972L41.96 43.0146C42.0004 42.9312 42.2177 42.4862 42.2381 42.4762C42.2955 42.4654 42.2924 42.4845 42.331 42.4995C42.3474 42.5058 42.3594 42.5064 42.3759 42.5141C42.4997 42.5691 42.6299 42.6152 42.7474 42.6734C42.9029 42.7499 42.9408 42.6911 42.882 42.8541L42.7967 43.1082C42.7916 43.1271 42.7904 43.141 42.7827 43.16L42.6499 43.5644C42.6044 43.7123 42.6537 43.9133 42.7163 44.0119C42.7777 44.108 42.8345 44.1452 42.911 44.2243C42.9218 44.235 42.935 44.2496 42.9426 44.2583C42.9597 44.2791 42.9503 44.2754 42.9736 44.2937C43.0021 44.3164 43.0204 44.3355 43.0457 44.3614L43.1077 44.4321C43.1456 44.4808 43.2038 44.5212 43.26 44.5534C43.4154 44.6425 43.5691 44.6647 43.7561 44.6058C43.7763 44.5995 43.7852 44.5925 43.8042 44.5875C43.8426 44.5761 43.8724 44.5635 43.9034 44.554C44.0469 44.5116 44.1694 44.4605 44.3123 44.4238C44.3718 44.4087 44.4546 44.3688 44.5189 44.3637C44.5707 44.4099 44.6612 44.6822 44.7035 44.7708C44.732 44.8302 44.8003 44.9869 44.8014 45.0319C44.78 45.0412 44.7743 45.0483 44.7553 45.059C44.7345 45.0711 44.7281 45.0684 44.7066 45.0774C44.6858 45.0863 44.6434 45.1165 44.6182 45.1285C44.5543 45.1582 44.4943 45.191 44.4362 45.2196C44.2832 45.2955 44.1227 45.3612 43.9874 45.4579C43.9306 45.4989 43.8953 45.5357 43.8535 45.5968L43.8074 45.6833C43.7643 45.7661 43.7587 45.8072 43.7512 45.9007C43.7456 45.9748 43.7556 46.084 43.7556 46.1662C43.7556 46.3772 43.7308 46.4766 43.813 46.6642C43.825 46.6927 43.8484 46.733 43.8642 46.7547C43.8725 46.7661 43.8838 46.7838 43.8913 46.7931L43.9647 46.8602C44.1 46.9696 44.2928 47.0378 44.4476 47.1231C44.507 47.156 44.567 47.1832 44.6277 47.2161C44.6827 47.2458 44.7667 47.2717 44.8041 47.3103C44.8035 47.3551 44.6581 47.6762 44.6316 47.7336C44.6239 47.75 44.6239 47.7603 44.6164 47.7785C44.6095 47.7962 44.6031 47.7981 44.5962 47.8158C44.5885 47.8347 44.5906 47.8474 44.5835 47.8638C44.5752 47.8846 44.5728 47.8771 44.5627 47.9018C44.5451 47.9455 44.5565 47.9498 44.5184 47.9762C44.4931 47.9693 44.5057 47.9686 44.4856 47.9629C44.4533 47.9536 44.4129 47.9528 44.3832 47.9402C44.3383 47.9206 44.3081 47.9182 44.265 47.8965C44.2094 47.8681 43.9723 47.8044 43.8877 47.772C43.6589 47.6842 43.4477 47.6614 43.2266 47.798C43.1507 47.8448 42.9689 48.0539 42.8911 48.1266C42.7993 48.2125 42.7154 48.2872 42.675 48.4047C42.6415 48.5008 42.625 48.595 42.6377 48.6986C42.6402 48.7188 42.6427 48.7517 42.6478 48.7687C42.6547 48.7921 42.6598 48.7908 42.6686 48.8301C42.6742 48.8573 42.6843 48.8705 42.6926 48.8939C42.7002 48.9173 42.7002 48.9357 42.709 48.959L42.9125 49.5765C42.9106 49.6119 42.8461 49.6233 42.8107 49.6404L42.4581 49.7826C42.4088 49.8022 42.2736 49.88 42.2281 49.8521C42.211 49.8325 42.2147 49.8193 42.2066 49.8003L42.1378 49.6688C42.1074 49.612 42.0797 49.5532 42.0456 49.4874C41.9849 49.3699 41.9287 49.2485 41.863 49.1309C41.7859 48.9925 41.7107 48.9356 41.5812 48.8667C41.4409 48.7923 41.2702 48.82 41.0931 48.82C40.9055 48.82 40.76 48.7953 40.602 48.8705C40.5388 48.9008 40.4965 48.9445 40.4441 48.9856C40.4289 48.9976 40.3897 49.0469 40.3827 49.057C40.3265 49.1378 40.0913 49.6138 40.0592 49.6846C40.0345 49.7383 39.982 49.8185 39.972 49.8641C39.905 49.8667 39.5783 49.7069 39.4929 49.6778C39.4519 49.6638 39.4121 49.6411 39.3735 49.6273C39.3325 49.6121 39.2838 49.6083 39.2976 49.5514C39.3197 49.4623 39.345 49.4162 39.3608 49.3637C39.3677 49.341 39.3685 49.3234 39.3779 49.2999C39.4278 49.1805 39.455 49.0459 39.5043 48.9239C39.5537 48.8007 39.5965 48.6438 39.5587 48.513C39.5177 48.3701 39.4842 48.2943 39.3848 48.1913C39.369 48.1749 39.3551 48.1723 39.338 48.1559L39.2128 48.0307C39.1344 47.9529 39.063 47.8424 38.96 47.7886C38.8975 47.7558 38.8032 47.7045 38.716 47.7008C38.601 47.6952 38.5151 47.7014 38.4196 47.7368C38.3001 47.7805 38.1643 47.8286 38.0416 47.8606C38.0125 47.8683 38.0069 47.8764 37.9828 47.8833C37.9537 47.8923 37.9487 47.8896 37.9208 47.9017C37.8942 47.9137 37.8885 47.9131 37.8576 47.92C37.7925 47.9346 37.7351 47.9781 37.6687 47.9711C37.6484 47.92 37.4076 47.3625 37.4013 47.3075L37.491 47.2575C37.5599 47.2145 37.6895 47.1507 37.7642 47.1173L38.0392 46.9789C38.055 46.9695 38.0689 46.9655 38.084 46.9568C38.1017 46.9474 38.1011 46.9441 38.1265 46.9328C38.2649 46.8708 38.3305 46.7749 38.3963 46.6484C38.4247 46.5941 38.4493 46.4999 38.4557 46.4367C38.4634 46.3576 38.4468 46.2572 38.4468 46.1713C38.4461 45.9963 38.4771 45.8211 38.3963 45.6719C38.3236 45.5386 38.2598 45.4716 38.1231 45.3988L37.4007 45.0285C37.4057 44.9755 37.5682 44.6096 37.5986 44.528C37.6087 44.5002 37.62 44.4737 37.6327 44.4446C37.6416 44.4244 37.6441 44.4295 37.6523 44.4049C37.6599 44.3815 37.6497 44.3878 37.665 44.3676C37.6978 44.3409 38.0246 44.47 38.0833 44.4857C38.2091 44.5198 38.3651 44.5787 38.4973 44.6185C38.5915 44.647 38.764 44.6388 38.8531 44.5958C38.982 44.5333 38.982 44.5453 39.0927 44.4289L39.2633 44.2526C39.2797 44.2368 39.2804 44.2393 39.2993 44.2222C39.317 44.2065 39.3151 44.2033 39.3297 44.1862C39.3734 44.1375 39.4346 44.1097 39.4896 44.0055C39.6578 43.6857 39.5111 43.4587 39.4189 43.1497C39.3956 43.0713 39.2943 42.7978 39.2963 42.7274L39.2968 42.7301L39.2966 42.7305ZM39.3042 46.2546C39.3144 46.316 39.32 46.3911 39.3263 46.4536C39.3396 46.5939 39.4318 46.8519 39.4906 46.9644L39.5721 47.111C39.6031 47.1684 39.7169 47.3145 39.7655 47.3683C39.8926 47.5086 40.0372 47.6243 40.1985 47.7255C40.2224 47.7407 40.2503 47.7482 40.2736 47.7609C40.5467 47.9138 40.8544 47.9662 41.1893 47.9599C41.5559 47.9523 41.9131 47.8051 42.1822 47.6016C42.3168 47.4998 42.3586 47.4543 42.4724 47.3305C42.4951 47.3065 42.5009 47.3065 42.5242 47.2717C42.576 47.1958 42.6374 47.1111 42.6777 47.0277C42.6854 47.0113 42.6898 47.0087 42.698 46.9949C42.77 46.8736 42.8092 46.7187 42.8509 46.5852L42.8856 46.4013C42.8894 46.3666 42.8906 46.3312 42.8933 46.2958C42.9034 46.1802 42.899 45.978 42.8731 45.8698C42.8661 45.842 42.8629 45.8028 42.8566 45.7743C42.8232 45.6227 42.7491 45.4165 42.6677 45.2852C42.6538 45.2625 42.6437 45.2422 42.626 45.2164L42.4851 45.0174C42.3055 44.8303 42.3118 44.8189 42.0661 44.6539C41.9252 44.5591 41.9074 44.5648 41.7697 44.4997C41.7343 44.4827 41.4758 44.4036 41.4252 44.3967C41.3101 44.3809 41.1193 44.3606 41.0049 44.3719C40.8595 44.3865 40.5865 44.4345 40.4467 44.4932C40.3229 44.5456 40.2552 44.5747 40.1466 44.643C39.9779 44.7498 39.914 44.818 39.7844 44.9451C39.7459 44.983 39.7136 45.0216 39.6782 45.0683C39.6327 45.1278 39.5393 45.2723 39.505 45.3445C39.4929 45.3698 39.4796 45.3925 39.4671 45.4179C39.438 45.4753 39.3647 45.6877 39.3526 45.7528C39.3463 45.7876 39.3349 45.8078 39.3306 45.8419C39.3154 45.9474 39.2875 46.1497 39.3046 46.2552L39.3043 46.2546H39.3042ZM42.0788 46.3064L42.0137 46.5465C42.0054 46.5648 42.0016 46.5616 41.991 46.5856C41.9278 46.7297 41.8374 46.8238 41.7199 46.9332C41.7016 46.9502 41.7122 46.9452 41.6876 46.9598C41.673 46.9687 41.6655 46.9725 41.651 46.9825C41.4519 47.1221 41.2079 47.1765 40.9558 47.1444C40.8312 47.1286 40.6891 47.0678 40.5974 47.0154C40.5481 46.987 40.4976 46.9484 40.4572 46.9124C40.4458 46.9023 40.4358 46.8953 40.4255 46.8852C40.4135 46.8725 40.4091 46.8631 40.3945 46.8498C40.3604 46.817 40.3768 46.8467 40.3332 46.786C40.2484 46.6691 40.2131 46.6141 40.1613 46.4631C40.1209 46.3443 40.0918 46.1579 40.1253 46.0188C40.1336 45.9853 40.1346 45.9487 40.1442 45.9189C40.1746 45.8285 40.2068 45.7444 40.2561 45.6622C40.2732 45.6338 40.2782 45.6219 40.3004 45.5896C40.32 45.5611 40.3352 45.5465 40.3579 45.5207C40.4735 45.3912 40.6323 45.2774 40.8053 45.2306C41.0797 45.1555 41.1567 45.1711 41.431 45.2369C41.4404 45.2394 41.4987 45.2653 41.5138 45.2722L41.6333 45.3374C41.7244 45.4005 41.7837 45.4428 41.862 45.544C41.9448 45.6507 41.9885 45.7242 42.0378 45.8625C42.0788 45.9787 42.0998 46.1734 42.0781 46.3068L42.0789 46.3062L42.0788 46.3064Z" fill="#E79500"/>
</g>
<defs>
<clipPath id="clip0_548_1977">
<rect width="80" height="77.4986" fill="white" transform="translate(0.933105 1)"/>
</clipPath>
<clipPath id="clip1_548_1977">
<rect width="46.34" height="43.5533" fill="white" transform="translate(17.9331 18)"/>
</clipPath>
</defs>
</svg>
