<svg width="18" height="17" viewBox="0 0 18 17" fill="none" xmlns="http://www.w3.org/2000/svg">
<path d="M9.5 17C14.1944 17 18 13.1944 18 8.5C18 3.80558 14.1944 0 9.5 0C4.80558 0 1 3.80558 1 8.5C1 13.1944 4.80558 17 9.5 17Z" fill="#282466"/>
<path fill-rule="evenodd" clip-rule="evenodd" d="M9.5 6.73421C10.325 6.73421 10.9997 7.40895 10.9997 8.23396V13.0149C10.9997 13.8399 10.325 14.5147 9.5 14.5147C8.67499 14.5147 8.00025 13.8399 8.00025 13.0149V8.23396C8.00025 7.40895 8.67499 6.73421 9.5 6.73421ZM9.5 2C10.3283 2 11 2.67147 11 3.5C11 4.32828 10.3285 5 9.5 5C8.67172 5 8 4.32853 8 3.5C8 2.67172 8.67147 2 9.5 2Z" fill="white"/>
</svg>
