<?xml version="1.0" encoding="UTF-8"?>
<!DOCTYPE svg PUBLIC "-//W3C//DTD SVG 1.1//EN" "http://www.w3.org/Graphics/SVG/1.1/DTD/svg11.dtd">
<!-- Creator: CorelDRAW 2020 (64-Bit) -->
<svg xmlns="http://www.w3.org/2000/svg" xml:space="preserve" width="28.4222mm" height="27.5931mm" version="1.1" style="shape-rendering:geometricPrecision; text-rendering:geometricPrecision; image-rendering:optimizeQuality; fill-rule:evenodd; clip-rule:evenodd"
viewBox="0 0 2859.61 2776.19"
 xmlns:xlink="http://www.w3.org/1999/xlink"
 xmlns:xodm="http://www.corel.com/coreldraw/odm/2003">
 <defs>
  <style type="text/css">
   <![CDATA[
    .fil1 {fill:#282466;fill-rule:nonzero}
    .fil0 {fill:#E79500;fill-rule:nonzero}
   ]]>
  </style>
 </defs>
 <g id="Слой_x0020_1">
  <metadata id="CorelCorpID_0Corel-Layer"/>
  <g id="_2426747361616">
   <path class="fil0" d="M1126.32 1241.39c-10.47,-9.73 -16.07,-22.9 -16.64,-36.3 -0.56,-13.4 3.89,-27.01 13.54,-37.67l1.1 -1.18c9.47,-9.86 21.96,-15.13 34.68,-15.7 13.21,-0.58 26.63,3.94 37.15,13.72 53.9,50.35 108.04,100.46 162.04,150.69l265.54 -294.88c8.88,-10.57 21.12,-16.69 33.86,-18.05 13.12,-1.42 26.77,2.25 37.8,11.31l0.11 0.09c10.97,9.06 17.33,21.83 18.72,35.18 1.37,13.27 -2.24,27.07 -11.16,38.26 -0.47,0.6 -0.99,1.19 -1.52,1.72l0.03 0.03 -0.63 0.61 -296.99 332.55 -1.19 1.54 0.03 0.04c-0.99,1.13 -2.03,2.43 -3.1,3.47 -9.49,9.87 -21.97,15.14 -34.69,15.7 -13.2,0.57 -26.62,-3.94 -37.13,-13.71 -67.05,-62.63 -134.39,-124.96 -201.56,-187.43l0 0z"/>
   <path class="fil1" d="M1590.91 544.68c44.98,12.03 62.86,48.86 81.16,86.57 11.69,24.07 23.61,48.65 42.42,59.66l-0.02 0.04c19.19,11.19 46,9.27 72.21,7.38 40.97,-2.93 80.88,-5.8 114.28,27.84 32.99,33.24 30.33,74.14 27.59,116.03 -1.75,26.83 -3.53,54.21 7.23,73.23l0.04 -0.02c11.1,19.49 35.27,31.41 58.9,43.08 36.95,18.24 72.96,36.02 85.3,82.05 12.16,45.43 -10.36,79.58 -33.44,114.57 -14.67,22.24 -29.63,44.91 -29.63,67.05 0,22.59 15.01,45.13 29.69,67.16 22.99,34.51 45.39,68.13 33.38,114.24 -11.89,45.62 -48.19,63.75 -85.37,82.32 -23.73,11.85 -47.96,23.95 -58.83,43.03l-0.04 -0.03c-11.03,19.47 -9.13,46.65 -7.27,73.25 2.89,41.55 5.71,82.03 -27.45,115.9 -23.61,24.11 -51.14,29.45 -80.13,29.51l160.84 319.76 -0.05 0.04c3.02,6.03 3.79,13.23 1.59,20.18 -4.42,13.99 -19.19,21.67 -32.97,17.19l-249.85 -82.21 -80.46 251.6c-1.79,7.22 -6.53,13.65 -13.57,17.29 -12.93,6.68 -28.76,1.45 -35.34,-11.67l-139.43 -277.22c-6.58,-13.11 -1.44,-29.16 11.51,-35.83 12.93,-6.68 28.74,-1.46 35.33,11.67l110.62 219.94 69.53 -217.4c4.42,-13.97 19.2,-21.68 32.97,-17.18l214.5 70.57 -143.93 -286.12c-0.56,-1.14 -1.03,-2.28 -1.43,-3.44 -17.4,-0.29 -33.74,1.3 -46.34,8.63l0.02 0.05c-19.21,11.25 -30.97,35.77 -42.48,59.73 -17.98,37.48 -35.51,74 -80.89,86.51 -44.78,12.35 -78.47,-10.51 -112.96,-33.92 -2.76,-1.87 -5.5,-3.73 -8.27,-5.57l-216.91 431.25c-6.58,13.11 -22.41,18.34 -35.33,11.67 -7.05,-3.63 -11.79,-10.06 -13.57,-17.29l-80.47 -251.6 -249.84 82.19c-13.79,4.49 -28.56,-3.21 -32.98,-17.19 -2.19,-6.94 -1.43,-14.15 1.6,-20.18l-0.06 -0.02 166.71 -331.44c-30.82,0.72 -60.28,-3.61 -85.89,-29.42 -32.99,-33.22 -30.33,-74.13 -27.6,-116.02 1.75,-26.83 3.53,-54.22 -7.23,-73.23l-0.04 0.02c-11.1,-19.49 -35.27,-31.41 -58.89,-43.07 -36.95,-18.26 -72.96,-36.02 -85.3,-82.06 -12.16,-45.42 10.36,-79.58 33.44,-114.57 14.66,-22.24 29.63,-44.93 29.63,-67.05 0,-22.58 -15.01,-45.13 -29.71,-67.17 -22.99,-34.5 -45.38,-68.12 -33.36,-114.23 11.88,-45.62 48.18,-63.75 85.37,-82.32 23.72,-11.84 47.95,-23.96 58.82,-43.02l0.04 0.02c11.03,-19.46 9.14,-46.65 7.28,-73.25 -2.89,-41.54 -5.71,-82.03 27.45,-115.9 32.76,-33.46 73.09,-30.77 114.4,-27.99 26.45,1.77 53.44,3.59 72.19,-7.33l-0.02 -0.05c19.22,-11.25 30.97,-35.77 42.48,-59.72 17.98,-37.49 35.52,-74.01 80.89,-86.52 44.79,-12.33 78.47,10.52 112.96,33.93 21.92,14.86 44.3,30.05 66.11,30.05 22.26,0 44.49,-15.23 66.21,-30.13 34.03,-23.31 67.18,-46.02 112.64,-33.85l0 0.02zm-168.26 1292.1c-3.54,-0.73 -7.07,-1.12 -10.59,-1.12 -22.27,0 -44.49,15.23 -66.22,30.12 -34.02,23.31 -67.17,46.03 -112.62,33.85 -44.99,-12.04 -62.86,-48.87 -81.16,-86.59 -11.69,-24.07 -23.61,-48.64 -42.43,-59.65l0.03 -0.05c-11.38,-6.62 -25.41,-8.65 -40.44,-8.8 -0.41,1.26 -0.93,2.53 -1.54,3.74l-149.72 297.65 214.5 -70.56c13.78,-4.5 28.55,3.2 32.97,17.17l69.53 217.41 187.69 -373.17 0 -0.01zm202.38 -1181.98c-12.98,-26.72 -25.64,-52.82 -47.47,-58.67 -22.4,-6 -45.84,10.06 -69.91,26.56 -28.35,19.42 -57.35,39.29 -95.6,39.29 -37.49,0 -66.68,-19.81 -95.28,-39.23 -24.36,-16.52 -48.14,-32.66 -70.02,-26.62 -22.36,6.16 -34.72,31.93 -47.42,58.37 -14.94,31.15 -30.24,63.01 -63.44,82.45l-0.11 0c-32.61,19.1 -67.49,16.75 -101.65,14.46 -29.35,-1.97 -58,-3.89 -73.91,12.37 -16.29,16.64 -14.3,45.27 -12.24,74.64 2.4,34.53 4.87,69.84 -14.32,103.53l0 0.11c-18.79,33 -50.22,48.7 -81,64.07 -26.35,13.16 -52.09,26.01 -57.84,48.15 -5.92,22.7 9.92,46.49 26.18,70.9 19.16,28.75 38.76,58.16 38.76,96.96 0,38.02 -19.55,67.63 -38.68,96.65 -16.29,24.69 -32.22,48.82 -26.26,71 6.08,22.67 31.48,35.22 57.56,48.09 30.71,15.16 62.12,30.68 81.28,64.34l0 0.11c18.82,33.08 16.52,68.45 14.26,103.09 -1.93,29.77 -3.83,58.84 12.19,74.99 16.4,16.52 44.63,14.49 73.59,12.41 34.05,-2.43 68.87,-4.93 102.08,14.52l0.11 0c32.54,19.06 48.01,50.94 63.17,82.17 12.98,26.72 25.65,52.82 47.47,58.67 22.4,5.99 45.84,-10.06 69.91,-26.56 28.35,-19.43 57.35,-39.3 95.6,-39.3 37.49,0 66.68,19.82 95.29,39.23 24.35,16.53 48.13,32.65 70.01,26.63 22.35,-6.16 34.71,-31.93 47.42,-58.4 14.94,-31.14 30.24,-62.99 63.44,-82.43l0.1 0c32.62,-19.11 67.49,-16.76 101.65,-14.47 29.36,1.97 58.01,3.89 73.92,-12.37 16.29,-16.63 14.29,-45.26 12.24,-74.63 -2.4,-34.54 -4.86,-69.85 14.32,-103.54l0 -0.11c18.78,-32.99 50.22,-48.69 81,-64.08 26.35,-13.14 52.08,-26 57.84,-48.13 5.92,-22.72 -9.92,-46.49 -26.19,-70.91 -19.15,-28.75 -38.74,-58.16 -38.74,-96.96 0,-38.01 19.54,-67.62 38.67,-96.64 16.3,-24.69 32.2,-48.82 26.26,-71.01 -6.08,-22.67 -31.48,-35.21 -57.56,-48.09 -30.71,-15.15 -62.12,-30.67 -81.28,-64.33l0 -0.11c-18.82,-33.08 -16.52,-68.46 -14.26,-103.11 1.94,-29.76 3.83,-58.83 -12.19,-74.97 -16.4,-16.52 -44.62,-14.5 -73.59,-12.42 -34.06,2.44 -68.86,4.93 -102.09,-14.51l-0.1 0c-32.53,-19.07 -48,-50.94 -63.17,-82.17l0 0zm-212.97 115.58c123,0 234.35,50.57 314.95,132.32 80.61,81.76 130.47,194.7 130.47,319.44 0,124.75 -49.86,237.69 -130.47,319.45 -80.6,81.76 -191.96,132.32 -314.95,132.32 -122.99,0 -234.34,-50.57 -314.94,-132.32 -80.61,-81.77 -130.47,-194.7 -130.47,-319.45 0,-124.74 49.86,-237.69 130.47,-319.44 80.6,-81.76 191.96,-132.32 314.94,-132.32l0 0zm277.77 170.04c-71.07,-72.09 -169.28,-116.69 -277.77,-116.69 -108.48,0 -206.69,44.6 -277.76,116.69 -71.07,72.09 -115.05,171.7 -115.05,281.72 0,110.03 43.98,209.63 115.05,281.72 71.07,72.09 169.29,116.69 277.76,116.69 108.49,0 206.7,-44.6 277.77,-116.69 71.08,-72.09 115.05,-171.7 115.05,-281.72 0,-110.02 -43.97,-209.63 -115.05,-281.72zm-593.08 -930.34l0 73.28c0,4.64 -3.03,8.55 -7.51,9.73 -587.31,154.04 -998.13,686.74 -998.13,1294.99 0,608.27 410.81,1140.97 998.13,1295 4.48,1.18 7.51,5.09 7.51,9.73l0 73.28c0,3.2 -1.34,5.96 -3.86,7.93 -2.52,1.97 -5.51,2.61 -8.62,1.84 -636.19,-157.9 -1084.26,-731.19 -1084.26,-1387.78 0,-656.59 448.07,-1229.88 1084.26,-1387.77 3.11,-0.76 6.11,-0.13 8.62,1.84 2.53,1.97 3.86,4.73 3.86,7.93zm697.09 2666.61c576.37,-162.5 974.67,-689.82 974.67,-1288.61 0,-598.79 -398.3,-1126.12 -974.67,-1288.61 -4.41,-1.24 -7.33,-5.11 -7.33,-9.68l0 -73.62c0,-3.23 1.37,-6.01 3.93,-7.98 2.56,-1.97 5.59,-2.58 8.72,-1.74 625.26,166.71 1060.45,734.73 1060.45,1381.63 0,646.91 -435.19,1214.92 -1060.45,1381.64 -3.13,0.84 -6.17,0.23 -8.72,-1.74 -2.57,-1.97 -3.93,-4.75 -3.93,-7.98l0 -73.63c0,-4.57 2.93,-8.44 7.33,-9.68z"/>
  </g>
 </g>
</svg>
