<?xml version="1.0" encoding="UTF-8"?>
<!DOCTYPE svg PUBLIC "-//W3C//DTD SVG 1.1//EN" "http://www.w3.org/Graphics/SVG/1.1/DTD/svg11.dtd">
<!-- Creator: CorelDRAW 2020 (64-Bit) -->
<svg xmlns="http://www.w3.org/2000/svg" xml:space="preserve" width="28.4222mm" height="27.5335mm" version="1.1" style="shape-rendering:geometricPrecision; text-rendering:geometricPrecision; image-rendering:optimizeQuality; fill-rule:evenodd; clip-rule:evenodd"
viewBox="0 0 596.44 577.79"
 xmlns:xlink="http://www.w3.org/1999/xlink"
 xmlns:xodm="http://www.corel.com/coreldraw/odm/2003">
 <defs>
  <style type="text/css">
   <![CDATA[
    .fil0 {fill:#28295B}
    .fil1 {fill:#E79500}
   ]]>
  </style>
 </defs>
 <g id="Слой_x0020_1">
  <metadata id="CorelCorpID_0Corel-Layer"/>
  <g id="_2422768124944">
   <path class="fil0" d="M371.7 558.35c121.43,-33.04 205.74,-143.63 205.74,-269.45 0,-125.82 -84.3,-236.41 -205.74,-269.45 -0.93,-0.25 -1.55,-1.06 -1.55,-2.03l0 -15.32c0,-0.67 0.28,-1.25 0.81,-1.66 0.53,-0.41 1.16,-0.54 1.81,-0.37 131.48,33.84 223.67,152.82 223.67,288.82 0,136 -92.19,254.99 -223.67,288.83 -0.65,0.17 -1.28,0.04 -1.81,-0.37 -0.53,-0.41 -0.81,-0.99 -0.81,-1.66l0 -15.32c0,-0.96 0.62,-1.77 1.55,-2.03zm-145.41 -556.24l0 15.32c0,0.96 -0.62,1.77 -1.55,2.03 -121.43,33.04 -205.74,143.63 -205.74,269.45 0,125.82 84.31,236.41 205.74,269.45 0.93,0.25 1.55,1.06 1.55,2.03l0 15.32c0,0.67 -0.28,1.25 -0.81,1.66 -0.53,0.41 -1.16,0.54 -1.81,0.37 -131.48,-33.84 -223.67,-152.82 -223.67,-288.83 0,-136 92.19,-254.98 223.67,-288.82 0.65,-0.17 1.28,-0.04 1.81,0.37 0.53,0.41 0.81,0.99 0.81,1.66zm-8.23 221.97c-6.22,0.06 -15.66,0.74 -21,-1.31 -5.7,-2.19 -10.26,-7.81 -10.26,-14.06l0 -24.65c0,-6.25 4.56,-11.87 10.26,-14.05 5.34,-2.05 14.77,-1.37 20.99,-1.31 0.51,-1.76 1.29,-3.48 1.99,-5.15 0.3,-0.72 2.12,-4.22 2.09,-4.8 -0.06,-1.07 -7.98,-8.32 -8.89,-9.23 -1.78,-1.78 -3.38,-3.1 -4.6,-5.38 -2.82,-5.28 -2.5,-12.6 1.34,-17.3 3.04,-3.71 6.25,-6.65 9.61,-10.01 3.83,-3.82 7.86,-8.87 12.86,-11.12 11.11,-5.01 17.47,3.19 24.41,10.13 5.34,5.34 2.5,4.5 9.35,1.71 1.6,-0.65 3.19,-1.39 4.86,-1.88 -0.06,-6.22 -0.74,-15.65 1.31,-20.99 2.19,-5.7 7.81,-10.26 14.06,-10.26l24.65 0c6.25,0 11.87,4.56 14.05,10.26 2.05,5.35 1.37,14.8 1.31,21.01 3.04,1.01 9.31,4.12 10.14,4.18 1.15,-0.63 5.86,-5.84 7.03,-7.04 1.83,-1.87 5.12,-5.36 7.38,-6.56 4.51,-2.41 10.02,-2.54 14.77,-0.21l4.77 3.38c2.69,2.5 5.18,5.19 7.77,7.79 7.61,7.61 17.33,15.64 10.24,27.47 -1.76,2.93 -6.67,7.21 -9.25,9.8 -0.72,0.72 -3.8,3.32 -3.97,4.06 0.38,2.29 3.09,6.8 4.13,10.15 6.22,-0.06 15.66,-0.74 21,1.31 5.7,2.19 10.26,7.8 10.26,14.05l0 24.65c0,6.25 -4.56,11.87 -10.26,14.06 -5.34,2.05 -14.8,1.37 -21.01,1.31 -1.01,3.04 -4.12,9.31 -4.18,10.14 0.63,1.15 5.84,5.86 7.04,7.03 1.87,1.83 5.36,5.12 6.56,7.38 2.82,5.28 2.5,12.6 -1.41,17.37l-17.39 17.74c-1.65,1.39 -3.02,2.43 -5.02,3.33 -4.57,2.06 -10.32,1.69 -14.61,-0.88 -3.63,-2.17 -12.11,-12.58 -13.86,-13.22 -2.29,0.38 -6.8,3.09 -10.15,4.13 0.06,6.22 0.74,15.65 -1.31,21 -2.19,5.7 -7.8,10.26 -14.05,10.26l-24.65 0c-6.25,0 -11.87,-4.56 -14.06,-10.26 -2.05,-5.34 -1.37,-14.8 -1.31,-21.01 -3.04,-1.01 -9.31,-4.12 -10.14,-4.18 -1.15,0.63 -5.86,5.84 -7.03,7.04 -1.83,1.87 -5.12,5.36 -7.38,6.56 -4.51,2.41 -10.02,2.54 -14.63,0.29 -1.05,-0.51 -1.75,-0.88 -2.74,-1.7l-17.74 -17.39c-15.36,-18.26 10.77,-29.71 10.77,-33.49 -0.38,-2.29 -3.09,-6.8 -4.13,-10.15zm-0.34 -87.91c0.04,0.15 0.08,0.3 0.11,0.46 0.62,3.03 3.75,5.81 6.06,7.65 1.45,1.15 2.32,2.77 3.67,3.97 0.42,0.37 0.86,0.69 1.29,1.05 1.24,1.03 3.91,3.77 4.85,5.06 2.05,2.8 1,4.79 -0.37,7.49l-4.59 10.47c-1.77,4.31 -1.59,7.87 -7.58,7.78 -4.41,-0.07 -8.82,-0.01 -13.24,-0.01 -3.66,0 -9.88,-0.4 -9.88,4.78l0 23.06c0,1.72 1.1,3.66 2.76,4.27l18.35 0.45c6.48,0 7.12,0.51 9.17,6.69l3.64 8.92c0.93,1.72 2.65,4.4 2.87,6.3 0.56,4.98 -11.29,13.39 -14.35,17.36 -0.84,1.08 -2.81,3.49 -2.72,4.95 0.13,2.05 6.44,7.61 7.9,9.07 2.59,2.59 8.59,9.61 11.59,10.97 0.99,0.45 1.22,0.68 2.24,0.33 2.71,-0.91 5.26,-3.51 6.99,-5.72 0.99,-1.27 1.31,-1.31 2.4,-2.26 2.78,-2.42 6.54,-7.96 10.07,-8.81 2.83,-0.68 8.47,3.01 11.11,4.23l4.88 1.86c1.08,0.41 2.21,0.64 3.31,1.01 1.45,0.48 2.56,1.11 3.36,2.47 1.62,2.76 0.96,15.18 0.85,18.87 -0.1,3.43 0.22,8.25 4.77,8.25 3.72,0 24.04,1.29 26.52,-1.41 1.82,-1.99 1.25,-10.53 1.25,-13.14 0,-4.07 -1.21,-10.87 2.12,-13.82 1.58,-1.4 7.66,-3.12 9.88,-3.89l0.92 -0.42c2.61,-1.43 8.1,-4.84 11.2,-3.8 1.83,0.61 4.12,3.26 5.66,4.61l5.82 5.79c5.87,6.49 7.39,8.74 14.1,2.03l10.93 -10.93c7.87,-7.87 2.24,-9.02 -4.2,-16.05 -2.4,-2.62 -8.94,-7.35 -8.77,-11.1 0.1,-2.29 3.5,-8.14 4.58,-10.54 1.31,-2.93 2.53,-9.55 5.36,-11.11 2.61,-1.44 9.4,-0.71 12.52,-0.71 4.01,-0 14.36,1.66 14.36,-4.72l0 -23.06c0,-1.96 -0.83,-2.93 -2.28,-4.08 -0.48,-0.38 -1.11,-0.35 -1.68,-0.44 -0.89,-0.15 -1.18,-0.26 -2.09,-0.27 -3.25,-0.04 -19.14,0.97 -21.49,-1.02 -1.51,-1.28 -3.08,-6.78 -3.93,-8.77l-2.02 -4.73c-3.29,-8.02 -6.08,-7.04 0.89,-14.32l11.18 -11.39c0.11,-0.13 0.21,-0.26 0.32,-0.39 2.81,-3.68 -0.37,-6.43 -2.95,-9.01l-10.93 -10.93c-1.46,-1.46 -3.45,-3.97 -5.72,-3.97 -3.58,0 -10.82,9.24 -13.55,11.71 -0.76,0.69 -1.57,1.24 -2.3,1.98 -0.86,0.88 -1.43,1.54 -2.5,2.23 -2.74,1.77 -3.93,0.92 -6.59,-0.29l-6 -2.81c-2.96,-1.56 -6.47,-2 -9.49,-3.58 -1,-0.53 -1.8,-0.92 -2.45,-1.91 -1.18,-1.82 -0.92,-3.51 -0.92,-5.5l0 -13.12c0,-3.05 0.2,-7.49 -3.48,-8.58 -2.17,-0.47 -23.59,-0.5 -25.45,0.01 -1.39,0.48 -3.06,1.9 -3.29,3.4 -0.78,5.06 0.77,19.74 -0.67,22.87 -1.44,3.13 -6.22,4.1 -9.22,5.1 -0.59,0.19 -1.17,0.31 -1.71,0.52l-8.89 4.27c-0.26,0.12 -0.59,0.28 -0.88,0.37 -0.1,0.03 -0.2,0.06 -0.38,0.09 -0.1,0.01 -0.19,0.03 -0.31,0.05 -4.74,0.46 -9.77,-6.88 -12.94,-9.81l-0.44 -0.42c-0.07,-0.07 -0.13,-0.13 -0.18,-0.18l-4.77 -4.73c-0.06,-0.06 -0.12,-0.12 -0.17,-0.17l-0.77 -0.67c-3.27,-2.16 -5.8,0.47 -8.05,2.72 -4.15,4.16 -11.66,10.22 -14.65,14.86 -0.34,0.53 -0.62,1.05 -0.84,1.65 -0.07,0.19 -0.14,0.37 -0.22,0.55zm222.29 189.29l0.8 0.03c4.22,0.15 8.6,-2.75 13.24,-2.75 0.76,0 1.49,-0.02 2.2,-0.31 0.32,-0.13 0.63,-0.18 0.98,-0.15 0.78,0.07 1.53,0.24 2.3,0.37 0.68,0.11 1.49,-0.02 2.41,0.08 3.45,0.66 6.91,2.36 9.97,4.06 3.21,1.78 5.79,5.27 7.16,8.63 1.87,4.58 2.45,9.07 1,13.86 -2.19,7.25 -5.81,10.78 -10.96,15.97 -1.33,1.34 -3.01,2.36 -4.54,3.45 -2.75,1.96 -5.53,3.87 -8.32,5.76 -4.32,2.94 -8.67,5.83 -12.99,8.75 -8.62,5.82 -17.52,11.22 -26.13,17.06 -9.11,6.18 -18.48,11.96 -27.69,17.99 -6.98,4.57 -13.96,9.12 -20.97,13.63 -7.02,4.52 -13.95,9.18 -21.27,13.21 -6.01,3.31 -11.75,7.1 -17.62,10.65 -3.42,2.07 -8.67,3.92 -12.54,5.07 -1.89,0.56 -3.82,0.95 -5.78,1.16 -1.19,0.12 -2.51,0.12 -3.66,0.42 -2.79,0.74 -5.15,-0.29 -7.83,-0.3 -6.02,-0.02 -12.11,-2.38 -17.71,-4.4 -3.33,-1.2 -6.5,-2.8 -9.69,-4.33 -4.87,-2.34 -9.7,-4.75 -14.52,-7.18 -7.83,-3.94 -15.6,-7.99 -23.44,-11.91 -12.13,-6.07 -23.9,-13.4 -37.01,-17.23 -1.89,-0.55 -5.65,0.43 -7.36,1.31 -8.7,4.47 -16.57,10.39 -25.02,15.3 -1.17,0.68 -3.12,1.37 -4.45,1.76 -0.29,0.08 -0.55,0.1 -0.84,0.07 -0.42,-0.05 -0.84,-0.1 -1.26,-0.16 -3.14,-0.43 -4.91,-4.66 -4.14,-7.46 0.13,-0.49 0.38,-1.05 0.62,-1.51 0.17,-0.34 0.39,-0.59 0.71,-0.8l17.84 -11.84c5.03,-3.2 10.04,-6.12 15.71,-8.08 3.79,-1.31 10.85,-1.04 14.65,0.25 8.19,2.78 15.62,7.16 23.34,10.98 15.67,7.75 31.17,15.82 46.77,23.61l10.68 5.11c4.02,1.92 11.28,3.85 15.75,4.57l0.08 0.01 0.08 0c2.26,0.12 7.18,0.39 9.34,-0.27l5.59 -1.42c6.31,-1.92 13.08,-6.35 18.75,-9.76 5.73,-3.46 11.35,-7.08 17.01,-10.64 13.08,-8.21 26.07,-16.57 38.97,-25.05 17.9,-11.77 36.1,-23.09 53.79,-35.16 8.35,-5.69 19.29,-11.22 23.87,-20.67 2.31,-4.75 -1.01,-11.14 -6.21,-12.03 -3.15,-0.54 -4.76,-0.48 -7.91,-0.07 -6.21,0.82 -16.2,5.07 -21.37,8.64 -13.09,9.03 -26.72,17.23 -39.9,26.12 -6.06,4.09 -12.06,8.25 -18.29,12.08 -3.39,2.08 -6.6,4.45 -9.89,6.69 -3.44,2.34 -7.53,5.16 -11.46,6.51 -8.43,2.88 -14.99,3.23 -23.77,3.23l-40.65 0.01c-1.35,0 -2.58,-0.43 -3.86,-0.47 -1.32,-0.04 -2.48,0.18 -3.81,-0.24l-0.18 -0.06 -6.32 -0.62 -14.13 -2.32c-5.21,-0.86 -10.37,-2.11 -15.48,-3.47 -3.59,-0.96 -8.04,-1.63 -8.69,-6.18 -0.5,-3.52 1.33,-5.31 4.26,-6.73 0.16,-0.08 0.31,-0.13 0.48,-0.17 1.3,-0.27 3.35,0.15 4.65,0.5 3.49,0.94 7.04,1.62 10.56,2.4 3.49,0.77 7.1,1.87 10.66,2.17 0.17,0.01 0.34,0.01 0.51,0.02 0.16,0.01 0.31,0.03 0.46,0.08 6.15,1.24 12.4,2.09 18.65,2.66 6.02,0.55 12.13,0.14 18.17,0.12 5.93,-0.03 11.86,-0.1 17.79,-0.1 10.66,0 20.1,1.45 29.79,-4.22 5.69,-3.33 5.61,-14.38 0.68,-18.32l-0.09 -0.07 -5.18 -3.05 -0.06 -0.03c-2.63,-1.28 -5.62,-1.24 -8.41,-1.92 -4.21,-1.03 -9.47,0.05 -13.86,-0.17 -1.34,-0.07 -2.69,-0.47 -4,-0.48 -1.22,-0.01 -2.79,0.28 -3.99,-0.05 -0.99,-0.29 -1.45,-0.42 -2.49,-0.42 -1.37,0 -2.38,-0.25 -3.7,-0.43 -0.55,-0.07 -1.24,0.04 -1.81,0.02 -0.31,-0.01 -0.57,-0.07 -0.84,-0.21 -0.49,-0.23 -1.1,-0.28 -1.7,-0.31 -6.18,-0.52 -12.24,-2.21 -18.24,-3.68 -2.8,-0.68 -5.46,-1.79 -8.16,-2.77 -2.7,-0.97 -5.42,-1.89 -8.06,-3.02 -6.47,-2.76 -12.01,-10.69 -17.29,-15.37l-4.74 -4.2c-4.55,-3.87 -13.34,-6.91 -19.21,-7.88 -6.86,-1.13 -15.69,-2.05 -22.62,-1.31l-9.28 0.88c-4.66,0.87 -9.17,2.37 -13.59,4.07 -10.05,3.86 -20.1,7.77 -29.83,12.38 -5.47,2.6 -11.01,5.04 -16.52,7.54 -3.59,1.63 -7.19,3.25 -10.79,4.86 -1.87,0.83 -3.68,1.77 -5.62,2.44 -4.66,1.63 -8.45,-4.81 -6.45,-8.93 0.47,-0.97 1.4,-2 2.34,-2.52 4.78,-2.66 9.85,-4.71 14.83,-6.93 5.23,-2.32 10.52,-4.5 15.67,-6.99 2.32,-1.12 4.77,-1.95 7.09,-3.08 6.81,-3.32 14,-5.74 20.98,-8.66 6.37,-2.66 13.03,-4.3 19.67,-6.11 1.02,-0.28 2.09,-0.19 3.11,-0.48 3.68,-0.9 18.44,-1.08 22.37,-0.55 0.24,0.03 0.45,0.1 0.67,0.21 0.54,0.27 1.2,0.3 1.79,0.33 1.36,0.05 2.66,0.31 4.08,0.44l3.83 0.51c5.47,1.06 12.73,3.28 17.66,5.85 0.08,0.04 0.14,0.08 0.22,0.13l14.16 9.72c0.11,0.08 0.2,0.15 0.29,0.24 2.85,2.84 5.79,5.58 8.38,8.65 2.98,3.54 4.95,3.78 8.96,5.6 5.31,2.41 11.47,3.75 17.13,4.86 2.83,0.48 1.94,0.67 4.35,-0.84 11.93,-7.46 24.06,-14.62 35.9,-22.38l2.26 -1.37c8.28,-5.52 15.71,-9.24 25.66,-11.45 0.7,-0.09 1.48,0.04 2.09,-0.12l0.08 -0.03c3.23,-1.02 12.05,-0.12 15.29,1.01 0.12,0.04 0.22,0.09 0.34,0.15l13.51 7.57c2.5,1.57 2.63,1.14 5.33,0.22 1.88,-0.64 3.89,-0.63 5.69,-1.26 2.59,-0.91 11.92,0.32 14.7,1.14 0.14,0.04 0.26,0.09 0.39,0.16l11.47 6.08c0.19,0.1 0.34,0.21 0.49,0.36 0.97,0.95 1.67,2.05 2.57,3.05l0.53 0.59zm-116.15 16.86c1.27,-2.85 7.8,-5.97 10.56,-7.72 4.5,-2.87 8.96,-5.78 13.52,-8.55 4.22,-2.56 9.75,-6.09 14.44,-7.47 6.86,-2.02 11.62,-3.07 18.82,-1.71 2.29,0.43 5.33,1.44 7.24,2.77l4.93 3.43 -5.08 3.21c-4.75,3 -9.55,5.91 -14.34,8.84 -5.33,3.27 -10.97,6.33 -16,10.04 -1.9,1.4 -6.31,4.35 -8.54,4.58 -2.26,0.24 -5.67,-0.82 -7.93,-1.38 -1.76,-0.43 -5.04,-0.42 -6.89,-0.44 -2.34,-0.04 -4.69,0.07 -7.03,-0.01l-9.55 -0.32 5.87 -5.28 -0.01 0zm42.06 7.51c2.19,-1.08 4.28,-2.5 6.35,-3.8 3.57,-2.22 7.12,-4.48 10.67,-6.73 5.31,-3.36 10.57,-6.82 16.05,-9.93 3.69,-2.09 8.15,-4.64 12.41,-5.1 5.93,-0.63 10.92,0.24 16.09,3.29l3.07 1.81 -1.46 3.25c-1.42,3.15 -8.25,6.41 -11.21,8.45 -14.82,10.25 -30.29,19.53 -45.16,29.7l-1.92 1.31 -2.08 -1.02c-1.09,-0.54 -1.93,-1.36 -2.48,-2.43 -0.77,-1.48 -0.59,-2.6 -1.08,-3.85 -0.63,-1.6 -1.44,-3.12 -2.32,-4.59 -0.64,-1.06 -1.41,-2.05 -1.89,-3.2l-1.23 -2.99 5.95 -4.06 0.25 -0.12 0.01 0z"/>
   <path class="fil1" d="M298.52 170.11l-0.3 -9.09c-17.01,-0.94 -32.44,13.12 -36.45,28.86 -4.44,17.45 5.01,36.27 21.34,43.47 17.01,7.5 36.3,2.08 46.84,-13.09 5.36,-7.71 7.44,-16.69 6.42,-26.02 -0.44,-4.03 -1.99,-8.82 -3.8,-12.46 -1.62,-3.27 -6.15,-8.22 -6.86,-10.11l11.52 -7.8c38.28,45.49 -12.04,105.7 -61.09,81.71 -45.79,-22.4 -34.97,-88.11 12.1,-97.54 3.24,-0.65 7.17,-0.63 9.98,-1.43 0.55,-11.66 -2.11,-11.92 12.78,-1.61 3.5,2.42 9.04,5.74 11.94,8.4 -1.02,3.04 -8.54,6.9 -11.47,8.94 -2.82,1.96 -9.88,8 -12.94,7.76l0 -0z"/>
  </g>
 </g>
</svg>
