<svg width="16" height="16" viewBox="0 0 16 16" fill="none" xmlns="http://www.w3.org/2000/svg">
<g clip-path="url(#clip0_107_1334)">
<path fill-rule="evenodd" clip-rule="evenodd" d="M6.15973 6.35537C6.15973 7.09835 6.56907 7.69329 7.20762 8.01535C8.31941 8.57609 9.83189 7.78065 9.83189 6.35537C9.83189 5.36357 8.99698 4.53249 8.04862 4.53249C7.27107 4.53249 6.63966 4.92649 6.32257 5.60677C6.23318 5.79854 6.15973 6.08038 6.15973 6.35537ZM7.8682 2.63037H8.1156C8.4012 2.63924 8.68868 2.67871 8.97337 2.74923C9.68492 2.92551 10.2629 3.29245 10.7665 3.79606C10.9398 3.96934 11.0575 4.11406 11.1979 4.31576C11.3166 4.48626 11.4518 4.73554 11.5363 4.92845C12.1043 6.22382 11.8659 7.46453 11.3774 8.69344L10.9989 9.50377C10.882 9.73411 10.5875 10.2294 10.4449 10.4424C10.1117 10.9399 9.94082 11.1653 9.59997 11.6184L9.14116 12.1767L8.08275 13.2979C8.04599 13.3264 8.02795 13.3479 7.99585 13.3695L7.26739 12.6582C7.21627 12.5941 7.18086 12.5658 7.12718 12.5078L6.46367 11.7315L5.73446 10.7567C5.69394 10.6958 5.65733 10.641 5.61824 10.5824L5.39428 10.2384C5.32106 10.1165 5.24949 10.0006 5.1783 9.87319C5.01359 9.5785 4.93721 9.41484 4.78603 9.11631C4.59794 8.74486 4.44157 8.26824 4.32527 7.87304C4.25122 7.62142 4.16657 7.16638 4.15161 6.89747C4.12666 6.44747 4.12876 6.46408 4.15207 6.07805C4.17342 5.72427 4.32512 5.24268 4.44811 4.94754L4.5393 4.7481C4.65026 4.54226 4.84362 4.22126 4.98765 4.06038C5.03682 4.0055 5.0726 3.95934 5.12027 3.90236C5.24506 3.75306 5.41082 3.60977 5.56238 3.48596C6.22446 2.94521 7.03253 2.65616 7.86835 2.63037H7.8682Z" fill="#E79500"/>
<path d="M8.00003 15.7123C12.2595 15.7123 15.7124 12.2594 15.7124 7.99997C15.7124 3.74055 12.2595 0.287598 8.00003 0.287598C3.74061 0.287598 0.287659 3.74055 0.287659 7.99997C0.287659 12.2594 3.74061 15.7123 8.00003 15.7123Z" stroke="#E79500" stroke-width="0.527692" stroke-miterlimit="22.9256"/>
</g>
<defs>
<clipPath id="clip0_107_1334">
<rect width="16" height="16" fill="white"/>
</clipPath>
</defs>
</svg>
