<?xml version="1.0" encoding="UTF-8"?>
<!DOCTYPE svg PUBLIC "-//W3C//DTD SVG 1.1//EN" "http://www.w3.org/Graphics/SVG/1.1/DTD/svg11.dtd">
<!-- Creator: CorelDRAW 2020 (64-Bit) -->
<svg xmlns="http://www.w3.org/2000/svg" xml:space="preserve" width="28.4222mm" height="27.5335mm" version="1.1" style="shape-rendering:geometricPrecision; text-rendering:geometricPrecision; image-rendering:optimizeQuality; fill-rule:evenodd; clip-rule:evenodd"
viewBox="0 0 733.76 710.81"
 xmlns:xlink="http://www.w3.org/1999/xlink"
 xmlns:xodm="http://www.corel.com/coreldraw/odm/2003">
 <defs>
  <style type="text/css">
   <![CDATA[
    .fil0 {fill:#28295B}
    .fil1 {fill:#E79500}
   ]]>
  </style>
 </defs>
 <g id="Слой_x0020_1">
  <metadata id="CorelCorpID_0Corel-Layer"/>
  <g id="_2422768169968">
   <path class="fil0" d="M366.32 196.13l-37.06 0 0 24.97 -37.05 0 0 24.97 37.05 0 0 24.97 -37.05 0 0 24.97 37.05 0 0 24.97 -37.05 0 0 24.97 37.05 0 0 24.85 -37.05 0 0 86.66c0,6.21 5.08,11.3 11.29,11.3l51.52 0c6.21,0 11.3,-5.09 11.3,-11.3l0 -86.53 0 -0.12 0 -24.85 -37.06 0 0 -24.97 37.06 0 0 -24.97 -37.06 0 0 -24.97 37.06 0 0 -24.97 -37.06 0 0 -24.97 37.06 0 0 -24.97zm73.21 -14.8l65.53 65.53 -65.53 0 0 -65.53zm-209.57 -29.86c-16.79,0 -30.55,13.76 -30.55,30.55l0 325.37c0,16.79 13.76,30.55 30.55,30.55l273.85 0c16.79,0 30.55,-13.76 30.55,-30.55l0 -225.73c0,-17.97 -7.51,-41.64 -20.44,-54.48l-56.21 -55.86c-10.74,-10.67 -25.43,-19.85 -41,-19.85l-186.75 0zm286.4 119.79l-101.23 0 0 -101.1 -184.38 0c-7.33,0 -13.34,6.01 -13.34,13.34l0 322.4c0,7.33 6,13.34 13.34,13.34l272.26 0c7.33,0 13.34,-6 13.34,-13.34l0 -234.64zm-237.96 -268.68l0 18.85c0,1.18 -0.76,2.18 -1.9,2.49 -149.39,40.64 -253.1,176.69 -253.1,331.48 0,154.79 103.71,290.84 253.1,331.48 1.14,0.31 1.9,1.31 1.9,2.49l0 18.85c0,0.83 -0.35,1.54 -1,2.04 -0.65,0.51 -1.43,0.67 -2.23,0.46 -161.75,-41.63 -275.16,-188 -275.16,-355.32 0,-167.32 113.41,-313.69 275.16,-355.32 0.8,-0.21 1.57,-0.05 2.23,0.46 0.65,0.5 1,1.21 1,2.04zm178.89 684.3c149.39,-40.64 253.11,-176.69 253.11,-331.48 0,-154.79 -103.71,-290.84 -253.11,-331.48 -1.14,-0.31 -1.9,-1.31 -1.9,-2.49l0 -18.85c0,-0.83 0.35,-1.54 1,-2.04 0.65,-0.51 1.43,-0.67 2.23,-0.46 161.75,41.63 275.16,188 275.16,355.32 0,167.32 -113.41,313.69 -275.16,355.32 -0.8,0.21 -1.57,0.05 -2.23,-0.46 -0.65,-0.5 -1,-1.21 -1,-2.04l0 -18.85c0,-1.18 0.76,-2.18 1.9,-2.49z"/>
   <polygon class="fil1" points="353.44,418.25 305.08,418.25 305.08,443.22 353.44,443.22 "/>
  </g>
 </g>
</svg>
