<?xml version="1.0" encoding="UTF-8"?>
<!DOCTYPE svg PUBLIC "-//W3C//DTD SVG 1.1//EN" "http://www.w3.org/Graphics/SVG/1.1/DTD/svg11.dtd">
<!-- Creator: CorelDRAW 2020 (64-Bit) -->
<svg xmlns="http://www.w3.org/2000/svg" xml:space="preserve" width="21.3166mm" height="20.6503mm" version="1.1" style="shape-rendering:geometricPrecision; text-rendering:geometricPrecision; image-rendering:optimizeQuality; fill-rule:evenodd; clip-rule:evenodd"
viewBox="0 0 363.83 352.46"
 xmlns:xlink="http://www.w3.org/1999/xlink"
 xmlns:xodm="http://www.corel.com/coreldraw/odm/2003">
 <defs>
  <style type="text/css">
   <![CDATA[
    .fil0 {fill:#28295B}
    .fil1 {fill:#E79500}
   ]]>
  </style>
 </defs>
 <g id="Слой_x0020_1">
  <metadata id="CorelCorpID_0Corel-Layer"/>
  <g id="_2426649217200">
   <path class="fil0" d="M182.66 226.92c-0.94,-1.78 -2.95,-3.02 -4.26,-4.59 -3.22,-3.85 -7,-7.57 -10.35,-11.88 -3.42,-4.4 -6.29,-7.81 -9.8,-12.65 -1.29,-1.78 -2.42,-3.41 -3.63,-5.22l-6.92 -11c-7.75,-12.92 -15.69,-32.13 -15.69,-47.1 0,-10.6 0.91,-14.03 4.82,-23.59 0.53,-1.29 2.57,-4.6 3.35,-5.92l3.94 -5.32c2.21,-2.75 6.9,-6.85 9.75,-8.78 2.7,-1.83 4.81,-3.09 7.85,-4.5 14.54,-6.74 32.47,-6.12 46.34,2.11 2.61,1.55 4.98,3.06 7.28,5.07l6.25 6.1c0.94,1.16 1.83,2.24 2.68,3.49 5.52,8.1 9.43,17.6 9.43,27.63 0,8.26 -0.37,11.3 -2.31,19.11 -3.66,14.79 -11.94,29.62 -20.42,42.36 -0.67,1 -1.19,1.68 -1.85,2.68 -0.66,0.99 -1.16,1.71 -1.86,2.67 -1.28,1.78 -2.46,3.35 -3.77,5.09l-15.34 18.42c-1.11,1.26 -4.48,5.12 -5.51,5.82l-0 -0.01zm-1.78 -154.39l3.86 0c4.45,0.14 8.93,0.75 13.37,1.85 11.09,2.75 20.1,8.47 27.95,16.31 2.7,2.7 4.53,4.96 6.72,8.1 1.85,2.66 3.95,6.54 5.27,9.55 8.85,20.19 5.14,39.52 -2.47,58.67l-5.9 12.63c-1.82,3.59 -6.41,11.31 -8.63,14.63 -5.19,7.75 -7.85,11.27 -13.17,18.33l-7.15 8.7 -16.49 17.47c-0.57,0.45 -0.86,0.78 -1.35,1.12l-11.35 -11.09c-0.8,-1 -1.35,-1.44 -2.18,-2.34l-10.34 -12.1 -11.37 -15.19c-0.63,-0.95 -1.2,-1.8 -1.81,-2.72l-3.49 -5.36c-1.14,-1.9 -2.26,-3.7 -3.37,-5.69 -2.57,-4.59 -3.76,-7.14 -6.11,-11.8 -2.93,-5.79 -5.37,-13.22 -7.18,-19.38 -1.16,-3.92 -2.47,-11.01 -2.71,-15.2 -0.39,-7.01 -0.36,-6.75 0.01,-12.77 0.33,-5.51 2.7,-13.02 4.61,-17.62l1.42 -3.11c1.73,-3.21 4.74,-8.21 6.99,-10.72 0.76,-0.86 1.32,-1.57 2.07,-2.46 1.95,-2.32 4.53,-4.56 6.89,-6.49 10.32,-8.43 22.91,-12.93 35.94,-13.33l0 -0.01zm-98.88 165.82c0,3.09 0.08,4.55 1.93,7.63 1.22,2.02 2.89,3.53 4.6,5.07l3.48 2.49c0.88,0.53 1.54,0.97 2.47,1.44 6.03,3.06 10.14,4.83 16.79,6.68 1.12,0.31 1.92,0.59 3.04,0.87 10.01,2.48 15.98,3.62 26.23,5.06 2.43,0.34 4.55,0.49 7,0.82l7.12 0.7c1.45,0.07 2.25,0.14 3.7,0.21l14.69 0.82 19.36 0 25.6 -1.71c13.93,-1.74 19.69,-2.54 33.24,-5.87 3.31,-0.81 8.73,-2.55 11.84,-3.8 1.98,-0.8 3.55,-1.53 5.47,-2.35 1.99,-0.85 6.63,-3.72 8.41,-5.17 1.65,-1.34 3.62,-3.35 4.75,-5.14 1.86,-2.96 2.01,-4.58 2.01,-7.9l0 -0.18c-0.01,-8.94 -11.87,-14.94 -18.88,-17.96 -8.21,-3.54 -20.08,-6.27 -28.96,-7.88 -1.65,-0.3 -2.96,-0.5 -4.59,-0.76 -1.59,-0.26 -3.11,-0.56 -5,-0.56 -4.59,0 -6.93,8.12 0.38,9.3 12.14,1.95 33.06,5.52 43.47,13.35 1.46,1.1 4.32,3.38 4.32,5.56 0,5.22 -11.72,9.78 -15.79,11.38 -9.06,3.58 -23.34,6.24 -33.09,7.67 -4.22,0.62 -8.31,0.86 -12.17,1.41 -3.4,0.48 -12.19,0.95 -15.73,1.15 -1.13,0.06 -2.37,-0.04 -3.51,-0.01l-19.55 0.21c-1.38,0.01 -1.96,-0.18 -3.08,-0.21 -1.08,-0.03 -2.24,0.06 -3.3,0.01l-9.68 -0.62c-3.02,-0.04 -15.52,-1.51 -18.44,-1.94 -4.08,-0.6 -7.85,-1.2 -11.63,-1.95 -7.64,-1.53 -14.81,-3.28 -21.42,-5.75 -4.57,-1.71 -15.82,-6.09 -15.82,-11.56 0,-3.26 7.31,-7.35 9.88,-8.65 9.63,-4.86 26.39,-8.5 36.84,-9.89 3.55,-0.47 5.16,-1.63 5.16,-5.34 0,-2.33 -2.39,-4.12 -4.12,-4.12 -2.17,0 -6.91,0.9 -9.18,1.32 -3.1,0.58 -5.85,1.17 -8.75,1.75 -2.78,0.56 -5.69,1.37 -8.38,2.12 -8.92,2.51 -25.92,8.43 -29.66,17.69 -0.52,1.28 -1.05,2.53 -1.05,4.27l0 0.34 0.01 0.01zm144.75 102.25c74.08,-20.15 125.5,-87.61 125.5,-164.37 0,-76.75 -51.43,-144.21 -125.5,-164.37 -0.56,-0.15 -0.94,-0.65 -0.94,-1.24l0 -9.34c0,-0.41 0.17,-0.76 0.49,-1.01 0.32,-0.25 0.71,-0.33 1.1,-0.23 80.2,20.64 136.44,93.22 136.44,176.19 0,82.96 -56.23,155.54 -136.44,176.19 -0.39,0.1 -0.78,0.02 -1.1,-0.23 -0.32,-0.25 -0.49,-0.6 -0.49,-1.01l0 -9.34c0,-0.59 0.38,-1.08 0.94,-1.24zm-88.7 -339.31l0 9.34c0,0.59 -0.38,1.08 -0.94,1.24 -74.08,20.15 -125.5,87.61 -125.5,164.37 0,76.75 51.43,144.22 125.5,164.37 0.56,0.15 0.94,0.65 0.94,1.24l0 9.34c0,0.41 -0.17,0.76 -0.5,1.01 -0.32,0.25 -0.71,0.33 -1.1,0.23 -80.2,-20.64 -136.44,-93.22 -136.44,-176.19 0,-82.96 56.23,-155.54 136.44,-176.19 0.4,-0.1 0.78,-0.02 1.1,0.23 0.32,0.25 0.5,0.6 0.5,1.01z"/>
   <path class="fil1" d="M182.86 149.93c-2.63,0 -5.57,-0.76 -7.47,-1.59 -4.12,-1.78 -7.63,-4.92 -9.62,-8.91 -3.32,-6.69 -2.71,-14.14 1.65,-20.18 1,-1.38 2.13,-2.46 3.46,-3.55 1.53,-1.26 2.56,-1.74 4.37,-2.63 4.49,-2.23 10.75,-2 15.23,0.01 6.44,2.89 11.53,9.44 11.53,16.47 0,3.85 -0.15,6.08 -1.92,9.61 -0.5,1 -1.08,1.94 -1.73,2.8 -0.42,0.56 -0.6,0.72 -1.03,1.24 -3.47,4.13 -8.69,6.73 -14.47,6.73l0 0zm-28.61 -19.35c0,11.58 6.38,20.85 16.33,25.87 17.32,8.74 40.9,-3.66 40.9,-25.87 0,-15.46 -13.01,-28.41 -27.79,-28.41 -12.12,0 -21.96,6.14 -26.9,16.74 -1.39,2.99 -2.54,7.38 -2.54,11.67l-0 0z"/>
  </g>
 </g>
</svg>
