<?xml version="1.0" encoding="UTF-8"?>
<!DOCTYPE svg PUBLIC "-//W3C//DTD SVG 1.1//EN" "http://www.w3.org/Graphics/SVG/1.1/DTD/svg11.dtd">
<!-- Creator: CorelDRAW 2020 (64-Bit) -->
<svg xmlns="http://www.w3.org/2000/svg" xml:space="preserve" width="21.3166mm" height="20.6503mm" version="1.1" style="shape-rendering:geometricPrecision; text-rendering:geometricPrecision; image-rendering:optimizeQuality; fill-rule:evenodd; clip-rule:evenodd"
viewBox="0 0 322 311.93"
 xmlns:xlink="http://www.w3.org/1999/xlink"
 xmlns:xodm="http://www.corel.com/coreldraw/odm/2003">
 <defs>
  <style type="text/css">
   <![CDATA[
    .fil0 {fill:#28295B}
    .fil1 {fill:#E79500;fill-rule:nonzero}
   ]]>
  </style>
 </defs>
 <g id="Слой_x0020_1">
  <metadata id="CorelCorpID_0Corel-Layer"/>
  <g id="_2426651044560">
   <path class="fil0" d="M122.16 1.14l0 8.27c0,0.52 -0.34,0.96 -0.84,1.09 -65.56,17.83 -111.07,77.54 -111.07,145.46 0,67.93 45.51,127.63 111.07,145.47 0.5,0.14 0.84,0.57 0.84,1.09l0 8.27c0,0.36 -0.15,0.67 -0.44,0.89 -0.29,0.22 -0.63,0.29 -0.98,0.2 -70.98,-18.27 -120.75,-82.5 -120.75,-155.93 0,-73.42 49.77,-137.66 120.75,-155.93 0.35,-0.09 0.69,-0.02 0.98,0.2 0.29,0.22 0.44,0.53 0.44,0.89zm78.5 300.29c65.56,-17.83 111.07,-77.54 111.07,-145.47 0,-67.93 -45.51,-127.63 -111.07,-145.46 -0.5,-0.14 -0.83,-0.57 -0.83,-1.09l0 -8.27c0,-0.36 0.15,-0.67 0.44,-0.89 0.29,-0.22 0.63,-0.29 0.98,-0.2 70.98,18.27 120.75,82.5 120.75,155.93 0,73.42 -49.77,137.66 -120.75,155.93 -0.35,0.09 -0.69,0.02 -0.98,-0.2 -0.29,-0.22 -0.44,-0.53 -0.44,-0.89l0 -8.27c0,-0.52 0.34,-0.96 0.83,-1.09zm-1.36 -104.96l-0.14 0.14 -0.28 0.14 -0.14 0.14c-0.31,0.16 -0.42,0.23 -0.7,0.42l-0.14 0.14c-1.12,0.65 -2.16,1.39 -3.21,2.09l-0.14 0.14c-0.81,0.43 -1.59,1.03 -2.37,1.53l-0.14 0.14c-0.71,0.38 -1.33,0.84 -2.04,1.31 -0.71,0.48 -1.33,0.89 -2.01,1.34l-0.14 0.14c-0.6,0.32 -1.34,0.97 -1.95,1.12 0.26,-0.55 0.13,-1.68 0.15,-2.46l0.13 -0.19 0.14 -4.87 0.14 -0.14 0 -2.35 0.14 -0.16 0 -2.23c0.21,0 0.14,0.04 0.13,-0.19l0.29 -5.81c1.52,0.8 2.94,1.7 4.46,2.51l0.14 0.14c1.6,0.85 3.14,1.8 4.74,2.65l0.14 0.14c0.67,0.36 4.3,2.51 4.88,2.65l0 0.28c-0.55,0.14 -1.63,0.94 -2.09,1.25zm-111.37 -82.52l-0.15 0.12 0.02 0.38 -0.04 0.25 0.05 12.7 -0.02 0.03 0.13 0.18 -0.14 0.4 0.14 0.14 0.02 0.29c-0.26,0.38 -0.18,0.57 -0.17,1.11 0.01,0.42 0.01,0.84 0.01,1.26 0,0.65 -0.21,1.98 0.14,2.38l-0.02 0.35 -0.13 0.2 0 0.14 0.13 0.19 0 0.05 -0.12 0.22 -0.01 0.08 -0 10.48 0 0.12 0.14 0.15c-0.04,0.51 -0.06,0.72 -0.14,1.11l-0 0.14 0 0.14 0 0.14 0.14 0.14c-0.06,0.37 0.03,0.16 -0.14,0.39 0,0.12 -0.01,0.21 0.01,0.29 0.08,0.32 0.05,0.17 0.13,0.32l0.01 0.4c-0.15,0.13 -0.14,-0.18 -0.17,0.44l0.02 0.42 -0.02 0.2 0.01 0.18 0.14 0.14 0 0.42c-0.2,0 -0.14,-0.04 -0.13,0.18l-0 0.2 -0.02 3.58 0.15 0.08 -0 0.26 -0.14 0.15 0.13 0.38 -0.12 0.37 -0.01 0.22 0.03 14.03 -0.03 0.06 0.13 0.18 0.01 0.1 -0.17 0.54 0.03 0.14c-0.01,0.75 -0,1.5 -0,2.25 0,0.37 -0.01,0.74 -0.01,1.12 -0,0.45 -0.05,0.82 0.18,1.07l-0.03 0.18 -0.14 0.14 -0.01 0.16 0.03 0.31 -0.01 0.14 0 0.05 -0.01 12.03c0,0.57 -0.08,1.32 0.11,1.72l0.03 1.63 -0.14 0.15 0 0.12 0.02 0.1 -0.02 0.37 -0.01 0.36c0.03,0.46 0,0.26 0.16,0.41l-0.03 3.74 -0.11 0.25 -0.02 0.49 0.02 0.9 0 0.03 0.02 12.81 -0.02 0.03 0.13 0.18 -0.14 0.4 0.14 0.14 0.02 0.29c-0.26,0.38 -0.18,0.57 -0.17,1.1 0.01,0.42 0.01,0.84 0.01,1.26 0,0.65 -0.21,1.98 0.14,2.38l-0.02 0.35 -0.13 0.2 0 0.14 0.13 0.19 0 0.05 -0.12 0.22 -0.01 0.08 -0 10.48 0 0.12 0.14 0.15c-0.04,0.51 -0.06,0.72 -0.14,1.11l-0 0.14 0 0.14 0 0.14 0.14 0.14c-0.06,0.37 0.03,0.16 -0.14,0.39 0,0.12 -0.01,0.21 0.01,0.29 0.08,0.32 0.05,0.17 0.13,0.32l0.01 0.4c-0.15,0.13 -0.14,-0.18 -0.17,0.44l0.03 0.42 -0.02 0.2 0.01 0.18 0.14 0.14 0 0.42c-0.2,0 -0.14,-0.04 -0.13,0.18l-0 0.2 -0.03 3.58 0.16 0.08 -0 0.26 -0.14 0.15 0.12 0.35c-0.3,0.55 -0.15,2.03 0.06,2.24 -0.07,0.86 0.31,1.35 0.66,1.87l0.14 0.14c0.35,0.48 1.28,1.04 2.1,1.11l9.89 0.01c39.35,0 78.71,0 118.06,0 2.26,0 6.11,0.48 6.14,-3.62 0.15,-18.44 -0.01,-37.39 -0.01,-55.9l0 -9.9c-0,-1.83 -0.07,-1.53 0.56,-2.79l0.14 -0.14 0.42 -0.84 0.14 -0.14c0.67,-1.27 1.4,-2.46 2.09,-3.76l0.14 -0.14c0.63,-1.19 1.32,-2.29 1.95,-3.48l0.14 -0.14 4.32 -7.67 0.14 -0.14 0 -0.14 0.14 -0.14 0.28 -0.56 0.14 -0.14 0.42 -0.84 0.14 -0.14c0.33,-0.63 0.64,-1.19 0.98,-1.81l0.14 -0.14c0.51,-0.96 1.03,-1.85 1.53,-2.79l0.14 -0.14 0.42 -0.84 0.14 -0.14c0.27,-0.56 0.55,-0.99 0.84,-1.53l0.14 -0.14 6.13 -10.87 0.14 -0.14c0.68,-1.27 1.41,-2.47 2.09,-3.76l0.14 -0.14 0.28 -0.56 0.14 -0.14c0.85,-1.62 1.8,-3.14 2.65,-4.74l0.14 -0.14c1.19,-2.26 2.57,-4.43 3.76,-6.69l0.14 -0.14 0 -0.14 0.14 -0.14 0.28 -0.56 0.14 -0.14 0.42 -0.84 0.14 -0.14c0.27,-0.49 0.44,-0.85 0.74,-1.35 0.32,-0.53 0.51,-0.91 0.79,-1.44l0.14 -0.14c0.34,-0.63 0.65,-1.19 0.98,-1.81l0.14 -0.14c0.53,-1.01 1.18,-1.99 1.67,-3.06l0.14 -0.14 0.14 -0.42 0.14 -0.14c0.13,-0.55 0.53,-1.35 0.75,-2.04 0.21,-0.66 0.5,-1.54 0.5,-2.28l0.14 -0.14c0,-2.83 0.53,-3.82 -0.36,-7.31 -0.2,-0.8 -0.45,-1.31 -0.61,-2.03l-0.14 -0.14c-0.2,-0.85 -1.41,-2.95 -1.93,-3.65 -0.28,-0.38 -0.63,-0.75 -0.86,-1.09l-0.14 -0.14c-0.66,-0.98 -2.55,-2.53 -3.62,-3.21l-0.14 -0.14 -0.28 -0.14 -0.14 -0.14 -0.84 -0.42 -0.14 -0.14c-0.28,-0.15 -0.33,-0.19 -0.7,-0.28l-0.14 -0.14c-0.43,-0.1 -0.4,-0.18 -0.84,-0.28l-0.14 -0.14c-1.01,-0.24 -2.15,-0.84 -3.34,-0.84l-0.14 -0.14 -0.7 0 -0.14 -0.14 -4.04 0 -0.15 0.13c-0.73,0.01 -0.87,0.14 -1.52,0.14l-0.14 0.14 -0.42 0 -0.14 0.14 -0.42 0 -0.14 0.14c-0.93,0.08 -1.7,0.65 -2.51,0.84l-0.14 0.14c-0.37,0.09 -0.41,0.13 -0.7,0.28l-0.14 0.14 -0.84 0.42 -0.14 0.14c-1.79,1 -3.91,3.08 -5.02,4.74l-0.14 0.14c-0.54,0.92 -1.03,1.69 -1.53,2.65l-0.14 0.14 -0.28 0.56 -0.14 0.14c-0.26,0.58 -0.53,1.05 -0.83,1.54 -0.32,0.53 -0.55,0.97 -0.85,1.53l-0.14 0.14c-0.44,0.84 -0.84,1.48 -1.3,2.32l-1.35 2.28 0 -26.76c0,-1.31 0.21,-3.21 -0.16,-4.3 -0.3,-0.91 -1.25,-2.13 -2.35,-2.25l-0.14 -0.14 -0.7 0c0,-0.21 0.04,-0.14 -0.19,-0.13 -1.13,0.04 -2.3,0.01 -3.43,0.01 -0.55,0 -1.13,-0.02 -1.68,-0 -0.66,0.01 -0.95,0.12 -1.67,0.12l-0.14 -0.14 -0.25 0 -0.2 0c-0.61,0.05 -0.96,0.14 -1.78,0.14 0,-0.21 0.04,-0.14 -0.19,-0.13l-0.03 0.01 -0.36 -0.02 -0.11 -0 -1.17 0.02c-0.87,0.01 -2.02,0.27 -2.59,-0.01l-0.45 -0.01 -0.1 0 -0.32 0.01c-0.41,0.21 -7.5,0.02 -8.9,0.02 -3.07,0 -6.13,0 -9.2,0 -6.11,0 -12.24,0.03 -18.35,-0.01 -0.24,-0.02 -0.2,-0.09 -0.2,0.12l-0.41 0 -0.15 -0.14 -0.54 -0 -0.14 0.14 -0.79 -0.12 -0.26 0.11 -0.45 -0c-0.03,-0.02 -0.08,-0.08 -0.1,-0.05 -0.02,0.03 -0.08,-0.04 -0.1,-0.04 -0.07,-0.01 -0.3,-0.04 -0.37,-0.04l-0.19 0.01 -0.49 -0 -17.31 0c-0.43,-0.02 -0.8,-0.08 -1.08,0.16l-0.19 -0.02c0,-0.2 0.04,-0.14 -0.17,-0.14l-0.11 -0.02 -0.33 0.03 -0.21 -0.02 -0.21 0.01 -12.16 0c-0.09,0 -0.38,-0.02 -0.47,0 -0.37,0.06 -0.21,0.04 -0.33,0.11 -0.94,0.04 -0.69,0.14 -1.35,0.29l-0.14 0.14 -0.14 0 -0.14 0.14 -0.14 0.14c-0.78,0.52 -36.58,36.51 -40.81,40.74 -0.82,0.82 -2.16,1.91 -2.68,2.89l-0.14 0.14c-0.15,0.64 -0.28,0.38 -0.28,1.25l0.01 0.02zm72.17 -38.74c0.14,0.18 0.04,0.17 0.18,-0.01l2.33 0.01c0.15,0.18 0.04,0.17 0.18,-0.01l0.56 0c0.13,0.2 0.02,0.2 0.15,0l13.22 0 0.16 0 5.95 0 0.24 0 34.78 -0.01 0 33.87c0,1.01 0.25,4.66 -0.21,5.5 -0.68,1.25 -1.36,2.31 -2.02,3.56l-0.14 0.14c-0.32,0.61 -0.65,1.2 -0.98,1.81l-0.14 0.14 -0.42 0.84 -0.14 0.14 0 0.14 -0.14 0.14 -0.28 0.56 -0.14 0.14c-0.32,0.61 -0.65,1.2 -0.97,1.81l-0.14 0.14c-0.33,0.62 -0.64,1.18 -0.98,1.81l-0.14 0.14c-0.32,0.61 -0.65,1.2 -0.97,1.81l-0.14 0.14c-0.68,1.28 -1.42,2.49 -2.09,3.76l-0.14 0.14c-0.5,0.94 -1.01,1.85 -1.56,2.76 -0.27,0.46 -0.45,0.87 -0.73,1.35 -0.3,0.5 -0.5,0.8 -0.77,1.32l-0.14 0.14 0 0.14 -0.14 0.14c-1.32,2.49 -2.87,4.91 -4.18,7.39l-0.14 0.14 -0.56 1.12 -0.14 0.14c-0.53,1 -1.11,1.99 -1.66,2.93 -0.57,0.97 -1.09,2.03 -1.68,2.92l-26.21 0 -0.14 0.14 -0.28 0 -0.14 -0.14 -0.98 0 -0.14 0.14 -0.18 0.01c-0.06,-0.07 0.16,-0.14 -0.27,-0.13 -0.28,0 -0.28,0.05 -0.39,0.1 -0.47,0.03 -1.6,-0.12 -2.37,-0.12l-17.58 -0 -0.28 0.01 -15.46 0.11c-0.56,0.02 -0.6,-0.15 -1.2,-0.08l-3.37 0.1 -0.15 -0.14c-0.74,0 -1.12,0.05 -1.71,0.11 -0.79,0.08 -0.76,-0.14 -1.49,-0.11 -0.55,0.02 -0.78,0.19 -1.53,0.12 -2.67,-0.24 -5.66,-0.13 -8.38,-0.13l-0.18 0.13c-3.59,0.14 -4.45,4.94 -1.59,6.53 0.86,0.47 1.22,0.46 2.47,0.46 25.77,-0.1 51.72,0 77.5,0 -0.25,0.44 -0.46,0.81 -0.7,1.25l-0.14 0.14c-0.32,0.61 -0.65,1.19 -0.98,1.81l-0.14 0.14 -0.42 0.84 -0.14 0.14 -0.42 0.84 -0.14 0.14 -0.42 0.84 -0.14 0.14 -0.42 0.84 -0.14 0.14 -0.42 0.84 -0.14 0.14c-1.2,2.27 -2.57,4.43 -3.76,6.69l-0.14 0.14c-0.5,0.95 -1,1.83 -1.56,2.76 -0.29,0.48 -0.56,0.95 -0.81,1.42 -0.27,0.48 -0.54,0.85 -0.55,1.54l-0.14 0.14 -65.23 0.14c-1.98,-0 -2.26,0.02 -3.48,0.84l-0.14 0.14 -0.14 0.14 -0.14 0.14c-0.18,0.26 -0.27,0.37 -0.42,0.7l-0.14 0.14c-0.07,0.32 -0.11,0.32 -0.14,0.7l-0.14 0.14 0 1.25 0.14 0.14c0.1,1.2 1.08,2.17 2.06,2.54 1.03,0.39 2.8,0.25 4.21,0.25l63.15 0 -0 2.37 -0.14 0.14 -0.01 2.48 -0.14 0.16c0,1.73 -0.14,2.98 -0.14,4.74l-0.14 0.14 -0.14 4.74c-0.2,0 -0.14,-0.04 -0.13,0.17l-0.02 0.21c0.04,1.61 -0.08,2.95 -0.15,4.58l-0.12 0.2 0 1.11 -65.65 0 -0.14 0.14c-0.5,0.1 -0.74,0.22 -1.11,0.42l-0.14 0.14c-1.51,1.01 -1.95,3.6 -0.53,5.13 0.68,0.73 1.23,1.09 2.37,1.25l61.72 0.03c8.53,0 6.47,0.94 11.85,-2.65 2.23,-1.48 15.07,-10.25 17.42,-11.57l0.14 -0.14 0.28 -0.14 0.14 -0.14c0.89,-0.6 1.83,-1.27 2.79,-1.81l0.14 -0.14c0.58,-0.34 0.94,-0.66 1.53,-0.98l0.14 -0.14c1.14,-0.72 1.31,-0.89 1.95,-2.09l0.14 -0.14 0.56 -1.11 0.14 -0.14c0.46,-0.87 0.92,-1.62 1.39,-2.51l0.14 -0.14 0 -0.14 0.14 -0.14c0.69,-1.31 1.41,-2.47 2.09,-3.76l0.14 -0.14 0.42 -0.84 0.14 -0.14c0.18,-0.34 0.29,-0.54 0.5,-0.9 0.11,-0.19 0.14,-0.27 0.25,-0.45 0.17,-0.29 0.05,-0.13 0.23,-0.33l0.02 -0.16 0.12 0.16 -0.14 0 0 51.58 -2.42 -0.03 -0.76 0.01 -0.9 -0.01 -1.17 -0.01 -0.99 0.04 -1 -0.02c-0.6,0.01 -1.11,-0.08 -1.52,0.14l-0.18 -0.14 -0.3 0.02c-0.27,0.11 -1.12,-0 -1.67,-0.04l-1.08 0.03 -0.18 0.13 -0.06 0 -0.18 -0.13 -36.66 0 -0.14 0.14 -0.14 0 -0.14 -0.14c-0.6,0 -1.1,-0.08 -1.52,0.13l-0.16 -0.13 -34.9 -0.02 -0.76 0.01 -0.9 -0.01 -1.17 -0.01 -0.99 0.04 -1 -0.02c-0.6,0.01 -1.11,-0.08 -1.52,0.14l-0.18 -0.14 -0.3 0.02c-0.27,0.11 -1.11,-0 -1.67,-0.04l-1.08 0.03 -0.18 0.13 -0.06 0 -0.18 -0.13 -26.9 0 0 -10.87 0 -0.14 0.01 -1.92c0.18,-0.14 0.17,-0.04 -0.01,-0.17l0 -81.4 0 -0.14 0.01 -1.92c0.18,-0.14 0.17,-0.04 -0.01,-0.17l0 -22.16c12.87,0 26.19,0.11 39.04,0.01 1.46,-0.01 3,-0.8 3.34,-2.24l0.14 -0.14c0.07,-0.82 0.14,-1.48 0.14,-2.51l0 -37.77 22.54 0 -0.01 -0.01zm42.41 25.08c0.19,0 0.14,0.05 0.14,-0.16l0 -0.54 -0.14 -0.14c0,-0.55 -0.04,-0.56 -0.14,-0.97l-0.14 -0.14c-0.16,-0.6 -0.66,-1.09 -1.12,-1.39l-0.14 -0.14c-0.38,-0.2 -0.71,-0.37 -1.25,-0.42l-0.14 -0.14 -41.96 0c-3.66,0 -7.17,-0.8 -8.64,1.81 -0.59,1.05 -0.47,1.69 -0.28,3.07l0.14 0.14c0.47,0.89 0.73,1.29 1.71,1.77 1.26,0.61 8.82,0.32 10.55,0.32l35.96 0c1.41,0 4.6,0.24 5.16,-2.09l0.14 -0.14c0.08,-0.33 0.13,-0.41 0.14,-0.84l0 -0zm-90.88 24.81l-0.14 0.14c-0.55,0.36 -1.05,1.11 -1.11,1.95l-0.14 0.14 0 1.25 0.14 0.14c0.09,1.09 1.24,2.28 2.23,2.51l0.14 0.14c0.95,0.04 0.96,0.14 2.65,0.14 27.52,-0.01 55.33,-0.15 82.8,0 2.04,0.01 3.21,-0.5 3.9,-1.81l0.14 -0.14c0.23,-0.52 0.42,-1.2 0.42,-1.95l-0.14 -0.14c-0.03,-1.54 -1.49,-2.83 -2.82,-3.04 -1.13,-0.18 -74.32,-0.02 -85.7,-0.03 -1.25,-0 -1.62,0.2 -2.36,0.7l-0 0zm126.71 9.9l-0.14 0.14c-0.52,1.08 -1.12,2.02 -1.67,3.07l-0.14 0.14c-0.34,0.63 -0.65,1.19 -0.98,1.81l-0.14 0.14c-0.46,0.86 -0.94,1.64 -1.39,2.51l-0.14 0.14 -0.56 1.11 -0.14 0.14c-1.02,1.92 -2.18,3.78 -3.2,5.71l-0.14 0.14 -0.28 0.56 -0.14 0.14c-0.56,1.06 -1.12,2.02 -1.67,3.07l-0.14 0.14c-0.29,0.54 -0.56,1.02 -0.84,1.53l-0.14 0.14c-1.03,1.95 -2.19,3.8 -3.21,5.71l-0.14 0.14 -0.42 0.84 -0.14 0.14 0 0.14 -0.14 0.14 -0.28 0.56 -0.14 0.14 -0.42 0.84 -0.14 0.14c-0.51,0.97 -1.02,1.82 -1.53,2.79l-0.14 0.14c-0.33,0.63 -0.64,1.19 -0.97,1.81l-0.14 0.14c-0.46,0.86 -0.94,1.65 -1.39,2.51l-0.14 0.14c-0.29,0.54 -0.52,1.04 -0.83,1.54 -0.32,0.53 -0.55,0.97 -0.84,1.53l-0.14 0.14 -0.42 0.84 -0.14 0.14c-0.64,1.2 -1.32,2.3 -1.95,3.48l-0.14 0.14c-0.19,0.36 -0.37,0.76 -0.56,1.12l-0.14 0.14c-0.33,0.62 -0.64,1.18 -0.97,1.81l-0.14 0.14 -0.28 0.56 -0.14 0.14 0 0.14 -0.14 0.14c-0.76,1.43 -1.62,2.76 -2.37,4.18l-0.14 0.14c-0.15,0.57 -0.68,1.09 -0.84,1.67 -0.43,-0.1 -0.68,-0.25 -1.06,-0.48l-2.85 -1.62 -0.14 -0.14 -0.84 -0.42 -0.14 -0.14 -0.84 -0.42 -0.14 -0.14c-1.65,-0.87 -3.14,-1.8 -4.74,-2.65l-0.14 -0.14c-0.34,-0.11 -0.55,-0.26 -0.84,-0.42l-0.14 -0.14 -0.84 -0.42 -0.14 -0.14 -0.84 -0.42 -0.14 -0.14 -0.84 -0.42 -0.14 -0.14 -0.84 -0.42 -0.14 -0.14c-0.87,-0.46 -1.66,-0.95 -2.51,-1.39 0.09,-0.37 0.13,-0.41 0.28,-0.7l0.14 -0.14c1.72,-3.26 3.71,-6.35 5.43,-9.62l0.14 -0.14c0.92,-1.73 2,-3.44 2.93,-5.16 0.93,-1.72 2.01,-3.42 2.93,-5.16l0.14 -0.14 0.42 -0.84 0.14 -0.14c1.03,-1.95 2.18,-3.77 3.21,-5.71l0.14 -0.14c0.34,-0.63 0.65,-1.19 0.97,-1.81l0.14 -0.14 0.42 -0.84 0.14 -0.14c0.34,-0.63 0.65,-1.19 0.97,-1.81l0.14 -0.14c0.51,-0.97 1.03,-1.84 1.53,-2.79l0.14 -0.14 0.42 -0.84 0.14 -0.14c0.85,-1.61 1.79,-3.12 2.65,-4.74l0.14 -0.14c0.33,-0.62 0.65,-1.2 0.97,-1.81l0.14 -0.14 0.42 -0.84 0.14 -0.14c0.5,-0.95 1.03,-1.83 1.53,-2.79l0.14 -0.14c0.29,-0.54 0.55,-0.99 0.84,-1.53l0.14 -0.14 0.56 -1.11 0.14 -0.14c0.63,-1.19 1.32,-2.3 1.95,-3.48l0.14 -0.14 0.56 -1.12 0.14 -0.14c0.36,-0.69 0.72,-1.26 1.11,-1.95 1.54,0.81 2.93,1.74 4.46,2.51l0.14 0.14c0.54,0.29 0.99,0.55 1.53,0.84l0.14 0.14 0.84 0.42 0.14 0.14c1.64,0.87 3.16,1.81 4.74,2.65l0.14 0.14 0.14 0 0.14 0.14c0.51,0.27 1.02,0.56 1.53,0.84l0.14 0.14 0.84 0.42 0.14 0.14 0.84 0.42 0.14 0.14 0.84 0.42 0.14 0.14 1.12 0.56c-0.05,0.6 -0.23,0.7 -0.51,1.16 -0.26,0.42 -0.39,0.66 -0.6,1.07l0 -0zm-107.89 -54.64l0 30.39 -30.42 -0.03 30.42 -30.35zm124.2 26.21l-0.14 0.14c-0.33,0.61 -0.67,1.12 -0.98,1.81l-0.14 0.14c-0.42,0.8 -0.95,1.68 -1.39,2.51l-0.14 0.14c-0.21,0.39 -0.34,0.7 -0.58,1.09 -0.2,0.32 -0.43,0.64 -0.53,1l-0.14 0.14c-0.76,1.43 -1.61,2.75 -2.37,4.18l-0.14 0.14c-0.12,0.37 -0.33,0.66 -0.53,1 -0.21,0.35 -0.34,0.62 -0.55,0.98l-3.23 5.69 -0.14 0.14 0 0.14 -0.14 0.14c-0.15,0.29 -0.19,0.33 -0.28,0.7 -0.38,-0.03 -0.3,-0.01 -0.56,-0.14l-0.14 -0.14c-1.83,-0.97 -3.61,-2.1 -5.43,-3.06l-0.14 -0.14c-0.72,-0.38 -1.37,-0.74 -2.09,-1.11l-0.14 -0.14c-0.54,-0.29 -1.02,-0.56 -1.53,-0.84l-0.14 -0.14 -4.55 -2.56c-0.54,-0.3 -0.87,-0.52 -1.44,-0.79l-0.14 -0.14 -0.56 -0.28 -0.14 -0.14c-0.33,-0.11 -0.57,-0.27 -0.85,-0.42 -0.45,-0.24 -0.58,-0.13 -0.4,-0.56l0.14 -0.14 0.42 -0.84 0.14 -0.14 0.56 -1.11 0.14 -0.14c0.29,-0.54 0.55,-0.99 0.84,-1.53l0.14 -0.14c0.34,-0.63 0.65,-1.19 0.98,-1.81l0.14 -0.14c1.03,-1.94 2.18,-3.76 3.21,-5.71l0.14 -0.14c0.51,-0.96 1.02,-1.83 1.53,-2.79l0.14 -0.14c0.69,-1.3 1.4,-2.46 2.09,-3.76l0.14 -0.14 0.42 -0.84 0.14 -0.14 0.42 -0.84 0.14 -0.14c0.18,-0.33 0.22,-0.47 0.45,-0.8 0.2,-0.27 0.34,-0.47 0.52,-0.73l0.14 -0.14c0.72,-1.07 1.88,-1.88 3.07,-2.51l0.14 -0.14c0.49,-0.12 0.59,-0.3 1.12,-0.42l0.14 -0.14c0.47,-0.11 0.68,-0.25 1.25,-0.28l0.14 -0.14 0.56 0 0.14 -0.14c1.81,0 2.92,-0.08 4.4,0.34 1.21,0.34 2.23,0.88 3.12,1.48l0.14 0.14c1.08,0.73 2.02,1.68 2.73,2.85 0.56,0.92 1.45,2.63 1.45,3.98l0.14 0.14c0,1.79 0.09,2.95 -0.34,4.4 -0.32,1.1 -0.99,2.34 -1.48,3.26l-0 0z"/>
   <polygon class="fil1" points="184.43,208.71 186.63,184.54 205.31,195.53 "/>
  </g>
 </g>
</svg>
