<svg width="16" height="16" viewBox="0 0 16 16" fill="none" xmlns="http://www.w3.org/2000/svg">
<g clip-path="url(#clip0_107_1338)">
<path fill-rule="evenodd" clip-rule="evenodd" d="M5.40126 6.86975C5.40126 7.32435 5.76023 7.88712 5.95088 8.17324C6.0135 8.26721 6.07349 8.3472 6.14153 8.43809L6.35255 8.6982C6.39547 8.75315 6.42261 8.77217 6.46253 8.82374L7.5462 9.84457C7.64138 9.91892 7.71948 9.97605 7.81744 10.0445C7.86179 10.0754 7.90344 10.0978 7.95163 10.1302C8.26497 10.3408 8.76316 10.5918 9.13897 10.5918C9.49636 10.5918 9.65077 10.4297 9.78602 10.2023C10.1939 9.51672 9.99358 9.49485 10.8133 9.78127C11.0116 9.85051 11.1834 9.91193 11.3781 9.98598C11.5702 10.059 11.741 10.1289 11.93 10.2037C12.0964 10.2695 12.3271 10.3838 12.3271 10.5919C12.3271 11.0302 11.9418 11.6917 11.5483 11.9647C11.1245 12.2586 10.8545 12.3037 10.3168 12.3037C9.85743 12.3037 9.22031 12.0621 8.87705 11.8904C8.82616 11.8649 8.7921 11.8483 8.74091 11.8223C8.47772 11.6887 8.20385 11.5065 7.9611 11.3458C7.8024 11.2407 7.64032 11.1155 7.48982 11.0004L6.59251 10.233C6.52545 10.1795 6.45095 10.0947 6.38675 10.0304C6.21565 9.8593 5.92216 9.5807 5.77354 9.40291L5.28647 8.85344C5.25271 8.81329 5.22708 8.78089 5.19302 8.7427C4.73648 8.23037 4.17363 7.34945 3.92028 6.70173C3.6713 6.06536 3.57665 5.37441 3.85743 4.7291C3.93622 4.548 4.08785 4.36021 4.2273 4.21955C4.34631 4.09957 4.57297 3.93862 4.73106 3.85953C4.77534 3.83735 4.84601 3.80863 4.88517 3.79383C5.06004 3.72752 5.38878 3.60754 5.56688 3.70459C5.72445 3.79044 6.0238 4.65798 6.10559 4.87772C6.17122 5.05416 6.39066 5.611 6.39066 5.7391C6.39066 5.88404 6.26143 5.95613 6.1498 6.0165C6.08334 6.05243 6.04658 6.07641 5.97719 6.11084C5.6628 6.26669 5.40134 6.4217 5.40134 6.8699L5.40126 6.86975ZM3.18686 5.47199C3.18686 6.25812 3.3727 6.77029 3.68423 7.39321C3.73858 7.50199 3.78354 7.58649 3.8415 7.69136L4.46554 8.63783C4.6843 8.92959 4.92585 9.24556 5.18558 9.50402L5.74219 10.0781C5.89698 10.2633 5.8542 10.1872 5.97073 10.3051C6.18746 10.5243 6.54921 10.8857 6.78557 11.0764L7.02786 11.2738C7.20189 11.4106 7.62942 11.7338 7.81661 11.8513C8.41742 12.2286 8.929 12.5333 9.65408 12.715C10.2399 12.8619 10.7977 12.8698 11.3534 12.649C11.5752 12.561 11.8463 12.3873 12.0012 12.2288C12.0909 12.1369 12.1419 12.116 12.2667 11.9603C12.3498 11.8565 12.4214 11.7726 12.4935 11.6532C12.6976 11.3154 12.9513 10.5528 12.7233 10.1954C12.6178 10.03 12.4734 9.91117 12.2981 9.81968C12.0601 9.69557 10.5667 9.11536 10.3169 9.11536C9.81962 9.11536 9.72196 9.2854 9.50095 9.66572C9.47012 9.7188 9.44644 9.773 9.41667 9.83277C9.30661 10.0537 9.25557 10.0891 9.09191 10.0891C8.85931 10.0891 8.45216 9.85367 8.25647 9.73098C7.90209 9.50875 7.44765 9.12776 7.14844 8.82878C6.93998 8.62039 6.57958 8.19677 6.4157 7.95966C6.31902 7.81984 5.7173 6.93305 5.95479 6.71632C6.24557 6.45087 7.02681 6.36178 6.86382 5.56416C6.83826 5.43899 6.62784 4.84164 6.57462 4.70692L6.25189 3.8675C6.10026 3.48756 5.87247 3.17896 5.36999 3.17896C5.06628 3.17896 4.70475 3.31412 4.49553 3.41952C3.77031 3.7848 3.18701 4.52747 3.18701 5.47184L3.18686 5.47199Z" fill="#E79500"/>
<path d="M7.99997 15.7123C12.2594 15.7123 15.7123 12.2594 15.7123 7.99997C15.7123 3.74055 12.2594 0.287598 7.99997 0.287598C3.74055 0.287598 0.287598 3.74055 0.287598 7.99997C0.287598 12.2594 3.74055 15.7123 7.99997 15.7123Z" stroke="#E79500" stroke-width="0.527692" stroke-miterlimit="22.9256"/>
</g>
<defs>
<clipPath id="clip0_107_1338">
<rect width="16" height="16" fill="white"/>
</clipPath>
</defs>
</svg>
