<?xml version="1.0" encoding="UTF-8"?>
<!DOCTYPE svg PUBLIC "-//W3C//DTD SVG 1.1//EN" "http://www.w3.org/Graphics/SVG/1.1/DTD/svg11.dtd">
<!-- Creator: CorelDRAW 2020 (64-Bit) -->
<svg xmlns="http://www.w3.org/2000/svg" xml:space="preserve" width="28.4223mm" height="27.6505mm" version="1.1" style="shape-rendering:geometricPrecision; text-rendering:geometricPrecision; image-rendering:optimizeQuality; fill-rule:evenodd; clip-rule:evenodd"
viewBox="0 0 1507.28 1466.35"
 xmlns:xlink="http://www.w3.org/1999/xlink"
 xmlns:xodm="http://www.corel.com/coreldraw/odm/2003">
 <defs>
  <style type="text/css">
   <![CDATA[
    .fil0 {fill:#28295B}
    .fil1 {fill:#E79500;fill-rule:nonzero}
   ]]>
  </style>
 </defs>
 <g id="Слой_x0020_1">
  <metadata id="CorelCorpID_0Corel-Layer"/>
  <g id="_2422768973440">
   <path class="fil0" d="M951.72 1410.61c300.37,-87.67 507.54,-363.9 507.54,-677.44 0,-313.54 -207.18,-589.76 -507.54,-677.44 -2.3,-0.67 -3.82,-2.7 -3.82,-5.09l0 -38.9c0,-1.71 0.73,-3.18 2.09,-4.22 1.36,-1.03 2.98,-1.35 4.62,-0.89 326.45,90.1 552.67,387.94 552.67,726.54 0,338.61 -226.22,636.44 -552.67,726.54 -1.65,0.46 -3.26,0.14 -4.62,-0.89 -1.36,-1.04 -2.09,-2.51 -2.09,-4.22l0 -38.9c0,-2.39 1.52,-4.42 3.82,-5.09zm-367.38 -1405.29l0 38.54c0,2.46 -1.62,4.54 -4,5.14 -312.61,78.94 -532.31,361.2 -532.31,684.17 0,322.97 219.7,605.24 532.31,684.18 2.39,0.6 4,2.68 4,5.14l0 38.54c0,1.68 -0.7,3.12 -2.02,4.16 -1.32,1.04 -2.88,1.38 -4.51,1 -338.39,-80.88 -577.81,-384.54 -577.81,-733.02 0,-348.48 239.42,-652.14 577.81,-733.01 1.63,-0.39 3.2,-0.04 4.51,1 1.32,1.04 2.02,2.48 2.02,4.16zm65.12 415.3c-7.29,1.7 -14.66,5.17 -21.57,7.98 -28.49,11.59 -18.48,14.95 -41.02,-7.58 -22.92,-22.93 -48.51,-57.9 -90.88,-38.79 -18.58,8.38 -34.63,28.24 -49.07,42.67 -15.62,15.62 -23.31,21.74 -37.32,38.87 -13.48,16.47 -15.47,43.16 -4.81,63.13 4.59,8.6 10.68,13.49 17.26,20.06 44.98,44.98 39.51,30.61 27.47,59.35 -3.06,7.31 -6.71,15.33 -8.42,22.68 -27.14,0 -63.77,-2.85 -83.8,4.84 -18.06,6.93 -37.49,26.07 -37.49,51.14l0 96.41c0,25.08 19.44,44.21 37.49,51.14 20.02,7.68 56.65,4.84 83.8,4.84 2.94,12.62 17.1,39.89 17.1,43.54 0,18.09 -100.76,60.06 -43.08,128.61l69.13 67.72c3.74,3.07 5.4,3.8 9.66,5.89 17,8.3 37.1,7.67 53.47,-1.08 14.2,-7.58 53.11,-53.41 56.99,-53.41 7.06,0 29.98,13.58 45.1,17.1 0,27.14 -2.85,63.77 4.84,83.8 6.94,18.06 26.07,37.49 51.14,37.49l96.41 0c25.07,0 44.21,-19.44 51.14,-37.49 7.69,-20.02 4.84,-56.65 4.84,-83.8 4.56,-1.06 9.96,-7.35 16.54,-10.59l-79.21 -95.54 -0.92 0.75c-13.14,2.56 -26.71,3.9 -40.59,3.9 -116.68,0 -211.27,-94.59 -211.27,-211.27 0,-116.68 94.59,-211.27 211.27,-211.27 116.68,0 211.27,94.59 211.27,211.27 0,22.73 -3.61,44.63 -10.25,65.14l0.05 0.05 -0.08 0.11c31.85,26.41 53.82,45.21 85.61,71.64 5.92,-6.28 23.05,-20.05 25.96,-32.57 27.14,0 63.77,2.85 83.79,-4.84 18.06,-6.94 37.5,-26.07 37.5,-51.14l0 -96.41c0,-25.07 -19.44,-44.21 -37.5,-51.14 -20.02,-7.69 -56.65,-4.84 -83.79,-4.84 -2.94,-12.62 -17.11,-39.88 -17.11,-43.54 0,-4.86 13.09,-15.42 16.72,-19.05 8.35,-8.35 30.4,-28.93 35.56,-37.53 27.57,-45.98 -16.15,-79.12 -39.44,-102.42 -10.25,-10.25 -19.78,-20.59 -30.3,-30.34l-18.23 -12.87c-17,-8.31 -37.1,-7.67 -53.47,1.07 -14.2,7.58 -53.11,53.41 -56.99,53.41 -7.06,0 -29.98,-13.59 -45.1,-17.11 0,-27.14 2.85,-63.77 -4.84,-83.79 -6.93,-18.06 -26.07,-37.5 -51.14,-37.5l-96.41 0c-25.08,0 -44.21,19.44 -51.14,37.5 -7.68,20.02 -4.84,56.65 -4.84,83.79zm344.07 370.34c4.48,-18.59 6.86,-38 6.86,-57.97 0,-136.28 -110.48,-246.75 -246.75,-246.75 -136.28,0 -246.75,110.48 -246.75,246.75 0,136.28 110.48,246.75 246.75,246.75 11.73,0 23.26,-0.82 34.55,-2.41l36.51 46.17c-6.5,10.87 -3.41,29.18 -3.4,46.71 0.02,73.34 7.2,61.03 -112.75,61.03 -23.14,0 -23.08,-26.06 -22.77,-36.5 0.32,-10.7 2.81,-62.06 -2.78,-71.6 -2.48,-4.23 -5.89,-6.17 -10.89,-7.84 -5.24,-1.76 -8.32,-2.12 -13.12,-3.99l-19.16 -7.28c-10.25,-4.72 -31.91,-18.54 -40.97,-16.37 -12.07,2.9 -27.36,24.59 -37.67,33.55 -5.18,4.5 -4.16,2.29 -8.84,8.27 -7.23,9.27 -17.78,19.85 -29.25,23.72 -4.72,1.6 -6.1,1.14 -11.78,-1.45 -11.99,-5.46 -36.32,-33.52 -46.53,-43.74 -35.15,-35.14 -40.53,-34.45 -20.61,-60.25 12.01,-15.56 57.18,-48.39 55.31,-64.92 -0.71,-6.27 -7.57,-17.25 -10.79,-23.24l-14.41 -35.24c-7.66,-23.07 -9.13,-23.54 -32.04,-23.54l-72.52 -1.77c-7.45,-2.39 -14.18,-10.84 -14.18,-20.78l0 -90.19c0,-23.79 26.23,-22.8 42.76,-22.8 17.54,0 34.7,-0.23 51.84,0.03 20.69,0.32 19.36,-12.3 25.77,-27.89l18.03 -41.07c4.83,-9.54 8.68,-15.88 1.87,-25.16 -1.96,-2.67 -15.44,-16.7 -18.3,-19.07 -2.19,-1.82 -3.2,-2.48 -5.14,-4.19 -5.36,-4.75 -8.76,-11.06 -14.18,-15.37 -9.63,-7.64 -22.51,-19.16 -25.19,-32.33 -1.01,-4.96 -1.47,-0.43 0.57,-6.14 0.97,-2.71 2.13,-4.88 3.68,-7.29 9.54,-14.8 42.82,-43.75 57.84,-58.79 10.03,-10.04 21.72,-21.02 36.77,-11.1l3.34 2.87c0.24,0.22 0.56,0.54 0.8,0.76l18.74 18.59c0.22,0.23 0.54,0.56 0.76,0.79l1.6 1.51c11.35,10.49 31.41,38.82 47.38,37.25 0.28,-0.03 0.72,-0.1 0.99,-0.15 0.26,-0.05 0.69,-0.18 0.94,-0.25 0.24,-0.07 2.13,-0.91 2.9,-1.25l34.72 -16.69c2.43,-0.95 5.28,-1.61 7.12,-2.22 11.31,-3.75 28.88,-7.41 33.64,-17.77 4.36,-9.5 -0.78,-68.6 2.29,-88.38 1.05,-6.76 7.87,-13.88 15.59,-16.55 6.39,-2.2 96.73,-1.69 101.96,-0.14 18.73,5.54 16.64,29.44 16.64,37.52l-0.02 51.31c0,3.97 -1.33,12.77 2.92,19.28 2.11,3.23 5.16,4.54 8.06,6.07 11.4,5.99 25.93,8.12 37.13,14.02l23.3 10.92c9.69,4.4 12.81,7.19 21.79,1.38 4.18,-2.71 5.75,-4.76 9.05,-8.14 3.7,-3.79 5.79,-4.88 9.16,-7.94 12.22,-11.08 39.28,-46.87 55.76,-46.87 10.81,0 19.23,10.68 25.27,16.72l42.76 42.76c11.99,11.99 24.46,24.19 11.89,40.65 -5.43,7.11 4.19,-5.08 -1.42,1.7l-43.9 44.74c-25.03,26.14 -15.65,19.84 -2.61,51.58l7.88 18.45c19.87,46.78 -3.12,34.51 95.7,35.79 5.06,0.07 3.73,0.28 8.79,1.13 3.39,0.57 5.62,0.34 8.43,2.56 5.79,4.56 10.48,9.41 10.48,19.16l0 90.19c0,29.14 -42.21,22.55 -60.25,22.55 -10.05,0.01 -38.1,-2.64 -46.99,2.26 -4.35,2.4 -7.77,9.35 -10.7,17.19l-40.25 -29.32z"/>
   <path class="fil1" d="M892.13 801.93l14.03 0c0,-3.15 -1.06,-6.21 -3.01,-8.68l-11.02 8.68zm-14.7 -27.01l13.75 -2.82 0 0 -13.75 2.82zm0.79 -46.28l13.98 -1.15 0 -0.01 -13.98 1.15zm-8.57 -49.04l-12.95 5.4 0.07 0.16 12.88 -5.56zm-0.36 -0.83l-13.03 5.22 0.08 0.19 12.95 -5.4zm-1.24 -2.38l12.85 -5.63c-0.09,-0.21 -0.19,-0.41 -0.29,-0.6l-12.57 6.23zm-2.98 -6.69l12.56 -6.24 -0.05 -0.1 -12.52 6.34zm-3.09 -5.39l-12.44 6.48 0.04 0.08 12.4 -6.57zm-43.51 -47.81l7.53 -11.84c-0.2,-0.12 -0.39,-0.24 -0.59,-0.36l-6.93 12.2zm-1.08 -0.62l-7.01 12.16 0.07 0.04 6.93 -12.2zm-4.44 -2.87l-8.01 11.52 0.06 0.04 7.95 -11.57zm-24.1 -11.32l5.84 -12.76 -0.03 -0.01 -5.81 12.77zm-37.57 -8.73l1.39 -13.96 -0.01 0 -1.38 13.96zm-53.38 8.96l-7.66 -11.76c-4.9,3.2 -7.3,9.09 -6.03,14.81l13.7 -3.05zm5.34 9.13l-10.64 9.15 0.06 0.06 10.59 -9.21zm7.29 7.29l11.42 -8.16 -0.01 -0.01 -11.41 8.17zm48.78 52.92l-10.94 8.79 0.01 0.01 10.94 -8.8zm-1.94 52.54l10.33 9.49 0.01 -0.01 -10.34 -9.49zm-21.31 21.09l-8.31 -11.31c-0.57,0.42 -1.11,0.88 -1.61,1.38l9.92 9.93zm-2.06 1.55l-8.76 -10.96c-0.15,0.12 -0.3,0.24 -0.44,0.37l9.2 10.59zm-1.83 1.83l10.17 9.67 0.04 -0.04 -10.21 -9.63zm-3.55 3.72l6.69 12.34c0.9,-0.49 1.74,-1.07 2.51,-1.74l-9.2 -10.6zm-17.29 9.37l3.75 13.52c1.02,-0.28 2,-0.68 2.93,-1.18l-6.69 -12.34zm-34.89 -6.8l-9.54 10.3c0.4,0.37 0.83,0.72 1.27,1.04l8.26 -11.34zm-20.75 -19.22l9.53 -10.29c-0.33,-0.31 -0.68,-0.6 -1.03,-0.88l-8.5 11.17zm-25.37 -25.51l10.4 -9.42 -0.09 -0.1 -10.31 9.51zm-1.68 -1.95l10.31 -9.51c-0.33,-0.36 -0.69,-0.71 -1.06,-1.03l-9.26 10.54zm-9.68 -8.5l-9.67 10.17c0.14,0.13 0.28,0.25 0.42,0.38l9.25 -10.54zm-8.12 -5.22l3.65 -13.54c-3.86,-1.04 -7.97,-0.39 -11.32,1.79l7.66 11.75zm-6.06 12.06l13.99 1.09 0 -0.03 -13.99 -1.07zm19.52 99.24l-11.7 7.75c0.23,0.34 0.47,0.67 0.72,1l10.98 -8.74zm11.25 14.12l-10.98 8.74 0.11 0.13 10.87 -8.87zm12.31 13.08l-8.31 11.31 0.01 0.01 8.3 -11.32zm15.37 12.55l-7.63 11.78 0.16 0.11 7.46 -11.88zm1.49 0.93l-7.46 11.88 0.16 0.1 7.3 -11.98zm17.31 9.85l-4.78 13.19 0.12 0.04 4.66 -13.24zm23.05 8.11l-4.66 13.24c0.19,0.06 0.38,0.13 0.57,0.19l4.09 -13.42zm43.22 5.75l-1.1 13.99 0.02 0 1.09 -13.99zm29.34 2.4l-5.63 12.85 0.07 0.03 5.56 -12.88zm34.05 24l-9.93 9.91 0.02 0.02 9.92 -9.93zm264.47 264.15l-9.92 9.93 0 0 9.92 -9.93zm87.69 -87.54l9.92 -9.93 0 0 -9.92 9.93zm-264.49 -264.15l-9.92 9.93 0 0 9.92 -9.93zm-7.28 -6.73l-9.92 -9.92c-5.03,5.03 -5.5,13.03 -1.09,18.61l11.01 -8.69zm0.02 -0.02l9.92 9.92c2.63,-2.63 4.11,-6.2 4.11,-9.92l-14.03 0zm202.36 291.35l9.91 9.94 0.01 -0.01 -9.92 -9.93zm35.77 35.72l-9.92 -9.93 -0.01 0.01 9.93 9.92zm-35.77 0l9.93 -9.92 -0.02 -0.02 -9.91 9.94zm-191.34 -335.82c-6.14,-7.79 -10.73,-15.13 -11.97,-21.15l-27.49 5.64c2.68,13.05 11.14,24.91 17.42,32.88l22.04 -17.37zm-11.97 -21.15c0.03,0.13 -0.05,-0.28 -0.11,-1.55 -0.05,-1.16 -0.06,-2.64 -0.03,-4.44 0.06,-3.62 0.27,-7.98 0.52,-12.66 0.46,-8.63 1.16,-19.66 0.65,-25.95l-27.97 2.29c0.31,3.84 -0.16,12.12 -0.7,22.17 -0.25,4.66 -0.49,9.49 -0.56,13.69 -0.06,3.77 -0.04,8.46 0.71,12.1l27.49 -5.64zm1.03 -44.6c-1.74,-21.19 -2.74,-37.4 -9.67,-53.45l-25.76 11.13c4.71,10.92 5.59,21.9 7.47,44.63l27.97 -2.3zm-9.6 -53.29c-0.07,-0.17 -0.14,-0.32 -0.19,-0.43 -0.05,-0.11 -0.1,-0.22 -0.12,-0.28 -0.04,-0.08 -0.05,-0.12 -0.06,-0.14 -0.01,-0.03 -0.01,-0.01 0.01,0.03l-25.9 10.81c0.07,0.17 0.14,0.32 0.19,0.43 0.05,0.11 0.1,0.21 0.13,0.28 0.03,0.07 0.05,0.11 0.06,0.14 0.01,0.03 0.01,0.01 -0.02,-0.03l25.9 -10.81zm-0.29 -0.64c-0.11,-0.27 -0.2,-0.47 -0.24,-0.56 -0.05,-0.11 -0.1,-0.2 -0.12,-0.26 -0.05,-0.12 -0.1,-0.21 -0.13,-0.26 -0.05,-0.11 -0.1,-0.2 -0.13,-0.25 -0.06,-0.12 -0.13,-0.24 -0.19,-0.35 -0.11,-0.21 -0.27,-0.51 -0.39,-0.75 -0.14,-0.27 -0.27,-0.5 -0.36,-0.67 -0.02,-0.04 -0.04,-0.07 -0.05,-0.1 -0.02,-0.03 -0.02,-0.04 -0.02,-0.04 0,0 0.01,0.01 0.01,0.02 0.01,0.02 0.02,0.03 0.03,0.06 0.02,0.03 0.08,0.18 0.18,0.38l-25.7 11.26c0.11,0.24 0.2,0.44 0.24,0.54 0.06,0.12 0.11,0.22 0.15,0.3 0.08,0.16 0.16,0.33 0.24,0.47 0.15,0.29 0.32,0.6 0.46,0.88 0.16,0.3 0.28,0.52 0.38,0.72 0.03,0.05 0.04,0.08 0.06,0.11 0.01,0.02 0.01,0.03 0.02,0.03 0.01,0.01 0.01,0.02 0.01,0.02 0,0 0,-0.01 0,-0.01 -0.01,-0.01 -0.01,-0.01 -0.01,-0.02 -0.01,-0.01 -0.02,-0.04 -0.04,-0.08 -0.02,-0.03 -0.05,-0.11 -0.1,-0.21 -0.03,-0.05 -0.06,-0.14 -0.11,-0.24 -0.04,-0.09 -0.13,-0.29 -0.23,-0.55l26.05 -10.43zm-1.69 -3.39c-0.32,-0.65 -0.55,-1.2 -1.02,-2.33 -0.46,-1.1 -1.07,-2.57 -1.96,-4.37l-25.13 12.48c0.45,0.9 0.76,1.63 1.17,2.64 0.41,0.98 0.99,2.42 1.8,4.05l25.14 -12.47zm-3.03 -6.79c-0.74,-1.46 -1.5,-2.74 -2.03,-3.62 -0.59,-0.99 -0.9,-1.49 -1.17,-2l-24.8 13.13c0.71,1.33 1.46,2.56 1.91,3.33 0.53,0.87 0.81,1.37 1.05,1.84l25.04 -12.67zm-3.16 -5.54c-4.49,-8.61 -12.9,-19.44 -21.44,-28.85 -8.52,-9.4 -18.57,-18.95 -26.99,-24.31l-15.05 23.68c5.21,3.31 13.25,10.64 21.25,19.47 7.99,8.81 14.51,17.55 17.34,22.98l24.89 -12.97zm-49.02 -53.52l-1.09 -0.62 -13.86 24.41 1.08 0.62 13.86 -24.4zm-1.01 -0.57c-0.67,-0.39 -1.36,-0.8 -3.5,-2.28l-15.89 23.13c2.49,1.71 3.84,2.57 5.39,3.46l14.01 -24.32zm-3.44 -2.23c-4.59,-3.19 -9.86,-5.63 -14.28,-7.51 -5.11,-2.19 -8.35,-3.37 -11.99,-5.04l-11.68 25.52c3.78,1.73 9.23,3.87 12.63,5.32 4.09,1.75 7.16,3.28 9.29,4.76l16.02 -23.04zm-26.29 -12.57c-13.88,-6.32 -29.09,-8.63 -41.99,-9.92l-2.79 27.93c12.15,1.21 23.6,3.19 33.16,7.54l11.62 -25.54zm-42 -9.92c-9.13,-0.91 -20.33,-0.77 -31.14,0.75 -10.54,1.49 -22.23,4.52 -31.28,10.42l15.33 23.51c4.04,-2.64 11.03,-4.89 19.89,-6.14 8.59,-1.22 17.53,-1.3 24.43,-0.62l2.77 -27.93zm-68.46 25.97c1.54,6.89 5.91,12.34 8.39,15.23l21.28 -18.29c-0.91,-1.06 -1.55,-1.92 -1.98,-2.61 -0.45,-0.73 -0.4,-0.84 -0.3,-0.43l-27.4 6.1zm8.45 15.29c2.18,2.5 4.32,4.22 5.21,4.98 0.82,0.7 0.99,0.89 1.25,1.26l22.82 -16.33c-2.18,-3.05 -4.32,-4.96 -5.87,-6.28 -1.48,-1.26 -1.76,-1.47 -2.25,-2.05l-21.17 18.42zm6.46 6.23c4.78,6.69 14.53,16.57 23.52,25.77 9.61,9.83 19.28,19.74 25.74,27.78l21.88 -17.57c-7.5,-9.34 -18.26,-20.33 -27.56,-29.84 -9.91,-10.13 -17.57,-18.01 -20.75,-22.46l-22.84 16.32zm49.27 53.56c7.92,9.84 7.96,24.13 -1.34,34.25l20.67 18.98c18.9,-20.59 18.94,-50.43 2.53,-70.82l-21.86 17.59zm-1.33 34.25c-7.42,8.07 -12.42,14.23 -19.29,19.28l16.62 22.61c9.72,-7.14 17.35,-16.4 23.32,-22.9l-20.66 -18.99zm-20.89 20.66c0.14,-0.14 0.27,-0.25 0.35,-0.33 0.08,-0.08 0.16,-0.15 0.22,-0.2 0.12,-0.1 0.21,-0.18 0.27,-0.23 0.12,-0.1 0.21,-0.17 0.25,-0.21 0.09,-0.07 0.16,-0.12 0.18,-0.14 0.05,-0.04 0.07,-0.05 0.06,-0.04 -0.02,0.02 -0.07,0.05 -0.16,0.12 -0.17,0.13 -0.4,0.3 -0.65,0.49 -0.24,0.18 -0.5,0.38 -0.71,0.53 -0.1,0.07 -0.2,0.15 -0.27,0.21 -0.04,0.03 -0.08,0.06 -0.13,0.1 -0.02,0.02 -0.06,0.04 -0.09,0.07 -0.02,0.02 -0.11,0.08 -0.22,0.17l17.52 21.93c-0.1,0.08 -0.18,0.14 -0.19,0.14 -0.02,0.02 -0.04,0.03 -0.04,0.03 -0.01,0.01 0.01,0 0.03,-0.02 0.05,-0.03 0.12,-0.08 0.22,-0.16 0.19,-0.14 0.43,-0.32 0.68,-0.51 0.25,-0.19 0.51,-0.38 0.72,-0.54 0.1,-0.07 0.21,-0.15 0.3,-0.22 0.04,-0.03 0.12,-0.09 0.2,-0.15 0.03,-0.03 0.11,-0.09 0.21,-0.17 0.05,-0.04 0.14,-0.12 0.26,-0.22 0.06,-0.05 0.15,-0.13 0.27,-0.23 0.09,-0.08 0.31,-0.28 0.57,-0.54l-19.83 -19.86zm-1.35 0.89c-0.29,0.25 -0.41,0.36 -0.46,0.39 -0.01,0.01 -0.06,0.05 -0.11,0.08 -0.04,0.04 -0.16,0.14 -0.31,0.27 -0.16,0.15 -0.41,0.37 -0.7,0.66 -0.31,0.31 -0.56,0.59 -0.75,0.82 -0.08,0.1 -0.15,0.19 -0.2,0.23 -0.04,0.05 -0.07,0.09 -0.07,0.1 -0.02,0.02 0.02,-0.02 0.05,-0.06 0.08,-0.1 0.14,-0.16 0.16,-0.19 0.03,-0.03 -0.08,0.09 -0.45,0.49l20.42 19.25c0.49,-0.52 0.86,-0.92 1.16,-1.27 0.16,-0.19 0.31,-0.36 0.45,-0.53 0.06,-0.08 0.12,-0.14 0.12,-0.15 0.03,-0.04 -0.08,0.11 -0.22,0.27 -0.18,0.21 -0.41,0.48 -0.7,0.77 -0.28,0.28 -0.5,0.48 -0.65,0.61 -0.13,0.11 -0.22,0.2 -0.23,0.2 -0.01,0.01 -0.02,0.02 0.02,-0.02 0.17,-0.14 0.42,-0.36 0.87,-0.74l-18.4 -21.19zm-2.8 2.75c-1.02,1.07 -1.93,2.14 -2.04,2.28 -0.09,0.1 -0.12,0.13 -0.14,0.15 -0.04,0.03 -0.15,0.14 -0.4,0.36l18.4 21.2c1.37,-1.19 2.3,-2.14 3.16,-3.11 0.82,-0.92 0.79,-0.93 1.37,-1.54l-20.34 -19.34zm-0.06 1.04l-17.29 9.37 13.37 24.68 17.29 -9.37 -13.37 -24.68zm-14.36 8.18c-6.72,1.87 -16.48,0.05 -22.88,-4.61l-16.52 22.68c12.78,9.31 31.3,13.31 46.91,8.97l-7.51 -27.04zm-21.61 -3.57l-20.76 -19.22 -19.06 20.59 20.75 19.22 19.07 -20.59zm-21.79 -20.09c-6.82,-5.18 -15.73,-15.21 -23.47,-23.76l-20.8 18.84c6.76,7.47 17.84,20.08 27.27,27.25l16.99 -22.34zm-23.56 -23.85c-0.15,-0.16 -0.22,-0.24 -0.23,-0.25 -0.01,-0.01 -0.01,-0.01 -0.07,-0.08 -0.05,-0.06 -0.27,-0.33 -0.5,-0.62 -0.27,-0.32 -0.55,-0.64 -0.88,-1l-20.63 19.03c0.05,0.05 0.04,0.04 -0.01,-0.01 -0.01,-0.02 -0.04,-0.05 0.11,0.14 0.14,0.18 0.36,0.45 0.65,0.78 0.28,0.33 0.58,0.67 0.93,1.04l20.62 -19.03zm-2.73 -2.98l-9.68 -8.5 -18.51 21.09 9.67 8.5 18.52 -21.09zm-9.26 -8.11c-2.66,-2.53 -6.41,-6.52 -14.14,-8.61l-7.31 27.09c0.35,0.09 0.42,0.14 0.34,0.1 -0.11,-0.05 -0.22,-0.12 -0.28,-0.16 -0.03,-0.02 0.07,0.05 0.42,0.37 0.18,0.16 0.39,0.36 0.66,0.62 0.14,0.13 0.28,0.27 0.45,0.42 0.16,0.15 0.33,0.32 0.51,0.49l19.35 -20.33zm-25.46 -6.81c-3.74,2.44 -7.06,5.7 -9.32,10.28 -2.09,4.24 -2.78,8.63 -3.07,12.47l27.98 2.13c0.08,-1.1 0.19,-1.75 0.27,-2.12 0.08,-0.34 0.11,-0.31 -0.01,-0.07 -0.13,0.27 -0.32,0.55 -0.54,0.78 -0.19,0.2 -0.25,0.21 0.01,0.03l-15.33 -23.5zm-12.39 22.72c-3.04,38.78 -1.95,72.21 21.81,108.08l23.4 -15.5c-18.56,-28.01 -20.1,-53.7 -17.23,-90.4l-27.98 -2.19zm22.53 109.08l11.25 14.12 21.95 -17.48 -11.25 -14.12 -21.96 17.48zm11.35 14.25c3.38,4.14 8.25,10.65 14.88,15.52l16.61 -22.61c-3.02,-2.22 -5.26,-5.14 -9.75,-10.64l-21.74 17.74zm14.89 15.53c2.06,1.51 3.87,3.16 6.55,5.55 2.49,2.22 5.66,4.98 9.5,7.47l15.25 -23.56c-1.9,-1.23 -3.7,-2.75 -6.1,-4.88 -2.21,-1.96 -5.21,-4.73 -8.6,-7.21l-16.6 22.63zm16.21 13.12l1.49 0.93 14.92 -23.77 -1.48 -0.93 -14.92 23.77zm1.65 1.03c1.2,0.73 2.47,1.55 3.95,2.49 1.43,0.91 3.02,1.93 4.65,2.92 3.14,1.91 7.09,4.16 11.24,5.66l9.56 -26.39c-1.43,-0.51 -3.43,-1.55 -6.2,-3.24 -1.33,-0.81 -2.68,-1.67 -4.14,-2.6 -1.41,-0.9 -2.95,-1.89 -4.45,-2.8l-14.6 23.96zm19.95 11.11l23.05 8.11 9.32 -26.47 -23.05 -8.11 -9.32 26.47zm23.62 8.3c14.14,4.31 33.66,5.33 46.2,6.32l2.2 -27.97c-14.42,-1.14 -29.82,-2.02 -40.22,-5.19l-8.18 26.84zm46.22 6.32c5.92,0.46 12.87,0.34 16.99,0.44 2.37,0.06 4.21,0.17 5.66,0.37 0.71,0.1 1.24,0.2 1.61,0.3 0.38,0.1 0.54,0.16 0.54,0.16l11.26 -25.7c-6.22,-2.73 -13.42,-3.05 -18.41,-3.17 -6.11,-0.14 -10.46,0.03 -15.49,-0.37l-2.17 27.98zm24.87 1.29c2.95,1.27 8.7,4.78 15.13,9.35 6.32,4.49 11.88,9 14.55,11.68l19.86 -19.82c-4.33,-4.34 -11.39,-9.92 -18.14,-14.73 -6.64,-4.72 -14.42,-9.72 -20.27,-12.24l-11.13 25.76zm29.69 21.04l264.47 264.15 19.83 -19.86 -264.47 -264.15 -19.83 19.86zm264.47 264.15c29.51,29.47 76.48,33.6 107.53,2.59l-19.83 -19.86c-18.59,18.56 -47.74,17.51 -67.87,-2.59l-19.83 19.86zm107.53 2.59c30.3,-30.27 30.3,-79.72 0,-109.99l-19.83 19.86c19.32,19.3 19.32,50.97 0,70.28l19.83 19.86zm0 -109.99l-264.5 -264.15 -19.83 19.86 264.5 264.15 19.83 -19.86zm-264.5 -264.15c-0.77,-0.77 -1.65,-1.55 -2.31,-2.13 -0.53,-0.46 -1.64,-1.43 -2.11,-1.83 -0.68,-0.59 -1.21,-1.07 -1.62,-1.45 -0.5,-0.47 -0.43,-0.46 -0.14,-0.09l-22.03 17.39c1,1.27 2.13,2.37 2.87,3.07 0.83,0.79 1.72,1.57 2.47,2.23 0.97,0.85 1.3,1.13 2.07,1.8 0.29,0.25 0.52,0.46 0.7,0.63 0.19,0.17 0.27,0.24 0.27,0.24l19.83 -19.86zm-7.27 13.11l0.02 -0.02 -19.84 -19.84 -0.02 0.02 19.84 19.84zm4.13 -9.94l0 -0.07 -28.06 0 0 0.07 28.06 0zm198.24 301.28c4.39,-4.39 11.55,-4.39 15.94,0l19.83 -19.86c-15.34,-15.33 -40.25,-15.33 -55.59,0l19.83 19.86zm15.94 0c4.38,4.37 4.38,11.49 0,15.86l19.83 19.86c15.36,-15.34 15.36,-40.25 0,-55.58l-19.83 19.86zm-0.01 15.87c-4.39,4.39 -11.53,4.39 -15.91,0l-19.85 19.84c15.35,15.36 40.27,15.36 55.61,0l-19.85 -19.84zm-15.94 -0.02c-4.39,-4.37 -4.39,-11.47 0,-15.84l-19.81 -19.88c-15.4,15.34 -15.4,40.26 0,55.6l19.81 -19.88z"/>
  </g>
 </g>
</svg>
