<?xml version="1.0" encoding="UTF-8"?>
<!DOCTYPE svg PUBLIC "-//W3C//DTD SVG 1.1//EN" "http://www.w3.org/Graphics/SVG/1.1/DTD/svg11.dtd">
<!-- Creator: CorelDRAW 2020 (64-Bit) -->
<svg xmlns="http://www.w3.org/2000/svg" xml:space="preserve" width="21.3166mm" height="20.6503mm" version="1.1" style="shape-rendering:geometricPrecision; text-rendering:geometricPrecision; image-rendering:optimizeQuality; fill-rule:evenodd; clip-rule:evenodd"
viewBox="0 0 1024.77 992.74"
 xmlns:xlink="http://www.w3.org/1999/xlink"
 xmlns:xodm="http://www.corel.com/coreldraw/odm/2003">
 <defs>
  <style type="text/css">
   <![CDATA[
    .fil1 {fill:#DB7600}
    .fil0 {fill:#28295B;fill-rule:nonzero}
   ]]>
  </style>
 </defs>
 <g id="Слой_x0020_1">
  <metadata id="CorelCorpID_0Corel-Layer"/>
  <g id="_2426754640160">
   <path class="fil0" d="M425.95 321.35l-0.06 11.86c-0.2,34.69 -0.33,57.99 17.9,91.17 3.01,5.48 6.38,10.64 10.06,15.44 14.95,19.5 35.09,33.21 57.26,38.84 22.1,5.62 46.27,3.21 69.36,-9.48 5.02,-2.75 9.99,-6 14.86,-9.73 3.04,-2.34 9.39,-7.98 14.64,-13.63 3.44,-3.7 6.34,-7.32 7.3,-9.73l0.33 -0.83 0.65 -0.54c4.22,-3.49 7.73,-7.35 10.33,-11.44 2.46,-3.87 4.11,-7.97 4.78,-12.17l0.21 -1.65 0.12 -2.1 0.12 -0.4c10.48,-35.29 10.44,-43.63 10.28,-74.64l-0.06 -14.31c0,-14.19 -2.55,-27.69 -7.42,-39.97 -4.88,-12.32 -12.08,-23.43 -21.34,-32.78 -3.77,-3.8 -8.87,-7.96 -14.35,-11.69 -5.19,-3.53 -10.69,-6.69 -15.69,-8.8 -3.15,-1.33 -6.18,-2.56 -9.38,-3.7 -3.15,-1.12 -6.4,-2.12 -10,-3.01 -27.31,-6.73 -56.43,-4.59 -81.08,6.29 -22.61,9.98 -41.47,27.37 -51.63,52.05 -2.96,7.2 -4.76,13.48 -5.82,20.39 -0.93,6.12 -1.29,12.81 -1.37,21.12l0 3.45zm-6.82 11.83l0.01 -11.82c0,-10.23 0.34,-18.2 1.47,-25.58 1.13,-7.41 3.08,-14.17 6.27,-21.95 10.89,-26.44 31.02,-45.03 55.15,-55.69 25.99,-11.48 56.68,-13.73 85.42,-6.65 3.88,0.96 7.34,2.02 10.64,3.19 3.25,1.15 6.43,2.44 9.75,3.85 5.45,2.3 11.36,5.68 16.88,9.44 5.82,3.97 11.26,8.41 15.33,12.51 9.94,10.03 17.65,21.92 22.85,35.06 5.18,13.08 7.9,27.42 7.9,42.46l0.03 14.28c0.16,31.69 0.21,40.3 -10.44,76.17l-0.12 1.63 -0.26 2.08c-0.82,5.15 -2.81,10.11 -5.73,14.73 -2.86,4.51 -6.63,8.73 -11.13,12.54 -1.52,3.19 -4.66,7.13 -8.25,11 -5.49,5.92 -12.23,11.88 -15.49,14.39 -5.16,3.95 -10.41,7.38 -15.71,10.29 -24.7,13.57 -50.59,16.14 -74.29,10.11 -23.63,-6 -45.08,-20.58 -60.96,-41.3 -3.89,-5.08 -7.45,-10.52 -10.61,-16.28 -19.07,-34.7 -18.94,-58.7 -18.73,-94.46zm-38.74 283.12c3.51,-5.25 32.49,-33.18 40.9,-41.61 3.3,-3.31 22.84,-18.89 2.31,-24.12 -28.3,-7.21 -55.52,1.66 -75.75,21.88 -6.91,6.91 -11.14,12.59 -15.69,22.25 -2.95,6.25 -7.41,20.61 -7.41,29.42 0,26.65 6.96,13.69 -15.85,36.59l-103.51 103.87c-16.99,17.53 -13.06,49.22 3.46,63.05 16.4,13.74 39.39,16.57 57.6,2.74l122.83 -123.57c18.37,3.13 34.25,1.24 50.82,-7.07 9.43,-4.73 13.67,-7.96 20.67,-14.99 10.82,-10.86 23.08,-32.49 23.08,-47.21 0,-4.98 2.24,-46.22 -15.05,-36.43l-51.99 52.35 -36.44 -37.14 0.02 -0.02zm-157.45 179.68c-2.05,-8.96 8.35,-15.25 12.51,-19.43l77.8 -78.13c7.61,-7.63 17.37,-22.44 27.37,-18.78 3.87,1.41 10.99,6.94 12.07,11.63 3.44,15.01 -16.06,26.51 -27.79,38.53l-61.89 62.12c-5.4,5.39 -9.71,10.29 -15.25,15.44 -8.64,8.03 -21.75,2.01 -24.82,-11.38zm182.51 -507.61c4.02,-28.65 23.76,-54.66 42.81,-68.7 49.03,-36.16 123.96,-36.04 171.68,-0.3 19.83,14.85 39.17,38.81 44.18,69.59 -12.34,0 -11.21,4.61 -11.14,16.76l0 55.86c0,25.74 -1.47,25.69 16.69,25.69 -1.81,27.63 -12.8,28.34 -41.18,28.43 -21.72,0.06 -47.77,1.24 -68.99,-0.25 -6.81,-12.23 -12.17,-11.38 -30.09,-11.47 -28.09,-0.13 -30.35,39.37 2.25,39.17 12.63,-0.08 22.12,1.67 28.52,-13.43 23.87,0 47.77,0 71.64,0 24.76,0.01 41.71,-3.23 48.4,-22.86 2.01,-5.91 1.88,-8.42 2.69,-15.21 0.95,-8.04 3.84,-2.06 11.64,-6.17 17.7,-9.33 12.86,-35.57 12.94,-58.53 0.05,-13.33 -1.46,-21.38 -8.07,-28.76 -4.1,-4.57 -5.9,-3.78 -7.25,-10.61 -7.16,-36.27 -16.82,-54.56 -43.93,-81.01 -29.45,-28.75 -86.98,-47.7 -135.07,-41.23 -64.83,8.73 -121.28,47.71 -135.13,115.71 -4.43,21.69 -5.29,8.82 -12.51,23.22 -5.03,10.07 -4.09,18.04 -4.09,31.61 0,12.89 -5.14,49.81 20.01,51.41 41.56,2.62 34.51,1.05 34.51,-36.87l0.04 -53.66c-0.6,-7.73 -3.27,-6.66 -10.58,-8.37l0.01 -0.02zm245.29 327.04c-0.92,2.75 -3.53,7.12 -4.84,10.18 -1.25,2.9 -2.51,9.71 -4.44,11.34 -2.53,1.33 -15.3,2.24 -19.45,3.38 -7.8,2.17 -6.01,10.91 -6.01,17.61 0,6.85 -1.75,15.01 6.41,17.2 4.91,1.31 16.46,1.74 19.94,3.72 1.48,3.34 2.53,7.48 4,11.04 1.42,3.47 3.75,6.87 4.99,10.04 -1.49,3.6 -8.66,12.02 -11.24,16.14 -4.66,7.45 3.02,12.69 7.54,17.2 4.7,4.65 9.73,12.45 17.41,7.84 5.27,-3.15 11.09,-8.77 16.34,-11.51 2.2,0.58 7.38,3.7 10.13,4.83 2.48,1.02 9.95,3.13 11.37,4.28 1.75,4.65 2.04,14.14 3.53,19.53 2.23,8.03 10.27,6.23 17.3,6.23 17.6,0 16.95,1.75 20.76,-26.55 3.68,-1 7.27,-2.15 10.78,-3.64 2.57,-1.11 8.36,-4.37 10.28,-4.9 5.88,2.9 15.84,14.03 22.49,12.67 3.31,-0.68 16.32,-13.92 18.57,-17.06 3.36,-4.69 0.65,-8.57 -2.2,-12.42 -2.5,-3.39 -4.91,-6.92 -7.42,-10.32 -2.74,-3.74 -2.09,-1.89 2.41,-11.38 2.04,-4.31 3.21,-8.54 4.54,-13.1 5.02,-0.52 15.65,-2.05 20.29,-3.44 7.8,-2.31 6.01,-10.47 6.01,-17.47 0,-6.71 1.73,-15.23 -6.24,-17.26 -4.17,-1.07 -17.49,-2.05 -19.83,-3.81 -0.91,-0.85 -4.25,-12.45 -7.64,-18.18 -1.88,-3.18 -1.8,-2.81 0.29,-5.74 2.36,-3.29 4.73,-6.86 7.16,-10.04 2.95,-3.89 5.78,-7.67 2.53,-12.51 -2.09,-3.13 -14.78,-16.14 -18.03,-16.99 -6.84,-1.78 -16.99,9.25 -22.97,12.55 -3.94,-1.24 -10.17,-5.48 -17.39,-7.48 -3.53,-0.98 -4.07,-0.1 -4.72,-3.81 -0.83,-4.79 -1.58,-9.61 -2.38,-14.41 -2.05,-12 -7.88,-9.33 -23.75,-9.38 -13.04,-0.04 -11.33,4.92 -13.84,19.42 -2.32,13.46 -0.52,2.97 -19.24,14.04 -5.28,3.12 -5.27,1.26 -10.28,-2.37 -6.69,-4.85 -13.38,-12.48 -21.16,-5 -3.79,3.65 -15.11,13.26 -14.98,18.51 0.13,5.06 10.27,15.87 12.99,20.99l0 0.01 -0.01 0.02zm-281.47 -70.61c4.83,-1.13 8.62,-2.84 13.74,-4.1 14.51,-3.59 36.59,-4.24 49.42,2.12 4.42,2.2 10.28,8.09 10.28,14.27 0,12.35 -0.8,11.43 -10.3,20.95 -7.89,7.93 -34.28,33.34 -37.81,38.52l21.41 22.08c5.03,-3.39 32.25,-31.78 40.33,-39.94 47.55,-48.05 64.9,98.18 -33.75,118.07 -31.45,6.33 -21.99,-6.24 -36.9,8.74 -2.97,2.99 -6.28,4.87 -7.61,9.22l253.06 -0.15c-4.8,-6.31 -6.44,-13.62 -1.56,-21.43 1.81,-2.89 4.05,-5.71 6.11,-8.43 0.75,-1 1.88,-2.43 2.91,-3.86 -1.13,-2.09 -2.36,-4.18 -3.27,-6.39 -0.99,-2.4 -1.73,-4.95 -2.59,-7.43 -1.82,-0.32 -3.9,-0.54 -5.13,-0.68 -3.56,-0.46 -7.46,-0.84 -10.9,-1.76 -4.56,-1.21 -8.39,-3.83 -10.81,-7.94 -3.6,-6.12 -2.59,-12.08 -2.59,-18.68 0,-1.6 -0.1,-3.2 -0.15,-4.8 -0.3,-10.03 2.22,-19.23 13.07,-22.25 3.36,-0.93 7.38,-1.34 10.86,-1.79 1.47,-0.2 3.57,-0.4 5.43,-0.7 0.11,-0.37 0.22,-0.74 0.3,-1.03 0.65,-2.15 1.24,-4.42 2.12,-6.48 0.82,-1.9 2.02,-4 3.07,-6.04 -1.34,-1.84 -2.86,-3.71 -3.99,-5.24 -3.47,-4.71 -8.08,-11.02 -8.24,-17.05 -0.27,-9.99 11.61,-19.58 18.29,-25.98 4.05,-3.89 9.02,-6.17 14.71,-5.74 7.9,0.63 12.85,5.74 18.83,10.08 0.57,0.41 1.13,0.88 1.71,1.35 3.76,-2.17 7.77,-4.14 11.92,-5.41 0.79,-0.25 1.54,-0.43 2.27,-0.61 0.09,-0.55 0.17,-1.08 0.25,-1.53 1.15,-6.66 1.35,-15.12 5.48,-20.75 -12.58,-8.73 -29.66,-12.24 -48.3,-17.2 -23.09,-6.15 -32.58,-8.15 -54.41,-16.88 -23.52,-9.4 -10.56,-11.93 -42.85,18.94 -6.08,5.8 -4.14,6.55 -4.14,21.54l0 77.08c0,15.01 4.4,23.07 -14.47,35.76 -2.16,-1.46 -11.64,-10.35 -13.1,-12.53 -3.2,-4.74 -1.36,-17.41 -1.36,-24.33l0 -77.08c0,-14.99 1.96,-14.56 -4.71,-20.97 -6.49,-6.25 -19.68,-20.29 -26.45,-24.84 -8.61,2.01 -20.35,8.14 -29.9,11.32 -24.89,8.28 -79.84,18.84 -90.27,30.02l0 -0.03zm269.37 414.52c208.65,-56.76 353.49,-246.77 353.49,-462.96 0,-216.18 -144.85,-406.19 -353.49,-462.95 -1.59,-0.43 -2.65,-1.83 -2.65,-3.48l0 -26.32c0,-1.15 0.49,-2.14 1.39,-2.85 0.91,-0.71 2,-0.93 3.11,-0.64 225.9,58.15 384.29,262.57 384.29,496.24 0,233.68 -158.39,438.1 -384.29,496.25 -1.11,0.29 -2.19,0.06 -3.11,-0.64 -0.91,-0.7 -1.39,-1.69 -1.39,-2.85l0 -26.32c0,-1.65 1.07,-3.05 2.65,-3.48zm-249.84 -955.71l0 26.32c0,1.65 -1.07,3.05 -2.66,3.48 -208.64,56.76 -353.49,246.77 -353.49,462.95 0,216.18 144.85,406.2 353.49,462.96 1.59,0.43 2.66,1.83 2.66,3.48l0 26.32c0,1.15 -0.49,2.14 -1.4,2.85 -0.91,0.71 -1.99,0.93 -3.11,0.64 -225.9,-58.15 -384.29,-262.57 -384.29,-496.25 0,-233.67 158.39,-438.1 384.29,-496.24 1.12,-0.29 2.2,-0.06 3.11,0.64 0.91,0.7 1.4,1.69 1.4,2.85z"/>
   <path class="fil1" d="M723.32 627.64l-0.31 -9.3c-17.35,-0.96 -33.08,13.43 -37.17,29.54 -4.52,17.86 5.1,37.13 21.76,44.51 17.34,7.69 37.02,2.14 47.76,-13.4 5.47,-7.9 7.58,-17.09 6.54,-26.63 -0.45,-4.12 -2.03,-9.03 -3.87,-12.75 -1.65,-3.34 -6.27,-8.42 -7,-10.35l11.75 -7.98c39.03,46.58 -12.28,108.22 -62.3,83.65 -46.68,-22.93 -35.66,-90.22 12.34,-99.86 3.3,-0.66 7.31,-0.64 10.17,-1.46 0.56,-11.93 -2.15,-12.21 13.03,-1.64 3.57,2.48 9.22,5.87 12.19,8.61 -1.04,3.11 -8.72,7.07 -11.7,9.16 -2.87,2.01 -10.08,8.19 -13.21,7.94l0.01 -0.01z"/>
  </g>
 </g>
</svg>
