<?xml version="1.0" encoding="UTF-8"?>
<!DOCTYPE svg PUBLIC "-//W3C//DTD SVG 1.1//EN" "http://www.w3.org/Graphics/SVG/1.1/DTD/svg11.dtd">
<!-- Creator: CorelDRAW 2020 (64-Bit) -->
<svg xmlns="http://www.w3.org/2000/svg" xml:space="preserve" width="28.4222mm" height="27.5335mm" version="1.1" style="shape-rendering:geometricPrecision; text-rendering:geometricPrecision; image-rendering:optimizeQuality; fill-rule:evenodd; clip-rule:evenodd"
viewBox="0 0 425.57 412.26"
 xmlns:xlink="http://www.w3.org/1999/xlink"
 xmlns:xodm="http://www.corel.com/coreldraw/odm/2003">
 <defs>
  <style type="text/css">
   <![CDATA[
    .fil0 {fill:#28295B}
    .fil1 {fill:#E79500;fill-rule:nonzero}
   ]]>
  </style>
 </defs>
 <g id="Слой_x0020_1">
  <metadata id="CorelCorpID_0Corel-Layer"/>
  <g id="_2426752508656">
   <path class="fil0" d="M193.67 235.1c10.48,0 18.98,8.5 18.98,18.98 0,10.48 -8.5,18.98 -18.98,18.98 -10.48,0 -18.98,-8.5 -18.98,-18.98 0,-10.48 8.5,-18.98 18.98,-18.98zm-32.21 -233.6l0 10.93c0,0.69 -0.44,1.27 -1.1,1.44 -86.64,23.57 -146.8,102.48 -146.8,192.25 0,89.78 60.15,168.68 146.8,192.26 0.66,0.18 1.1,0.76 1.1,1.44l0 10.93c0,0.48 -0.2,0.89 -0.58,1.18 -0.38,0.29 -0.83,0.39 -1.29,0.27 -93.81,-24.15 -159.59,-109.04 -159.59,-206.08 0,-97.04 65.78,-181.93 159.59,-206.08 0.46,-0.12 0.91,-0.03 1.29,0.27 0.38,0.29 0.58,0.7 0.58,1.18zm103.75 396.89c86.64,-23.57 146.8,-102.48 146.8,-192.26 0,-89.77 -60.15,-168.68 -146.8,-192.25 -0.66,-0.18 -1.1,-0.76 -1.1,-1.44l0 -10.93c0,-0.48 0.2,-0.89 0.58,-1.18 0.38,-0.29 0.83,-0.39 1.29,-0.27 93.81,24.15 159.59,109.04 159.59,206.08 0,97.04 -65.78,181.94 -159.59,206.08 -0.46,0.12 -0.91,0.03 -1.29,-0.27 -0.38,-0.29 -0.58,-0.7 -0.58,-1.18l0 -10.93c0,-0.69 0.44,-1.27 1.1,-1.44zm-114.46 -215.85c-0.54,0.12 -1.71,0.79 -1.99,1.24 -0.12,0.18 -0.26,0.33 -0.36,0.51 -0.18,0.31 -0.26,0.8 -0.41,1.16 -0.33,0.74 0.26,2.5 0.91,3.01l0.77 0.69c0.68,0.66 4.58,0.41 5.57,0.41l27.88 0c1.12,0 2.26,0.03 3.38,-0.02 0.97,-0.05 2.27,0.15 3.18,-0.02 0.49,-0.1 1.4,-0.51 1.75,-0.88 0.48,-0.51 0.89,-1.08 1.07,-1.75 0.12,-0.45 0.05,-0.79 0.03,-1.26 -0.02,-0.91 -0.82,-2.05 -1.53,-2.56 -1.3,-0.91 -4.1,-0.6 -5.65,-0.6l-31.32 0c-0.85,0 -2.45,-0.13 -3.23,0.03l-0.03 0.02zm-0.07 -20.76c-2.4,0.71 -3.46,3.08 -2.27,5.33 0.07,0.12 0.23,0.28 0.33,0.4 0.69,0.98 2.32,1.51 3.48,1.32 1.12,-0.18 2.16,0.08 3.24,-0.07 0.77,-0.1 1.1,0.03 1.8,0.08 0.53,0.03 1.1,-0.02 1.65,-0.03 10.8,-0.1 21.59,0 32.39,0l53.94 0c1,0 2.5,0.13 3.44,-0.03 0.79,-0.15 1.28,-0.31 1.84,-0.89 0.99,-0.99 1.28,-1.82 1.14,-3.23 -0.07,-0.61 -0.48,-1.39 -0.91,-1.8 -0.15,-0.15 -0.3,-0.27 -0.44,-0.41 -0.82,-0.74 -1.78,-0.73 -2.85,-0.71l-89.94 0c-1.55,0 -5.6,-0.25 -6.82,0.05l-0.02 0zm0.38 -20.83c-1.2,0.25 -1.33,0.3 -2.17,1.06 -0.15,0.18 -0.51,0.65 -0.59,0.81 -0.48,1.44 -0.58,2.55 0.36,3.82 0.49,0.68 1.15,1.06 1.96,1.29 0.79,0.23 2.73,0.13 3.61,0.12 4.08,-0.07 8.15,0 12.23,0 29.75,0 59.51,0 89.28,0 1.32,0 2.65,0.02 3.97,-0.05 2.22,-0.12 2.98,0.51 5.11,-0.46 0.16,-0.08 0.64,-0.46 0.74,-0.58 0.59,-0.88 0.9,-1.26 0.9,-2.38 0,-1.72 -1.04,-3.26 -2.78,-3.54 -1.1,-0.18 -2.83,-0.12 -3.97,-0.12 -1.3,0 -2.6,0.02 -3.9,0.02 -1.28,0 -2.65,-0.12 -3.92,0.02 -0.68,0.07 -1.32,-0.02 -1.98,0 -0.69,0 -1.37,-0.02 -2.06,-0.02 -10.77,0 -21.54,0 -32.31,0l-60.66 0c-1.04,0 -2.88,-0.15 -3.82,0.03l0 -0.02zm16.17 81.97c0.48,1.19 0.74,2.66 0.21,3.89 -0.43,0.98 -1.38,1.69 -2.49,1.44 -0.53,-0.12 -1.05,-0.27 -1.58,-0.41 -6.21,-1.82 -11.89,-6.12 -15.12,2.02 -1.27,3.18 -2.73,6.39 -3.85,9.61 -0.46,1.32 -1.12,3.29 -0.64,4.7 0.92,2.73 8.94,6.24 11.35,7.46l0.18 0.1 0.13 0.17c1.7,2.07 0.05,4.17 -1.99,5.06 -2.82,1.24 -8.73,3.74 -9.62,7.1 -0.48,1.77 0.25,3.95 0.87,5.61 1.2,3.19 2.75,6.35 4.08,9.49 3.38,7.94 11.49,0.45 16.42,0.33l0.38 0 1.83 1.59 0.58 0.03 0.05 0.86c0.1,2 -1.7,5.67 -2.39,7.68 -1.32,3.85 -1.61,7.23 2.68,9.1 3.56,1.54 7.34,3.32 11.02,4.55 1.37,0.45 3.46,1.09 4.87,0.46 1.2,-0.55 2.12,-2.08 2.77,-3.18 1.45,-2.5 2.72,-5.14 4.13,-7.68 1.24,-2.23 3.89,-1.92 5.05,0.33 1.15,2.22 4.18,9.35 6.42,10.4 2.65,1.24 9.85,-2.25 12.28,-3.31 7.23,-3.13 8.6,-3.49 6.26,-11.38 -0.38,-1.26 -2.12,-5.51 -1.96,-6.63 0.12,-0.8 0.68,-1.46 1.17,-2.07 1,-1.22 2.93,-0.55 4.15,-0.08 1.71,0.63 3.38,1.39 5.14,1.9 4.18,1.22 7.21,0.61 8.97,-3.79 1.3,-3.23 2.8,-6.47 3.95,-9.73 0.49,-1.39 1.17,-3.41 0.69,-4.88 -0.96,-2.93 -9.07,-6.48 -11.63,-7.76l-0.53 -0.27 -0.05 -3.52 0.54 -0.28c14.43,-7.41 14.1,-5.79 7.71,-20.76 -4.03,-9.46 -7.26,-5.56 -15.25,-3.44 -2.49,0.66 -2.27,0.96 -4.38,-0.81 -2.98,-2.52 7.85,-14.51 -0.92,-17.82 -2.9,-1.09 -5.65,-2.48 -8.51,-3.65 -1.91,-0.78 -4.3,-1.62 -6.39,-1.24 -1.19,0.22 -2.16,0.79 -3.03,1.61 -1.69,1.61 -4.08,7.61 -5.29,9.94l-0.23 0.45 -0.49 0.07c-4.1,0.63 -4.4,-2.63 -5.86,-5.51 -3.72,-7.28 -4.82,-8.6 -12.61,-4.98 -6.14,2.86 -13.98,3.36 -10.69,12.24l1.61 5 -0.02 0zm58.62 37.85l10 5.39 -3.85 9.05 -0.82 -0.23c-3.9,-1.12 -9.67,-4.53 -13.57,-2.1 -1.42,0.88 -5.2,4.75 -5.71,6.25 -1.4,4.07 2.14,8.49 2.68,12.62 0.18,1.36 -3.29,2.58 -4.23,2.98 -1,0.43 -3.98,1.8 -4.96,0.99 -0.81,-0.68 -1.43,-2.37 -1.83,-3.34 -0.63,-1.5 -1.25,-3.03 -2.11,-4.42 -0.77,-1.24 -1.76,-2.43 -3.06,-3.13 -1.28,-0.68 -5.29,-0.68 -6.72,-0.53 -1.78,0.2 -4.18,0.76 -5.3,2.3l-4.79 9.45 -0.56 0.03c-0.72,0.03 -3.57,-1.06 -4.31,-1.36 -1.15,-0.45 -4.56,-1.67 -4.17,-3.34 0.51,-2.15 1.24,-4.1 2.04,-6.15 0.44,-1.12 1.02,-2.51 1.04,-3.72 0.03,-2.31 -2.26,-4.66 -3.76,-6.17 -5.43,-5.43 -6.03,-3.39 -12.71,-1.39l-4.35 1.22 -0.33 -0.83c-0.48,-1.22 -1.02,-2.45 -1.53,-3.65 -0.35,-0.84 -1.4,-3.16 -1.5,-3.99l-0.08 -0.65 0.58 -0.31c2.17,-1.22 4.36,-2.23 6.59,-3.36 1.12,-0.56 2.5,-1.26 3.29,-2.25 1.24,-1.54 1.24,-4.33 1.24,-6.2 -0.02,-1.87 -0.02,-4.72 -1.19,-6.29 -1.4,-1.89 -7.71,-4.47 -9.9,-5.59l-0.79 -0.41 3.34 -8.39 0.13 -0.13c2.12,-2.22 10.75,6.04 15.86,0.68 1.12,-1.17 4.03,-3.71 4.63,-5.13 0.81,-1.94 -0.68,-6.3 -1.24,-8.19 -0.44,-1.5 -0.86,-3.04 -1.32,-4.55l-0.63 -0.99 1.25 -0.36c2.16,-0.63 5.68,-3.11 7.81,-2.95l0.53 0.05 0.25 0.46c2.11,3.84 3.61,10.93 8.84,11.25 2.85,0.16 7.25,0.38 9.5,-1.62 1.94,-1.74 3.72,-9.33 5.7,-10.01l0.33 -0.12 6.03 2.35 0.03 0.02c0.74,0.36 1.78,0.74 2.14,1.52 0.54,1.14 -0.87,3.97 -1.28,5.11 -2.98,8.25 -1.46,7.28 3.44,13.23 3.8,4.6 10.06,-0.73 14.84,-1.12l0.71 -0.07 3.79 9 -0.89 0.38c-2.98,1.29 -9.02,3.89 -10.57,6.83 -1.32,2.5 -0.76,9.81 1.45,11.88l0.02 -0.02zm47.7 -96.58c-0.15,0 -0.28,0.02 -0.41,0.03 -1.09,0.21 -2.06,0.4 -3.09,0.79 -0.2,0.08 -0.44,0.1 -0.63,0.18 -2.47,1.01 -4.73,2.45 -6.5,4.45 -0.15,0.17 -0.3,0.31 -0.46,0.48 -0.13,0.12 -0.23,0.27 -0.35,0.4 -0.49,0.6 -1.47,2.08 -1.8,2.8 -0.18,0.41 -0.35,0.83 -0.56,1.22 -0.59,1.12 -1.2,3.57 -1.35,4.85 -0.23,2.1 -0.07,4.37 -0.07,6.48l0 79.8c0,2.12 -0.18,4.4 0.05,6.48 0.07,0.66 -0.05,1.08 -0.07,1.7 -0.02,0.48 0.08,0.98 0.1,1.47 0.07,1.11 -0.13,2.22 -0.1,3.33 0.07,2.23 0.03,4.48 0.02,6.72 -0.02,2.22 0,4.43 0,6.67 0,2.22 -0.07,4.43 0.02,6.63 0.02,0.58 0.05,0.59 0.2,1.14 0.07,0.2 0.28,0.66 0.38,0.81 0.92,1.27 2.01,2.43 2.95,3.69 0.23,0.3 0.46,0.6 0.71,0.88l1.89 2.28c0.13,0.15 0.21,0.31 0.36,0.5l4.77 6c0.16,0.17 0.31,0.28 0.46,0.5 0.21,0.3 0.43,0.61 0.66,0.89l4.49 5.58 0.02 0.03c0.25,0.35 0.56,0.58 0.79,0.98 0.05,0.1 0.12,0.23 0.2,0.33 0.18,0.15 0.3,0.31 0.44,0.5 0.66,0.88 2.11,2.8 2.85,3.44 0.71,0.55 0.92,0.76 1.83,0.88 0.92,0.12 1.47,-0.03 2.29,-0.38 0.69,-0.3 2.26,-2.53 2.75,-3.19l1.75 -2.32c0.13,-0.18 0.26,-0.33 0.38,-0.48l2.12 -2.88c0.46,-0.63 0.99,-1.21 1.45,-1.84 1.38,-1.93 2.93,-3.77 4.3,-5.76l0.71 -0.94c0.25,-0.33 0.48,-0.65 0.74,-0.94l2.12 -2.83c0.41,-0.65 0.96,-1.13 1.38,-1.82 0.84,-1.34 2.87,-3.19 2.92,-4.81 0.07,-2.22 0,-4.43 0,-6.65l0 -106.67c0,-1.95 0.23,-4.52 -0.1,-6.4 -0.08,-0.48 -0.18,-0.96 -0.25,-1.44 -0.1,-0.71 -1.02,-3.33 -1.38,-3.94 -0.15,-0.23 -0.23,-0.43 -0.33,-0.69 -0.28,-0.69 -0.81,-1.26 -1.18,-1.89 -0.18,-0.31 -0.33,-0.55 -0.58,-0.79 -1.37,-1.36 -1.68,-1.87 -3.34,-3.14 -2.4,-1.85 -6.24,-3.19 -9.3,-3.21 -2.21,-0.02 -4.4,-0.03 -6.6,-0.03 -1.42,0 -2.83,0 -4.25,0 -0.64,0 -1.6,-0.03 -2.22,0.05l-1.14 0.2 0 -0.17 -0.03 0.05zm-8.08 27.4c-0.36,-1.49 -0.12,-4.68 -0.12,-6.37 0,-2 -0.2,-4.23 0.31,-6.17 0.33,-1.22 0.31,-1.34 0.96,-2.48 1.42,-2.53 2.7,-3.51 5.3,-4.68 1.84,-0.83 4.02,-0.69 5.99,-0.69 2.03,0 4.05,0 6.06,0 2.34,0 4.55,-0.25 6.75,0.74 0.03,0.02 0.08,0.03 0.12,0.05 0.54,0.08 1.04,0.46 1.5,0.74 0.46,0.3 0.58,0.36 1.02,0.76 0.53,0.46 1.14,0.93 1.55,1.5l0.81 1.16 0.02 0.03c0.97,1.75 1.47,3.31 1.47,5.33l-0.02 9.23c0,2.17 -1.86,1.64 -3.34,1.65 -4.5,0.02 -9.01,0.03 -13.5,0.05 -3.13,0 -6.27,0 -9.4,-0.02 -0.74,0 -4.22,0.07 -4.84,-0.15l-0.49 -0.18 -0.13 -0.51zm1.33 7.92c0.68,-0.05 1.53,-0.02 2.04,-0.03 1.52,-0.02 3.03,0 4.54,0 2.22,0 4.56,0.08 6.78,0 2.34,-0.1 4.68,0.02 7,0.02 2.3,0 4.59,-0.02 6.9,0 1.48,0.02 3.11,-0.53 3.11,1.52l0.02 52.89c0,8.68 0.08,17.35 0,26.04 0,0.31 -0.02,0.63 -0.03,0.99l-0.13 1.24 -0.44 0.25c-0.84,0.46 -13.27,0.22 -15.31,0.22 -2.19,0 -14.21,0.28 -15.25,-0.17l-0.15 -0.07 -0.12 -0.12c-0.54,-0.51 -0.38,-3.19 -0.39,-3.89 -0.03,-2.75 -0.03,-5.48 -0.03,-8.22 -0.02,-8.27 0,-16.56 0,-24.83 0.02,-11.6 0.1,-23.19 0.03,-34.79 -0.02,-1.54 -0.23,-9.83 0.26,-10.59l0.66 -1.03 0.53 0.53 -0.02 0.03zm-1.43 97.35c-0.18,-1.39 -0.03,-4.35 -0.02,-5.57 0.03,-1.39 0.69,-1.54 1.84,-1.52 5.24,0.07 10.49,0 15.73,0l12.79 0c1.48,0 1.48,0.86 1.48,1.97 0,0.96 0,1.92 0,2.88 0,2.03 0.36,2.42 -0.97,4.14 -0.82,1.06 -1.63,2.28 -2.5,3.26 -0.21,0.23 -0.36,0.56 -0.56,0.81 -0.41,0.53 -0.84,0.99 -1.25,1.59l-1.24 1.7c-0.2,0.25 -0.4,0.51 -0.59,0.78 -0.58,0.76 -0.94,0.74 -1.81,0.74 -1.96,0 -13.73,0.21 -14.59,-0.2 -0.53,-0.25 -1.3,-1.32 -1.68,-1.8l-5.1 -6.35c-0.23,-0.26 -0.46,-0.51 -0.68,-0.79 -0.25,-0.31 -0.66,-0.84 -0.77,-1.21l-0.1 -0.35 0.03 -0.05 -0.02 -0.02zm25.51 -57.9c0.16,-3.44 0.07,-6.9 0.07,-10.32 0,-3.46 0.03,-6.91 0.03,-10.39 0,-2.27 0,-4.55 -0.02,-6.81 0,-1.03 0.07,-2.52 -0.07,-3.51 -0.05,-0.43 -0.35,-1.08 -0.54,-1.44 -0.94,-1.7 -2.85,-1.72 -3.9,-0.12 -0.36,0.53 -0.69,1.69 -0.69,2.35l0 56.01c0,1.7 -0.02,3.41 -0.02,5.11 0,1.34 -0.13,3.8 0.07,5.05 0.23,0.99 0.84,2.25 1.88,2.58 0.18,0.07 0.43,0.16 0.63,0.16 0.74,0 1.12,-0.33 1.65,-0.74 0.18,-0.18 0.59,-0.88 0.69,-1.11 0.58,-1.36 0.31,-4.09 0.31,-5.61l-0.07 -31.18 -0.02 -0.03zm-19.33 35.45c0.07,0.18 0.12,0.31 0.16,0.51 0.13,0.71 0.28,1.16 0.72,1.74 0.96,1.26 2.55,1.22 3.52,0 1.15,-1.46 0.81,-4.17 0.81,-5.94l0 -46.95c0,-1.74 -0.08,-3.49 -0.02,-5.23 0.13,-3.27 0.13,-7.01 -0.02,-10.31 -0.07,-1.49 -0.53,-1.67 -1.35,-2.68 -0.3,-0.36 -1.63,-0.51 -2.04,-0.23 -2.3,1.55 -1.8,4.38 -1.76,6.82 0.05,3.49 -0.02,6.98 -0.02,10.47l0 31.22c0,3.48 -0.02,6.93 -0.03,10.41 0,2.3 0,4.58 0,6.88 0,1.09 -0.05,2.38 0,3.31l0.02 -0.02zm-27.3 -191.91c-0.23,0.02 -0.44,0.05 -0.68,0.07 -0.51,0.07 -0.81,-0.03 -1.27,-0.05 -0.34,-0.02 -0.74,0.07 -1.09,0.08 -0.48,0.02 -0.79,-0.12 -1.22,-0.13 -1.6,-0.08 -3.2,0.02 -4.79,0.02l-43.78 0c-8.15,0 -16.28,0 -24.42,0 -1.37,0 -5.29,-0.25 -6.39,0.31 -1.45,0.73 -2.53,2.07 -3.64,3.23l-3.64 3.67c-0.41,0.41 -0.86,0.81 -1.27,1.21l-12.17 12.29c-2.39,2.48 -4.94,4.8 -7.31,7.3 -1.38,1.46 -2.86,2.83 -4.26,4.32l-3.05 3.09c-0.2,0.2 -0.41,0.38 -0.59,0.56 -0.18,0.18 -0.46,0.36 -0.59,0.53 -1.04,1.29 -2.63,2.32 -3.51,3.67 -0.64,0.99 -0.53,2.48 -0.53,3.62l0 63.67c0,3.21 -0.02,6.42 0.05,9.61 0.02,0.78 -0.05,1.55 -0.07,2.33 -0.02,0.79 0.08,1.59 0.07,2.38 -0.16,21.22 0.05,42.45 -0.07,63.66 -0.07,13.04 0,26.07 0,39.12 0,1.57 -0.03,3.14 0.07,4.72 0.08,1.27 0.51,2.51 0.86,3.72 0.56,1.9 1.66,3.67 2.83,5.24 1.46,1.97 3.59,3.52 5.75,4.63 2.32,1.19 4.81,1.8 7.43,1.79 38.98,-0.07 77.94,0 116.91,0 1.28,0 5.7,0.2 6.62,-0.15 0.3,-0.12 0.41,-0.18 0.68,-0.35 0.12,-0.07 0.23,-0.12 0.31,-0.15 0.92,-0.69 1.4,-1.77 1.4,-2.91 0.02,-0.93 -0.46,-2.02 -1.19,-2.61 -1,-0.84 -1.8,-0.86 -3.09,-0.89 -4.89,-0.1 -9.77,0 -14.66,0 -3.34,0 -6.7,-0.05 -10.06,-0.07 -2.19,-0.02 -4.4,-0.02 -6.59,0 -1.14,0.02 -2.62,-0.03 -3.74,0.12 -0.58,0.07 -0.81,-0.07 -1.27,-0.07l-9.7 0.05 -0.07 0c-1.3,-0.13 -3.13,-0.05 -4.46,-0.05 -2.95,-0.02 -5.89,0 -8.84,0 -4.48,0 -8.94,0.03 -13.42,0.03 -4.05,0 -8.12,0.1 -12.17,-0.02 -0.81,-0.02 -1.63,0.13 -2.44,0.05 -1.4,-0.13 -3.05,-0.07 -4.45,-0.03 -1.45,0.02 -3.77,0.2 -5.15,0.02 -1.17,-0.15 -2.91,-0.05 -4.12,-0.07 -2.7,0 -5.38,0 -8.09,0.02 -3.98,0.02 -8,0.07 -11.99,0.03 -2.01,-0.02 -3.59,-0.36 -5.33,-1.37 -0.26,-0.15 -0.49,-0.36 -0.76,-0.53 -0.36,-0.23 -0.51,-0.38 -0.82,-0.66 -0.67,-0.63 -1.38,-1.36 -1.86,-2.17 -0.36,-0.63 -0.72,-1.12 -0.94,-1.85 -0.08,-0.31 -0.23,-0.56 -0.31,-0.91 -0.28,-1.36 -0.35,-2.18 -0.35,-3.56 0,-3.26 0,-6.53 0,-9.79 0,-3.24 -0.08,-6.48 -0.08,-9.73 0,-3.24 0.08,-6.48 0.08,-9.71 0,-26.1 0,-52.22 0,-78.33 0,-0.73 0.03,-1.49 -0.05,-2.22 -0.08,-0.81 0.05,-1.65 0.05,-2.46 0,-0.81 -0.15,-1.57 -0.05,-2.4 0.18,-1.51 0.07,-3.74 0.07,-5.29 0.02,-3.52 0.02,-7.03 0,-10.55 0,-5.28 -0.03,-10.57 -0.03,-15.85l0 -31.71c0,-1.22 -0.35,-2.8 1.48,-2.86 1.65,-0.07 3.31,0 4.96,0 6.47,0 12.96,0 19.43,0 2.85,0 4.73,-0.43 7.1,-1.93l1.33 -0.96c1.25,-1.01 3.23,-3.74 3.52,-5.34 0.07,-0.38 0.2,-0.68 0.3,-1.03 0.08,-0.31 0.08,-0.68 0.16,-1.01 0.31,-1.42 0.16,-3.11 0.16,-4.55l0 -19.6c0,-0.8 0.02,-1.59 0,-2.38 -0.03,-1.92 1.33,-1.72 2.67,-1.72l43.87 0c6.47,0 12.94,0.07 19.41,0.02 0.72,0 1.56,0.08 2.27,-0.02 0.51,-0.07 0.63,-0.22 1.27,-0.13 0.33,0.05 0.68,0.13 0.99,0.15l15.81 0c0.4,0 0.76,-0.1 1.19,-0.08 2.39,0.12 4.79,0.07 7.18,0.07 3.24,0 6.5,0 9.75,0 3.18,0 8.3,-0.53 11.13,0.86 0.15,0.07 0.31,0.1 0.48,0.18 0.71,0.35 1.58,0.84 2.12,1.42 0.61,0.65 1.04,0.89 1.61,1.72 0.18,0.25 0.36,0.48 0.53,0.74 0.33,0.51 0.58,1.19 0.82,1.75 0.25,0.55 0.51,1.7 0.56,2.32 0.13,1.65 0.05,3.34 0.05,5l0 34.26c0,1.64 0.1,3.27 0.03,4.91 -0.12,2.43 -0.03,4.86 -0.03,7.28 0,0.86 -0.02,1.14 0.2,1.97 0.2,0.73 0.96,1.74 1.63,2.03 1.25,0.56 2.04,0.55 3.33,0.05 0.91,-0.35 1.38,-1.21 1.76,-2.05 0.25,-0.61 0.12,-3.51 0.12,-4.32l0 -48.83c0,-1.04 -0.21,-2 -0.4,-3.03 -0.21,-1.19 -1.02,-3.11 -1.56,-4.18l-0.84 -1.46c-0.68,-0.91 -1.42,-1.77 -2.14,-2.63 -0.74,-0.89 -2.85,-2.33 -3.89,-2.93 -0.25,-0.15 -0.48,-0.25 -0.74,-0.36 -0.81,-0.36 -1.61,-0.78 -2.47,-0.98 -0.3,-0.07 -0.58,-0.21 -0.86,-0.28 -2.88,-0.58 -5.02,-0.51 -7.92,-0.51 -6.5,0 -13.01,0 -19.51,0 -1.61,0 -3.21,-0.02 -4.82,0 -0.36,0 -0.79,-0.05 -1.14,-0.02 -0.53,0.07 -0.76,0.2 -1.37,0.12 -0.72,-0.08 -1.28,-0.15 -2.01,-0.12l-0.36 0.02 0.07 -0.07zm-100.36 26.68c1.09,-1.26 2.4,-2.43 3.57,-3.62l0.66 -0.68c0.15,-0.16 0.26,-0.28 0.41,-0.41l1.83 -1.82c0.23,-0.22 0.44,-0.46 0.68,-0.68l1.09 -1.09c0.13,-0.13 0.23,-0.25 0.35,-0.36l1.46 -1.47c0.72,-0.66 2.5,-2.78 3.31,-2.98l0.84 -0.21 0.31 0.81c0.3,0.79 0.13,3.31 0.13,4.29 0,2.63 0.02,5.26 0.02,7.89 0,1.79 0,3.59 0,5.38 0,0.63 0.07,2.27 -0.07,2.83 -0.08,0.36 -0.33,0.71 -0.48,1.06 -0.64,1.41 -2.21,2.68 -3.74,2.86 -0.48,0.07 -0.95,0.02 -1.43,0.02 -2.42,-0.02 -17.65,0.25 -18.56,-0.18l-0.44 -0.22 -0.08 -0.5c-0.12,-0.68 0.1,-0.83 0.51,-1.24l9.67 -9.68 -0.03 0.02z"/>
   <circle class="fil1" cx="193.67" cy="254.09" r="12.46"/>
  </g>
 </g>
</svg>
