<svg width="20" height="17" viewBox="0 0 20 17" fill="none" xmlns="http://www.w3.org/2000/svg">
<g clip-path="url(#clip0_4_133)">
<path d="M19.962 0.845839C19.8924 0.641123 19.8095 0.58724 19.6799 0.536037C19.3965 0.430951 18.9165 0.58992 18.9165 0.58992C18.9165 0.58992 1.92272 6.69944 0.951871 7.37551C0.742848 7.52099 0.672887 7.60722 0.638049 7.70694C0.470276 8.18643 0.993121 8.39919 0.993121 8.39919L5.37322 9.82684C5.37322 9.82684 5.5365 9.85115 5.59469 9.81344C6.59109 9.18312 15.6199 3.48303 16.1406 3.29171C16.2227 3.2675 16.2836 3.29449 16.2674 3.35096C16.059 4.08369 8.21705 11.0526 8.21705 11.0526C8.21705 11.0526 8.18719 11.0902 8.16833 11.1333L8.15809 11.1279L7.74943 15.473C7.74943 15.473 7.57811 16.8038 8.9091 15.473C9.84817 14.5328 10.7568 13.7462 11.2115 13.3665C12.7176 14.4062 14.3385 15.5565 15.0381 16.1573C15.3894 16.4589 15.6832 16.5074 15.9252 16.4993C16.5892 16.4751 16.7745 15.745 16.7745 15.745C16.7745 15.745 19.8712 3.2809 19.9747 1.61082C19.9849 1.44649 19.999 1.34409 20.0001 1.23106C20.002 1.07486 19.9874 0.918576 19.9621 0.845839H19.962Z" fill="#282466"/>
</g>
<defs>
<clipPath id="clip0_4_133">
<rect width="19.3951" height="16" fill="white" transform="translate(0.604858 0.5)"/>
</clipPath>
</defs>
</svg>
